<svg version="1.1" id="hacktoberfest_logo" xmlns="http://www.w3.org/2000/svg" viewBox="-3 -3 230 230">
    <style>
        @import url(style.css);
    </style>
    <linearGradient id="grad_polygon" x1="0%" y1="0%" x2="0%" y2="100%">
        <stop offset="0%" stop-color="#ffd74d" stop-opacity="1" />
        <stop offset="100%" stop-color="#7c7fff" stop-opacity="1" />
    </linearGradient>
    <linearGradient id="grad_path" x1="152.14" y1="293.79" x2="232.15" y2="96.21" gradientTransform="matrix(1, 0, 0, -1, 0, 388)" gradientUnits="userSpaceOnUse">
        <stop offset="0.0" stop-color="#ffe27d" />
        <stop offset="0.5" stop-color="#64e3ff" />
        <stop offset="1.0" stop-color="#9192ff" />
    </linearGradient>
    <title>Hacktoberfest Logo</title>
    <g>
        <path d="M289.12,249a112,112,0,1,1-41-153A112,112,0,0,1,289.12,249ZM115.85,265.15c-5.74-14.76-6.7-33.61-2.82-53.91a165.06,165.06,0,0,1-15-16A101.77,101.77,0,0,1,87.87,180.6,105.26,105.26,0,0,0,115.85,265.15Zm-25.8-96.73c2.21,6.65,6.72,14.28,13.35,22.41a151.36,151.36,0,0,0,11.4,12.41A161.39,161.39,0,0,1,120.54,185a10.75,10.75,0,0,0,1.19,1.43,10.5,10.5,0,0,0,4.73,2.72,150.66,150.66,0,0,0-5.77,19.62q5.67,5.11,12.16,10.2a10.36,10.36,0,0,0-.19,2v6.63q-7.17-5.37-13.49-10.86a113.43,113.43,0,0,0-1.45,20.49c.51,21,7.53,36.79,19.45,45.08l9.77-16.92a10.43,10.43,0,0,0,2.79,5,10,10,0,0,0,1.64,1.34l-8.08,14c13,5.62,29.8,3.63,47.74-6.16a114.69,114.69,0,0,0,17-11.49,254.15,254.15,0,0,1-26.4-10.9v-7.77a246.46,246.46,0,0,0,32.57,13.35c1.16-1.06,2.32-2.16,3.47-3.28h9.79c-1.82,1.95-3.66,3.82-5.53,5.63a151.26,151.26,0,0,0,16.45,3.66c10.36,1.68,19.22,1.77,26.08.36a105.57,105.57,0,0,0,31.95-63.79,101.61,101.61,0,0,1-17.72-1.42c-12.37-2-26.36-6.08-41.07-12.06v-7.57a222.62,222.62,0,0,0,21.82,7.91c5.1-15.33,7.43-30.2,7.11-43.45-.49-20.43-7.17-36-18.54-44.43l-10.41,18a10.46,10.46,0,0,0-3.06-6.77,9.19,9.19,0,0,0-.73-.67l8.2-14.2c-13.14-6.18-30.36-4.35-48.77,5.7a123,123,0,0,0-26.66,20.09h-9.79c18.65-19.93,40.07-32.65,59.68-35.67a105.27,105.27,0,0,0-81.39,14,92.56,92.56,0,0,0,9.73,14.23q3.45,4.23,7.6,8.56a10.54,10.54,0,0,0-2.7,2,10.33,10.33,0,0,0-2.15,3.1q-4.44-4.63-8.17-9.2a101.37,101.37,0,0,1-10.09-14.63,105.51,105.51,0,0,0-39.27,59.56ZM255,277.1a105.24,105.24,0,0,1-87.21,18c15.65-2.41,32.46-11,48.09-24.51a165.37,165.37,0,0,0,21.38,5A99.92,99.92,0,0,0,255,277.1Zm42-78.77A93.15,93.15,0,0,1,279.83,197c-4.33-.7-8.89-1.67-13.63-2.91,9.08-27.47,9.77-53.88,2.24-73.25A105.26,105.26,0,0,1,297,198.33Z" transform="translate(-80.15 -81)" />
        <polygon points="56 99.72 68.44 99.72 68.44 87.45 80.89 87.45 80.89 136.55 68.44 136.55 68.44 148.83 80.89 148.83 80.89 173.38 93.33 173.38 93.33 136.55 105.78 136.55 105.78 124.28 130.67 124.28 130.67 161.11 143.11 161.11 143.11 148.83 155.56 148.83 155.56 136.55 168 136.55 168 124.28 155.56 124.28 155.56 136.55 143.11 136.55 143.11 50.62 130.67 50.62 130.67 62.89 118.22 62.89 118.22 75.17 105.78 75.17 105.78 87.45 118.22 87.45 118.22 75.17 130.67 75.17 130.67 112 105.78 112 105.78 124.28 93.33 124.28 93.33 62.89 80.89 62.89 80.89 75.17 68.44 75.17 68.44 87.45 56 87.45 56 99.72" />
    </g>
</svg>