<svg version="1.1" id="cadbury_logo" xmlns="http://www.w3.org/2000/svg" viewBox="-10 -10 590 260">
    <style>
        @import url(style.css);
    </style>
    <linearGradient id="grad" x1="0%" y1="0%" x2="100%" y2="0%">
        <stop offset="0%" stop-color="#9C7E46" stop-opacity="1" />
        <stop offset="50%" stop-color="#CBB386" stop-opacity="1" />
        <stop offset="100%" stop-color="#9C7E46" stop-opacity="1" />
    </linearGradient>
    <title>Cadbury Logo</title>
    <g>
        <path d="M 407.65551,540.62464 C 390.71031,550.21304 376.54911,570.23683 368.56672,586.50393 C 364.44652,592.65442 366.34932,605.16102 378.08821,597.32492 C 386.73641,591.54183 403.77911,566.98583 414.8621,548.71854 C 416.0725,546.71844 417.4389,542.50084 416.9597,540.49664 C 415.2034,536.97984 409.84651,539.57894 407.65551,540.62464 M 476.60429,552.83864 C 464.70509,556.16883 456.07489,566.48013 451.49399,577.15503 C 449.08989,582.74323 446.194,591.98022 449.59129,596.55732 C 450.99239,598.28732 453.42729,597.28022 454.82009,596.26492 C 459.56559,592.98752 463.01149,587.90093 465.91129,583.35023 C 471.23339,573.85523 475.90789,563.71253 477.23379,552.69644 L 476.60429,552.83864 z M 523.21447,556.02263 C 517.02738,559.22063 513.50218,569.56663 512.30018,575.29713 C 510.80558,582.50363 509.43088,592.31732 512.70818,596.62842 C 513.46168,597.35532 514.44648,597.88322 515.64848,597.85292 C 520.56657,597.95842 523.98607,590.36593 525.91517,586.00223 C 529.14377,578.74693 532.03937,567.27423 531.00587,559.94773 C 530.61187,556.16883 527.00157,554.49754 523.21447,556.02263 M 401.65521,441.78547 C 413.6112,454.02606 417.2257,472.37246 411.4872,488.12575 C 397.82761,523.07214 362.37552,547.96934 325.13643,557.96993 C 307.51713,561.95193 282.02494,563.90333 265.85544,555.63683 C 251.39755,547.65454 244.47525,530.81084 247.29175,514.88085 C 251.80175,490.51165 270.54814,472.79876 292.69984,461.11276 C 311.16193,452.22486 332.97253,448.24296 355.04502,450.72626 C 357.48382,451.11206 359.72352,452.29196 360.34482,455.11246 C 360.59262,457.13876 360.27792,458.50956 359.33362,459.80916 C 357.77212,461.71586 355.96702,462.17276 353.95862,462.05696 C 329.08793,461.90676 303.52493,468.07966 285.30234,484.22295 C 274.62754,494.35155 266.01994,510.37485 274.26404,527.39134 C 279.54154,538.11074 298.45644,541.39214 309.56993,540.37694 C 374.20771,534.39884 394.16441,494.92415 397.94731,481.38016 C 405.72651,453.54276 378.45171,429.85587 326.05423,437.13767 C 258.25895,446.55746 216.08776,492.58695 207.46176,539.75154 C 198.40106,589.30203 246.13435,610.31862 295.86144,599.86102 C 316.12873,595.61312 337.48242,585.97183 358.32652,566.14303 C 375.50721,548.11134 399.02551,521.86594 425.6608,525.91924 C 428.9424,526.66444 432.9344,528.32744 433.8745,531.96414 C 435.4483,538.39904 432.1404,544.14164 430.0468,549.85364 C 408.86581,585.97983 411.0346,600.63262 414.8175,602.50492 C 422.5966,604.97012 427.6122,593.87902 431.4175,587.66523 C 436.4777,564.28913 454.91749,542.13334 478.70589,535.41004 C 479.42879,532.59774 479.50409,529.75094 479.42879,526.83694 C 479.06129,514.32225 473.18479,505.65175 469.44649,495.42975 C 468.56329,492.73725 469.47689,489.42935 471.57449,487.41105 C 473.23759,485.69095 476.82979,483.79255 479.73959,484.58235 C 482.58239,485.06565 484.53378,487.35405 486.05058,489.35835 C 491.45608,497.67365 497.43418,502.47185 508.75248,502.46775 C 517.19588,502.75615 525.77307,502.18355 532.54507,497.72645 C 536.80717,492.85295 541.67667,487.57955 548.04057,485.85955 C 551.12697,485.24235 553.58807,485.88605 555.70406,487.77045 C 557.68176,489.76645 558.18736,492.77785 557.10506,495.46025 C 555.15367,500.47175 548.18257,505.31055 543.24627,510.54765 C 535.14827,519.16934 529.21897,529.67564 525.07657,540.86024 C 527.62287,540.07034 531.17437,539.22354 534.44777,539.85304 C 543.86747,541.63184 546.85657,550.67004 547.39277,559.27363 C 547.56137,561.97433 547.48197,564.86583 547.07807,567.65583 C 552.47937,566.81323 555.91706,564.79473 559.96606,562.71963 C 566.88436,558.83903 572.62686,553.12704 578.17046,547.70334 C 580.62746,545.44114 584.33936,544.62494 587.12956,545.65844 C 589.32446,546.31024 591.13366,548.25764 591.51946,550.66584 C 592.50025,557.18013 586.67656,559.22063 578.33486,571.87753 C 573.67876,578.96023 568.38296,586.31303 567.49146,594.98772 C 567.37166,596.55322 567.75756,598.02942 568.78696,599.17892 C 570.69776,600.77082 573.85136,599.93222 575.90436,598.74832 C 580.18876,596.36642 583.61646,592.53072 586.14056,588.58313 C 589.82606,575.15073 595.11165,562.38653 605.87585,553.05174 C 608.60295,551.00284 611.90665,549.05974 615.47645,549.84964 C 617.39745,550.18674 618.96295,551.56144 619.35295,553.10044 C 621.49515,559.51313 617.08265,567.87723 614.02255,573.25213 C 610.10145,580.17033 603.76005,586.81863 598.34025,592.91652 C 598.19415,596.11872 598.91705,598.17572 601.40045,598.80112 C 605.18335,599.29872 608.17245,596.48222 611.10875,594.12272 C 619.30825,586.48163 627.06095,577.53673 631.91214,567.29653 C 631.11404,558.07153 634.27164,547.46374 642.51184,542.59834 C 645.30984,541.19734 648.56094,541.33934 650.80064,542.86434 C 653.08904,544.61664 653.16824,547.95104 652.72974,550.78984 C 652.08184,554.11594 650.20564,556.74143 648.54264,559.63293 C 653.11554,559.92543 657.13804,557.77483 661.36384,556.71913 C 663.55474,556.26213 664.85843,556.89173 666.07873,557.85013 C 668.27793,559.92133 668.49113,562.62203 667.38653,565.30043 C 665.06753,570.21843 661.93634,572.86643 658.61424,577.49213 C 654.03734,583.87833 649.86044,592.46352 649.71424,598.89042 C 649.74064,600.40742 650.37414,601.44912 651.40774,601.88362 C 653.86484,602.75272 655.98874,600.92112 658.02954,599.68452 C 672.20313,588.96503 683.05043,573.66433 694.80753,560.94073 C 697.89013,558.06743 701.41502,555.10894 705.75232,556.47943 C 707.26532,557.00743 708.45312,558.21773 708.85722,559.85023 C 709.51312,562.93683 707.70792,566.79493 705.77082,569.37583 C 699.89823,578.33483 692.03583,588.52633 691.72913,599.11182 C 691.77793,600.96572 692.35453,601.59522 693.19723,601.86122 C 696.61683,602.84602 700.71052,599.35542 703.77872,596.51262 C 714.09012,587.03593 720.98202,574.98633 728.76912,563.88103 C 730.29002,561.48673 732.61922,559.51313 735.44382,559.19843 C 737.41751,559.07863 739.05421,559.61063 740.33141,560.94073 C 743.73681,565.73493 740.88991,572.89273 738.49981,577.49213 C 728.01592,597.27612 716.93692,617.28562 705.89452,637.47381 C 700.32873,647.19421 697.26863,652.66251 696.93163,660.22851 C 696.61293,661.09351 695.82293,661.52811 694.64303,661.09751 C 688.37663,658.77871 685.88923,654.90631 685.84043,650.25021 C 685.79583,646.13421 689.45903,640.29831 690.83773,637.57521 C 696.25333,626.89642 703.60212,615.61452 708.71502,604.93952 C 707.98822,605.52442 706.66622,606.86862 705.50872,607.81292 C 698.69203,613.37882 692.22663,620.51022 683.07283,619.25532 C 680.08783,618.72732 677.43583,615.68962 676.61553,612.65992 C 675.14343,607.52452 676.08753,600.17582 677.63083,594.92052 L 677.06833,595.47502 C 669.26683,603.78212 660.85404,613.04172 650.32544,618.22172 C 647.09284,619.69382 641.50054,620.74982 638.24954,617.80952 C 632.08064,611.44972 633.57514,600.14532 636.94994,591.86042 C 639.64654,585.05813 643.37684,578.69423 647.43394,572.70193 C 644.44084,573.61563 641.76664,574.04623 638.75514,574.06863 L 637.74394,575.54073 C 628.17784,589.86033 619.13155,605.98132 605.01485,615.88452 C 600.19025,619.27772 593.80405,619.55172 589.80386,616.99722 C 586.42886,614.82052 585.05826,610.87302 584.09166,607.22812 C 577.00486,612.60312 564.68926,622.02702 556.13846,617.83992 C 551.00317,615.09052 548.78977,609.28112 549.02937,603.40052 C 549.22437,594.91262 552.95857,586.14453 556.35576,578.53373 C 555.05217,579.15113 554.35157,579.42113 553.00337,580.02823 C 549.72997,581.49633 546.37757,582.52993 543.04717,583.78483 C 540.59847,590.69513 535.41017,600.40742 532.54507,604.28782 C 528.32337,610.77562 519.91887,618.94462 512.30418,619.18822 C 506.27738,619.60052 500.97758,616.80232 498.10838,611.78682 C 491.28338,600.72612 494.46328,585.61243 497.18628,572.59633 C 502.08628,553.07824 509.88778,534.93094 519.09847,517.87395 C 516.12768,518.25145 513.79458,518.42005 510.82788,518.59685 C 505.52818,518.93395 501.47488,519.43134 495.74058,518.30025 C 496.15698,549.49014 487.95728,581.64253 467.49509,606.24732 C 461.69379,613.21032 452.36299,620.53662 442.1715,618.94062 C 435.7101,617.98212 430.9647,611.40502 430.0511,605.45332 C 425.4922,613.28132 416.787,622.70122 404.20961,615.79112 C 396.75941,611.67102 396.64361,607.98142 396.11581,599.79002 C 396.11581,599.79002 380.37661,623.64942 359.69712,618.04922 C 350.37062,615.44602 342.37412,606.16802 347.31462,591.39553 C 321.61933,611.20602 292.72204,624.09832 267.05344,624.54092 C 231.60955,625.16632 200.35266,610.70442 185.16787,586.53423 C 164.31577,553.34424 177.52277,506.78685 204.22496,477.30466 C 230.90895,447.80836 261.19925,435.56387 280.86354,429.13287 C 335.43363,411.29627 382.25291,422.86657 401.65521,441.78547" transform="translate(-174.90205,-420.26565)" />
    </g>
</svg>