<svg version="1.1" id="disney_logo" xmlns="http://www.w3.org/2000/svg" viewBox="-2 -2 126 54">
    <style>
        @import url(style.css);
    </style>
    <linearGradient id="grad" x1="0%" y1="0%" x2="100%" y2="0%">
        <stop offset="0%" stop-color="#113CCF" stop-opacity="1" />
        <stop offset="73%" stop-color="#BFF5FD" stop-opacity="1" />
        <stop offset="75%" stop-color="#BFF5FD" stop-opacity="1" />
        <stop offset="100%" stop-color="#113CCF" stop-opacity="1" />
    </linearGradient>
    <title>Disney Logo</title>
    <g>
        <path d="M106.2,22.11c-2.08,0.48-7.56,0.75-7.56,0.75l-0.67,2.17c0,0,2.72-0.23,4.71-0.04c0,0,0.64-0.05,0.71,0.71 c0.04,0.78-0.05,1.6-0.05,1.6s-0.05,0.48-0.71,0.6c-0.76,0.12-5.91,0.35-5.91,0.35l-0.83,2.8c0,0-0.3,0.64,0.39,0.46 c0.64-0.18,6.04-1.21,6.75-1.07c0.75,0.18,1.6,1.21,1.35,2.13c-0.28,1.12-5.68,4.56-8.95,4.33c0,0-1.72,0.11-3.16-2.22 c-1.38-2.22,0.48-6.39,0.48-6.39s-0.83-1.95-0.21-2.66c0,0,0.35-0.3,1.42-0.39l1.33-2.73c0,0-1.51,0.09-2.4-1.01 c-0.82-1.07-0.89-1.53-0.25-1.81c0.67-0.35,6.92-1.47,11.22-1.33c0,0,1.51-0.18,2.84,2.43c0,0,0.6,1.06-0.46,1.31H106.2 L106.2,22.11z M90.01,32.62c-0.53,1.3-2.01,2.66-3.78,1.83c-1.81-0.85-4.67-6.68-4.67-6.68s-1.07-2.17-1.28-2.09 c0,0-0.23-0.43-0.36,1.95c-0.18,2.36,0.04,6.96-0.94,7.69c-0.89,0.71-1.95,0.41-2.56-0.43c-0.5-0.83-0.71-2.84-0.43-6.34 c0.32-3.5,1.12-7.23,2.13-8.38c1.07-1.17,1.92-0.32,2.24,0c0,0,1.37,1.24,3.67,4.92l0.39,0.67c0,0,2.09,3.5,2.31,3.48 c0,0,0.18,0.18,0.32,0.04c0.21-0.05,0.14-1.19,0.14-1.19s-0.39-3.78-2.34-10.17c0,0-0.28-0.82-0.09-1.6 c0.18-0.71,0.94-0.35,0.94-0.35s2.95,1.42,4.38,6.21c1.42,4.79,0.46,9.14-0.07,10.44H90.01L90.01,32.62z M75.56,20.32 c-0.28,0.5-0.41,1.19-1.63,1.38c0,0-11.89,0.83-12.48,1.67c0,0-0.39,0.5,0.25,0.62c0.67,0.14,3.37,0.5,4.65,0.57 c1.38,0,6.04,0.04,7.74,2.13c0,0,0.98,0.99,0.94,3.25c-0.04,2.31-0.44,3.13-1.35,3.96c-0.94,0.78-9,4.4-14.2-1.14 c0,0-2.38-2.66,0.83-4.69c0,0,2.31-1.42,8.22,0.23c0,0,1.78,0.64,1.71,1.3c-0.11,0.71-1.47,1.42-3.46,1.38 c-1.92-0.05-3.34-0.98-3.05-0.82c0.27,0.09-2.08-1.14-2.81-0.3c-0.71,0.78-0.53,1.24,0.18,1.72c1.77,1.03,8.75,0.66,10.83-1.67 c0,0,0.83-0.94-0.43-1.7c-1.24-0.71-4.86-1.15-6.27-1.21c-1.33-0.07-6.32,0-7.07-1.3c0,0-0.71-0.92,0.07-3.44 c0.82-2.66,6.62-3.69,9.14-3.91c0,0,6.92-0.28,8.22,1.14c0,0,0.18,0.32-0.04,0.8V20.32L75.56,20.32z M55.92,35.92 c-0.83,0.62-2.61,0.35-3.12-0.36c-0.5-0.62-0.67-3.07-0.59-6.92c0.12-3.94,0.18-8.77,1.06-9.55c0.89-0.76,1.42-0.09,1.78,0.43 c0.35,0.53,0.82,1.12,0.89,2.34c0.11,1.24,0.41,7.63,0.41,7.63s0.39,5.82-0.41,6.43H55.92L55.92,35.92z M57.7,15.15 c-2.45,0.83-4.12,0.57-5.54-0.05c-0.62,1.12-0.99,1.46-1.46,1.53c-0.71,0.07-1.33-1.06-1.42-1.42c-0.14-0.27-0.48-0.75-0.07-1.83 c-1.38-1.24-1.49-2.91-1.24-4.03c0.32-1.31,2.66-6.25,9.76-6.83c0,0,3.48-0.25,4.08,1.6h0.11c0,0,3.37,0,3.3,3.02 c0,3.02-3.73,6.78-7.53,8.08V15.15L57.7,15.15z M60.86,6.56c-2.24,0.35-5.68,3.34-7.33,5.81c2.54,0.46,6.98,0.28,8.96-3.73 C62.49,8.63,63.43,6.11,60.86,6.56L60.86,6.56L60.86,6.56z M51.04,8.51c-0.71,1.15-0.75,1.85-0.41,2.31 c0.83-1.24,2.31-3.2,4.53-4.72C53.45,6.27,52.02,6.98,51.04,8.51L51.04,8.51L51.04,8.51z M111.52,35.8 c-1.63,4.01-3.02,8.08-3.82,14.17c0,0-0.18,1.19-1.15,0.8c-0.98-0.35-2.57-1.95-2.93-4.21c-0.36-2.95,0.96-7.92,3.64-13.63 c-0.78-1.24-1.33-3.09-0.89-5.68c0,0,0.71-4.79,5.5-9.13c0,0,0.57-0.48,0.89-0.32c0.39,0.18,0.23,1.7-0.09,2.49 c-0.28,0.75-2.41,4.44-2.41,4.44s-1.33,2.52-0.96,4.49c2.52-3.87,8.25-11.72,11.81-9.23c2.25,1.6,2.25,6.75,0.57,9.73 c-1.33,2.36-5.1,7.24-10.12,6.11L111.52,35.8L111.52,35.8z M118.94,23.74c-1.31,1.42-3.66,4.12-5.5,7.78 c1.95-0.21,3.85-1.3,4.44-1.85c0.94-0.83,3.11-3.09,2.77-6.07C120.65,23.6,120.44,22.04,118.94,23.74L118.94,23.74L118.94,23.74z M39.41,37.89c-6.28,1.92-12.21,1.03-15.44,0.18c-0.09,1.31-0.23,1.86-0.44,2.08c-0.25,0.28-2.31,1.46-3.44-0.21 c-0.5-0.8-0.75-2.24-0.89-3.55c-7.28-3.3-10.65-8.17-10.76-8.34c-0.18-0.18-1.83-1.9-0.18-4.03c1.54-1.92,6.66-3.85,11.24-4.62 c0.18-3.91,0.6-6.92,1.15-8.25c0.66-1.6,1.49-0.18,2.24,0.89c0.6,0.8,0.98,4.23,1.01,6.96c2.98-0.14,4.79,0.07,8.11,0.71 c4.37,0.75,7.28,2.98,7.05,5.5c-0.21,2.48-2.49,3.52-3.37,3.59c-0.89,0.07-2.31-0.59-2.31-0.59c-0.99-0.46-0.09-0.89,1.06-1.38 c1.28-0.62,0.99-1.24,0.99-1.24c-0.46-1.42-6.13-2.36-11.75-2.36c0,3.11,0.12,8.26,0.21,11.26c3.94,0.75,6.89,0.59,6.89,0.59 s14.38-0.41,14.79-9.59c0.44-9.2-14.38-18-25.3-20.77C9.37,1.84,3.19,3.86,2.66,4.13C2.08,4.41,2.61,4.52,2.61,4.52 S3.19,4.6,4.26,4.96c1.06,0.35,0.21,0.89,0.21,0.89C2.61,6.49,0.53,6.11,0.12,5.26c-0.41-0.83,0.27-1.6,1.07-2.72 c0.75-1.15,1.6-1.12,1.6-1.12c13.49-4.7,29.97,3.73,29.97,3.73c15.41,7.78,18.04,16.92,17.75,20.47c-0.25,3.5-1.6,9.41-11.1,12.28 V37.89L39.41,37.89z M9.76,25.2c-1.53,0.71-0.46,1.85-0.46,1.85c2.88,3.07,6.39,5.01,9.76,6.21c0.39-5.33,0.35-7.22,0.35-9.91 C14.2,23.71,11.18,24.56,9.76,25.2L9.76,25.2z" />
    </g>
</svg>