<svg version="1.1" xmlns="http://www.w3.org/2000/svg" xmlns:xlink="http://www.w3.org/1999/xlink" id="JECLAT_2K23" data-name="JECLAT 2K23" viewBox="0 0 1345.5 672.51">
    <defs>
        <style>
            svg {
                opacity: 0;
                visibility: hidden;
                transition: all 0.3s cubic-bezier(0.37, 0, 0.63, 1);
            }

            svg.loaded {
                opacity: 1;
                visibility: visible;
                fill: none;
                stroke: #000;
                stroke-width: 4px;
                stroke-linecap: round;
                stroke-linejoin: round;
            }

            <!-- ============================================= -->
            .white {fill: #fff}
            .yellow {fill: #f4f600}
            .pink {fill: #fa2fb5}
            .purple {fill: #5c026a}

            <!-- ============================================= -->
            @keyframes clipPath {
                100% {
                    clip-path: inset(-10% -10% -10% -10%);
                }
            }

            <!-- ============================================= -->
            svg.loaded g#JECLAT g#J polygon:nth-child(1) {
                clip-path: inset(0 0 0 100%);
                animation: clipPath 0.8s cubic-bezier(0.37, 0, 0.63, 1) forwards;
            }

            svg.loaded g#JECLAT g#J path:nth-child(2) {
                clip-path: inset(0 0 100% 0);
                animation: clipPath 0.8s cubic-bezier(0.37, 0, 0.63, 1) forwards 0.6s;
            }

            svg.loaded g#JECLAT g#J path:nth-child(3) {
                clip-path: inset(0 0 100% 0);
                animation: clipPath 0.8s cubic-bezier(0.37, 0, 0.63, 1) forwards 0.8s;
            }

            svg.loaded g#JECLAT g#J path:nth-child(4) {
                clip-path: inset(0 0 100% 0);
                animation: clipPath 0.8s cubic-bezier(0.37, 0, 0.63, 1) forwards 0.2s;
            }

            <!-- ============================================= -->
            svg.loaded g#JECLAT g#E path:nth-child(1) {
                clip-path: inset(0 0 100% 0);
                animation: clipPath 0.8s cubic-bezier(0.37, 0, 0.63, 1) forwards 0.5s;
            }

            svg.loaded g#JECLAT g#E polygon:nth-child(2) {
                clip-path: inset(0 100% 0 0);
                animation: clipPath 0.8s cubic-bezier(0.37, 0, 0.63, 1) forwards 0.8s;
            }

            svg.loaded g#JECLAT g#E path:nth-child(3) {
                clip-path: inset(0 0 100% 0);
                animation: clipPath 0.8s cubic-bezier(0.37, 0, 0.63, 1) forwards 0.2s;
            }

            svg.loaded g#JECLAT g#E path:nth-child(4) {
                clip-path: inset(0 0 100% 0);
                animation: clipPath 0.8s cubic-bezier(0.37, 0, 0.63, 1) forwards 0.6s;
            }
            svg.loaded g#JECLAT g#E path:nth-child(5) {
                clip-path: inset(0 100% 0 0);
                animation: clipPath 0.8s cubic-bezier(0.37, 0, 0.63, 1) forwards;
            }

            svg.loaded g#JECLAT g#E path:nth-child(6) {
                clip-path: inset(0 0 100% 0);
                animation: clipPath 0.8s cubic-bezier(0.37, 0, 0.63, 1) forwards 0.2s;
            }

            svg.loaded g#JECLAT g#E polygon:nth-child(7) {
                clip-path: inset(0 100% 0 0);
                animation: clipPath 0.8s cubic-bezier(0.37, 0, 0.63, 1) forwards 0.4s;
            }

            <!-- ============================================= -->
            svg.loaded g#JECLAT g#C polygon:nth-child(1) {
                clip-path: inset(0 0 100% 0);
                animation: clipPath 0.3s cubic-bezier(0.37, 0, 0.63, 1) forwards 0.5s;
            }

            svg.loaded g#JECLAT g#C path:nth-child(2) {
                clip-path: inset(100% 0 0 0);
                animation: clipPath 0.8s cubic-bezier(0.37, 0, 0.63, 1) forwards 0.6s;
            }

            svg.loaded g#JECLAT g#C path:nth-child(3) {
                clip-path: inset(100% 0 0 0);
                animation: clipPath 0.8s cubic-bezier(0.37, 0, 0.63, 1) forwards 0.5s;
            }

            svg.loaded g#JECLAT g#C path:nth-child(4) {
                clip-path: inset(100% 0 0 0);
                animation: clipPath 0.8s cubic-bezier(0.37, 0, 0.63, 1) forwards;
            }
            svg.loaded g#JECLAT g#C path:nth-child(5) {
                clip-path: inset(100% 0 0 0);
                animation: clipPath 0.8s cubic-bezier(0.37, 0, 0.63, 1) forwards 0.4s;
            }

            <!-- ============================================= -->
            svg.loaded g#JECLAT g#L polygon:nth-child(1) {
                clip-path: inset(100% 0 0 0);
                animation: clipPath 0.6s cubic-bezier(0.37, 0, 0.63, 1) forwards;
            }

            svg.loaded g#JECLAT g#L path:nth-child(2) {
                clip-path: inset(100% 0 0 0);
                animation: clipPath 0.8s cubic-bezier(0.37, 0, 0.63, 1) forwards 0.6s;
            }

            svg.loaded g#JECLAT g#L polygon:nth-child(3) {
                clip-path: inset(100% 0 0 0);
                animation: clipPath 0.8s cubic-bezier(0.37, 0, 0.63, 1) forwards 0.5s;
            }

            svg.loaded g#JECLAT g#L path:nth-child(4) {
                clip-path: inset(100% 0 0 0);
                animation: clipPath 0.8s cubic-bezier(0.37, 0, 0.63, 1) forwards;
            }

            <!-- ============================================= -->
            svg.loaded g#JECLAT g#A path:nth-child(1) {
                clip-path: inset(0 0 100% 0);
                animation: clipPath 0.8s cubic-bezier(0.37, 0, 0.63, 1) forwards 1.4s;
            }

            svg.loaded g#JECLAT g#A path:nth-child(2) {
                clip-path: inset(100% 0 0 0);
                animation: clipPath 0.8s cubic-bezier(0.37, 0, 0.63, 1) forwards 1s;
            }

            svg.loaded g#JECLAT g#A path:nth-child(3) {
                clip-path: inset(0 100% 0 0);
                animation: clipPath 0.6s cubic-bezier(0.37, 0, 0.63, 1) forwards;
            }

            svg.loaded g#JECLAT g#A path:nth-child(4) {
                clip-path: inset(100% 0 0 0);
                animation: clipPath 0.8s cubic-bezier(0.37, 0, 0.63, 1) forwards 0.5s;
            }

            svg.loaded g#JECLAT g#A path:nth-child(5) {
                clip-path: inset(0 0 100% 0);
                animation: clipPath 0.8s cubic-bezier(0.37, 0, 0.63, 1) forwards 0.4s;
            }

            <!-- ============================================= -->
            svg.loaded g#JECLAT g#T path:nth-child(1) {
                clip-path: inset(100% 0 0 0);
                animation: clipPath 1s cubic-bezier(0.37, 0, 0.63, 1) forwards 0.6s;
            }

            svg.loaded g#JECLAT g#T polygon:nth-child(2) {
                clip-path: inset(0 0 100% 0);
                animation: clipPath 0.8s cubic-bezier(0.37, 0, 0.63, 1) forwards 0.6s;
            }

            svg.loaded g#JECLAT g#T polygon:nth-child(3) {
                clip-path: inset(100% 0 0 0);
                animation: clipPath 0.6s cubic-bezier(0.37, 0, 0.63, 1) forwards;
            }

            svg.loaded g#JECLAT g#T polygon:nth-child(4) {
                clip-path: inset(100% 0 0 0);
                animation: clipPath 0.8s cubic-bezier(0.37, 0, 0.63, 1) forwards;
            }
            svg.loaded g#JECLAT g#T path:nth-child(5) {
                clip-path: inset(0 0 100% 0);
                animation: clipPath 0.8s cubic-bezier(0.37, 0, 0.63, 1) forwards 0.4s;
            }

            <!-- ============================================= -->
            svg.loaded g#_2023 g#_2-1 polygon:nth-child(1) {
                clip-path: inset(0 0 100% 0);
                animation: clipPath 0.6s cubic-bezier(0.37, 0, 0.63, 1) forwards 1.4s;
            }

            svg.loaded g#_2023 g#_2-1 polygon:nth-child(2) {
                clip-path: inset(0 0 100% 0);
                animation: clipPath 0.8s cubic-bezier(0.37, 0, 0.63, 1) forwards 1.4s;
            }

            svg.loaded g#_2023 g#_2-1 polygon:nth-child(3) {
                clip-path: inset(0 0 100% 0);
                animation: clipPath 0.8s cubic-bezier(0.37, 0, 0.63, 1) forwards 1s;
            }

            svg.loaded g#_2023 g#_2-1 polygon:nth-child(4) {
                clip-path: inset(0 0 100% 0);
                animation: clipPath 0.6s cubic-bezier(0.37, 0, 0.63, 1) forwards 0.8s;
            }

            svg.loaded g#_2023 g#_2-1 polygon:nth-child(5) {
                clip-path: inset(100% 0 0 0);
                animation: clipPath 0.6s cubic-bezier(0.37, 0, 0.63, 1) forwards;
            }

            svg.loaded g#_2023 g#_2-1 polygon:nth-child(6) {
                clip-path: inset(100% 0 0 0);
                animation: clipPath 0.6s cubic-bezier(0.37, 0, 0.63, 1) forwards;
            }

            svg.loaded g#_2023 g#_2-1 polygon:nth-child(7) {
                clip-path: inset(100% 0 0 0);
                animation: clipPath 0.6s cubic-bezier(0.37, 0, 0.63, 1) forwards 0.4s;
            }

            svg.loaded g#_2023 g#_2-1 polygon:nth-child(8) {
                clip-path: inset(0 0 100% 0);
                animation: clipPath 0.8s cubic-bezier(0.37, 0, 0.63, 1) forwards 0.6s;
            }

            <!-- ============================================= -->
            svg.loaded g#_2023 g#_0 polygon:nth-child(1) {
                clip-path: inset(100% 0 0 0);
                animation: clipPath 0.6s cubic-bezier(0.37, 0, 0.63, 1) forwards 1.2s;
            }

            svg.loaded g#_2023 g#_0 polygon:nth-child(2) {
                clip-path: inset(100% 0 0 0);
                animation: clipPath 0.8s cubic-bezier(0.37, 0, 0.63, 1) forwards 1.2s;
            }

            svg.loaded g#_2023 g#_0 polygon:nth-child(3) {
                clip-path: inset(0 100% 0 0);
                animation: clipPath 0.4s cubic-bezier(0.37, 0, 0.63, 1) forwards;
            }

            svg.loaded g#_2023 g#_0 polygon:nth-child(4) {
                clip-path: inset(0 0 100% 0);
                animation: clipPath 0.8s cubic-bezier(0.37, 0, 0.63, 1) forwards 0.6s;
            }

            svg.loaded g#_2023 g#_0 polygon:nth-child(5) {
                clip-path: inset(0 100% 0 0);
                animation: clipPath 0.8s cubic-bezier(0.37, 0, 0.63, 1) forwards 0.2s;
            }

            svg.loaded g#_2023 g#_0 path:nth-child(6) {
                clip-path: inset(0 0 100% 0);
                animation: clipPath 1s cubic-bezier(0.37, 0, 0.63, 1) forwards 0.6s;
            }

            <!-- ============================================= -->
            svg.loaded g#_2023 g#_2-2 polygon:nth-child(1) {
                clip-path: inset(0 0 100% 0);
                animation: clipPath 0.6s cubic-bezier(0.37, 0, 0.63, 1) forwards 1.4s;
            }

            svg.loaded g#_2023 g#_2-2 polygon:nth-child(2) {
                clip-path: inset(0 0 100% 0);
                animation: clipPath 0.8s cubic-bezier(0.37, 0, 0.63, 1) forwards 1.4s;
            }

            svg.loaded g#_2023 g#_2-2 polygon:nth-child(3) {
                clip-path: inset(0 0 100% 0);
                animation: clipPath 0.8s cubic-bezier(0.37, 0, 0.63, 1) forwards 1s;
            }

            svg.loaded g#_2023 g#_2-2 polygon:nth-child(4) {
                clip-path: inset(0 0 100% 0);
                animation: clipPath 0.6s cubic-bezier(0.37, 0, 0.63, 1) forwards 0.8s;
            }

            svg.loaded g#_2023 g#_2-2 polygon:nth-child(5) {
                clip-path: inset(100% 0 0 0);
                animation: clipPath 0.6s cubic-bezier(0.37, 0, 0.63, 1) forwards;
            }

            svg.loaded g#_2023 g#_2-2 polygon:nth-child(6) {
                clip-path: inset(100% 0 0 0);
                animation: clipPath 0.6s cubic-bezier(0.37, 0, 0.63, 1) forwards;
            }

            svg.loaded g#_2023 g#_2-2 polygon:nth-child(7) {
                clip-path: inset(100% 0 0 0);
                animation: clipPath 0.6s cubic-bezier(0.37, 0, 0.63, 1) forwards 0.4s;
            }

            svg.loaded g#_2023 g#_2-2 polygon:nth-child(8) {
                clip-path: inset(0 0 100% 0);
                animation: clipPath 0.8s cubic-bezier(0.37, 0, 0.63, 1) forwards 0.6s;
            }

            <!-- ============================================= -->
            svg.loaded g#_2023 g#_3 polygon:nth-child(1) {
                clip-path: inset(100% 0 0 0);
                animation: clipPath 0.8s cubic-bezier(0.37, 0, 0.63, 1) forwards 2.2s;
            }

            svg.loaded g#_2023 g#_3 polygon:nth-child(2) {
                clip-path: inset(100% 0 0 0);
                animation: clipPath 0.8s cubic-bezier(0.37, 0, 0.63, 1) forwards 1.9s;
            }

            svg.loaded g#_2023 g#_3 polygon:nth-child(3) {
                clip-path: inset(100% 0 0 0);
                animation: clipPath 0.6s cubic-bezier(0.37, 0, 0.63, 1) forwards 1.8s;
            }

            svg.loaded g#_2023 g#_3 polygon:nth-child(4) {
                clip-path: inset(0 100% 0 0);
                animation: clipPath 0.4s cubic-bezier(0.37, 0, 0.63, 1) forwards 1.6s;
            }

            svg.loaded g#_2023 g#_3 polygon:nth-child(5) {
                clip-path: inset(0 0 100% 0);
                animation: clipPath 0.6s cubic-bezier(0.37, 0, 0.63, 1) forwards 1.4s;
            }

            svg.loaded g#_2023 g#_3 polygon:nth-child(6) {
                clip-path: inset(0 0 100% 0);
                animation: clipPath 0.8s cubic-bezier(0.37, 0, 0.63, 1) forwards 1.4s;
            }

            svg.loaded g#_2023 g#_3 polygon:nth-child(7) {
                clip-path: inset(0 100% 0 0);
                animation: clipPath 0.4s cubic-bezier(0.37, 0, 0.63, 1) forwards 1s;
            }

            svg.loaded g#_2023 g#_3 polygon:nth-child(8) {
                clip-path: inset(100% 0 0 0);
                animation: clipPath 1s cubic-bezier(0.37, 0, 0.63, 1) forwards;
            }

            svg.loaded g#_2023 g#_3 polygon:nth-child(9) {
                clip-path: inset(0 0 100% 0);
                animation: clipPath 1s cubic-bezier(0.37, 0, 0.63, 1) forwards 1.2s;
            }

            svg.loaded g#_2023 g#_3 polygon:nth-child(10) {
                clip-path: inset(0 0 100% 0);
                animation: clipPath 0.8s cubic-bezier(0.37, 0, 0.63, 1) forwards 0.6s;
            }

            svg.loaded g#_2023 g#_3 polygon:nth-child(11) {
                clip-path: inset(0 100% 0 0);
                animation: clipPath 0.8s cubic-bezier(0.37, 0, 0.63, 1) forwards 0.2s;
            }

            <!-- ============================================= -->
            @media (max-width:768px) {
                svg.loaded {
                    stroke-width: 6px
                }
            }
        </style>
    </defs>
    <script>
        window.addEventListener("load", () => {
            var svg = document.querySelector("svg");
            setTimeout(() => {
                svg.setAttribute("class", "loaded");
            }, 1000);
        });
    </script>
    <g id="Fest_Name" data-name="Fest Name">
        <g id="JECLAT">
            <g id="J">
                <polygon class="yellow" points="73.16 76 28.68 50.15 110.51 2.94 154.99 28.8 73.16 76" />
                <path class="purple" d="M439.28,426.25c.05-.38.08-.76.11-1.15,0-.23.05-.46.07-.69,0-.71.07-1.42.07-2.13a22.47,22.47,0,0,0-1.3-7.43,27,27,0,0,0-4.11-7.6,156.57,156.57,0,0,0-13.44-15.61l-17.54-18.52a137.21,137.21,0,0,1-17.54-23,135.79,135.79,0,0,1-13.51-29.88,128.45,128.45,0,0,1-5.45-38.88l-44.49-25.85a128.5,128.5,0,0,0,5.45,38.88,136.44,136.44,0,0,0,31.06,52.9l17.53,18.52a156.35,156.35,0,0,1,13.44,15.6,27.15,27.15,0,0,1,4.11,7.61,22.46,22.46,0,0,1,1.31,7.43c0,.71,0,1.42-.08,2.13,0,.23,0,.46-.06.69q-.06.69-.15,1.38c-.11.81-.24,1.62-.41,2.43,0,0,0,.05,0,.07s-.05.21-.07.32c-.14.62-.29,1.24-.46,1.86-.05.17-.11.34-.16.51-.15.53-.31,1.07-.49,1.6-.07.2-.15.4-.22.59-.17.48-.34,1-.53,1.44l-.3.73c-.18.44-.37.87-.57,1.3-.11.26-.23.52-.35.77-.2.43-.42.86-.63,1.29l-.39.76c-.2.39-.42.79-.64,1.18l-.53.93c-.17.31-.36.61-.55.92s-.52.87-.8,1.31l-.52.8c-.36.55-.73,1.09-1.1,1.63l-.53.76c-.67.95-1.37,1.89-2.09,2.82-.16.21-.33.42-.5.62l-1.19,1.5-.68.81-1.1,1.29-.46.53c-1,1.11-2,2.21-3,3.29l-.3.3c-1.06,1.13-2.14,2.23-3.24,3.32l-.1.09c-.89.88-1.79,1.74-2.69,2.59l-.55.52c-.9.85-1.8,1.68-2.71,2.49l-.51.46c-.86.77-1.73,1.54-2.59,2.29l-.28.24c-.92.8-1.84,1.58-2.75,2.36l-.58.48c-.89.75-1.78,1.49-2.66,2.21l-.37.31-2.43,2-.42.34-2.55,2.05-.54.43L348.93,457,345,460.16q-2.94,2.05-5.89,3.77a65.13,65.13,0,0,1-7.59,3.76h0c-.31.12-.63.23-.95.33a4.21,4.21,0,0,1-.48.12l-.12,0a2.59,2.59,0,0,1-.67,0h0a1.36,1.36,0,0,1-.58-.17l44.49,25.85h0l.12.06.13,0,.16,0,.15,0H374l.34,0h.05l.13,0,.33-.07.15-.05a8.77,8.77,0,0,0,.94-.33h0a64.35,64.35,0,0,0,7.59-3.76q3-1.71,5.89-3.77l3.95-3.19,2.23-1.79.59-.47,2.54-2,.43-.35c.8-.64,1.6-1.3,2.42-2l.38-.31,2.65-2.21.58-.49c.92-.77,1.83-1.55,2.76-2.35l.27-.24c.87-.75,1.73-1.51,2.59-2.28l.52-.47c.9-.81,1.8-1.64,2.7-2.48l.56-.53c.9-.85,1.79-1.7,2.68-2.58l.08-.08,0,0q1.65-1.64,3.25-3.31c.09-.11.19-.21.29-.31q1.53-1.62,3-3.29l.26-.28.2-.25c.37-.42.74-.85,1.1-1.29l.68-.81c.41-.49.8-1,1.19-1.49l.46-.57a.21.21,0,0,0,0-.06c.73-.93,1.42-1.87,2.09-2.82.08-.11.17-.22.25-.34l.28-.42c.38-.54.74-1.08,1.1-1.63.12-.18.25-.36.36-.54a2.26,2.26,0,0,0,.16-.26c.28-.44.55-.87.81-1.31.14-.24.3-.48.44-.72l.11-.19.52-.95.52-.91.13-.26.38-.76c.15-.29.3-.57.44-.86.07-.14.13-.28.19-.43s.24-.51.36-.77.2-.42.29-.64.18-.44.27-.65l.3-.74c.05-.13.11-.27.17-.4.13-.35.24-.69.37-1l.21-.6.06-.17c.16-.48.3-1,.44-1.43.05-.17.11-.34.15-.51s0,0,0-.05c.17-.6.31-1.21.44-1.81,0-.11.06-.21.08-.32h0s0,0,0-.06c.17-.81.3-1.62.41-2.43C439.25,426.4,439.27,426.33,439.28,426.25Z" transform="translate(-293.48 -205.34)" />
                <path class="pink" d="M387.79,426.55,343.3,400.7h0l-.07,0-.07,0-.06,0h-.21l-.09,0-.13.05-.16.08a3.77,3.77,0,0,0-.47.35l-.15.14-.17.16c-.08.07-.17.18-.26.27l-.18.19c-.21.22-.43.47-.68.76h0l-.93,1.09-1,1.13q-2.73,3.57-5.4,7.21l-1.75,2.43q-1.79,2.44-3.54,4.93l-.46.65c-.89,1.26-1.76,2.54-2.63,3.81-.51.75-1,1.48-1.53,2.23-1.55,2.28-3.07,4.57-4.58,6.88-.73,1.09-1.46,2.2-2.17,3.31-.09.14-.17.29-.27.43-1,1.65-2.07,3.31-3.05,5-.65,1.16-1.29,2.33-1.92,3.5-.1.19-.18.38-.28.57-1,1.88-2,3.77-2.88,5.67h0l0,.06q-1.36,2.83-2.62,5.72c-.08.2-.18.4-.27.6-.51,1.18-1,2.36-1.49,3.54-.37.9-.73,1.81-1.08,2.72l-.11.3q-.93,2.43-1.75,4.87l-.15.42c-.18.55-.36,1.11-.53,1.67-.11.33-.22.67-.32,1-.34,1.09-.67,2.19-1,3.28v.05c-.06.2-.11.4-.16.6-.26.95-.5,1.89-.73,2.83-.1.4-.19.8-.28,1.2-.14.59-.28,1.18-.41,1.77,0,.13-.05.26-.07.4-.15.67-.27,1.34-.39,2s-.21,1.08-.3,1.62-.21,1.35-.31,2c-.06.43-.14.88-.2,1.31,0,.08,0,.16,0,.24-.08.61-.14,1.21-.2,1.81s-.12,1.09-.16,1.63-.07,1.19-.11,1.78-.06,1.05-.08,1.56,0,1.18,0,1.77,0,1,0,1.48.06,1.16.1,1.73,0,.94.08,1.4.14,1.13.21,1.7.1.87.17,1.28c.09.58.22,1.14.34,1.7.08.38.14.77.24,1.14.15.62.34,1.2.52,1.79.09.29.17.59.27.88a23.8,23.8,0,0,0,1,2.48,18.24,18.24,0,0,0,7.46,8.19l44.49,25.86a18.28,18.28,0,0,1-7.47-8.2,26.21,26.21,0,0,1-1-2.48c-.1-.28-.17-.59-.26-.88-.19-.59-.38-1.17-.53-1.79-.09-.37-.16-.76-.24-1.14-.11-.56-.24-1.11-.34-1.69-.07-.42-.11-.86-.16-1.29s-.16-1.12-.21-1.7-.06-.93-.09-1.4-.08-1.14-.09-1.73,0-1,0-1.48,0-1.17,0-1.76,0-1,.08-1.56.05-1.19.1-1.79.11-1.08.17-1.63.11-1.2.19-1.81.15-1,.22-1.55.2-1.34.31-2,.2-1.08.3-1.61.25-1.34.39-2,.32-1.44.48-2.17c.1-.4.18-.8.28-1.2.23-.94.48-1.88.73-2.83.06-.2.11-.4.16-.6.31-1.11.64-2.22,1-3.33.1-.33.22-.67.32-1,.22-.7.45-1.39.69-2.09q.83-2.44,1.74-4.87c.39-1,.78-2,1.19-3q.85-2.08,1.77-4.14,1.26-2.88,2.62-5.73l0-.06q1.38-2.85,2.87-5.67,1.08-2,2.2-4.07c1-1.69,2-3.35,3.06-5q1.2-1.87,2.43-3.74,2.26-3.47,4.58-6.88l1.53-2.22q1.55-2.25,3.1-4.47c1.16-1.66,2.35-3.29,3.53-4.93l1.75-2.43q2.69-3.63,5.41-7.21l1-1.13.93-1.09.68-.76.18-.19c.15-.16.3-.3.43-.43l.15-.13a3.11,3.11,0,0,1,.47-.36,1,1,0,0,1,.43-.15h0a.61.61,0,0,1,.37.08h0Z" transform="translate(-293.48 -205.34)" />
                <path class="white" d="M366.64,281.34l81.83-47.2L449.13,467c-7.46,24.84-23.24,48.91-42.19,64.34-5.05,3.77-10.34,7.45-15.71,11l-2.55,1.47-2.14,1a72.29,72.29,0,0,1-12.06,4.66c-12.74,3.51-26.24,1.65-31.58-9.71-5.95-12.6-2.3-33.61,5.41-52.43a176.64,176.64,0,0,1,9.49-19.67c1.74-3,3.58-5.89,5.49-8.74q9.48-14.53,19.9-28.14l1-1.13a16.59,16.59,0,0,1,2.84-3c.75-.43,1.18,0,1.74,1.5,1,2.81,1.88,5.79,2.67,8.82,2.05,7.85,4,15.72,6.08,23.57a2.47,2.47,0,0,1-.63,2c-6.7,8.47-13.7,16.51-21,24-1.8,2-4,5.3-3.14,6.93.5,1,1.95.63,3.23.1a64.35,64.35,0,0,0,7.59-3.76q3-1.71,5.89-3.77l3.95-3.19c17.15-13.71,46.18-36.55,46.11-60.54a22.47,22.47,0,0,0-1.3-7.43,27,27,0,0,0-4.11-7.6,156.57,156.57,0,0,0-13.44-15.61l-17.54-18.52a137.21,137.21,0,0,1-17.54-23,135.79,135.79,0,0,1-13.51-29.88A128.45,128.45,0,0,1,366.64,281.34Z" transform="translate(-293.48 -205.34)" />
            </g>
            <g id="E">
                <path class="purple" d="M565.18,389.31a1.68,1.68,0,0,1,.09-.32v0a1.18,1.18,0,0,1,.11-.19.83.83,0,0,1,.27-.26l-42.88,24.92a.83.83,0,0,0-.27.26l0,0a.67.67,0,0,0-.06.12l0,0v0l0,0,0,.09a.29.29,0,0,0,0,.09s0,.06,0,.09h0a.15.15,0,0,0,0,.07.19.19,0,0,0,0,.08.22.22,0,0,1,0,.08v.16q-.39,35-.84,69.91h0l42.88-24.92q.44-34.92.84-69.91a2.38,2.38,0,0,1,0-.39Z" transform="translate(-293.48 -205.34)" />
                <polygon class="yellow" points="227.95 279.19 270.83 254.28 369.31 311.13 326.43 336.05 227.95 279.19" />
                <path class="purple" d="M565.93,322.44q-.24-4.38-.38-8.71c0-.21,0-.42,0-.63,0-1.09,0-2.17-.07-3.26,0-.53,0-1.07,0-1.61q0-2.43,0-4.83c0-14.54.08-29,.12-43.56,0-.13,0-.24,0-.34h0a1.59,1.59,0,0,1,0-.26h0a.69.69,0,0,1,.07-.19h0a.23.23,0,0,1,.11-.11l-42.88,24.92a.28.28,0,0,0-.1.09v0h0l0,0s0,0,0,.05,0,0,0,0a.13.13,0,0,1,0,.06h0s0,0,0,.07,0,0,0,.08a.34.34,0,0,1,0,.1h0v.12a1.41,1.41,0,0,0,0,.21h0c0,14.53-.08,29-.12,43.55,0,1.61,0,3.22,0,4.84,0,.54,0,1.09,0,1.64,0,1.07,0,2.15.07,3.23a1.85,1.85,0,0,0,0,.23c0,.14,0,.28,0,.41q.14,4.32.38,8.7Z" transform="translate(-293.48 -205.34)" />
                <path class="white" d="M665,432.65c0-.38,0-.75,0-1.13,0-.22,0-.44,0-.66,0-1.17-.09-2.35-.16-3.54a2.45,2.45,0,0,1,0-.27l-.06-.75c-.06-.85-.12-1.7-.21-2.57-.06-.68-.13-1.36-.21-2.05,0-.13,0-.26,0-.4-.06-.69-.14-1.38-.23-2.08,0-.13,0-.25,0-.38s-.07-.43-.1-.64c0-.37-.09-.74-.15-1.11s-.14-.79-.21-1.18c0-.22-.07-.43-.11-.64l-.06-.35c-.14-.73-.29-1.47-.45-2.21a2.21,2.21,0,0,1,0-.25c0-.19-.09-.38-.14-.57-.11-.48-.21-1-.33-1.44l-.24-.91-.21-.78c-.05-.19-.09-.38-.15-.57-.21-.76-.43-1.51-.66-2.26v0s0-.08,0-.12c-.21-.69-.43-1.38-.66-2.06l-.25-.72-.25-.72c-.09-.24-.17-.48-.25-.72-.26-.7-.52-1.4-.79-2.09l0-.05a.78.78,0,0,1,0-.14c-.24-.61-.49-1.23-.75-1.85l-.54-1.29c-.48-1.05-1-2.1-1.45-3.15-.13-.27-.27-.54-.4-.82-.37-.79-.75-1.57-1.14-2.36-.25-.52-.49-1-.75-1.56-.12-.25-.25-.49-.38-.73-.55-1.1-1.12-2.19-1.69-3.29-.24-.45-.46-.92-.71-1.37l-.27-.51c-.27-.51-.55-1-.82-1.51-.52-.95-1-1.9-1.57-2.84l-.93-1.64c-.26-.45-.51-.9-.77-1.34l-.46-.77c-1.14-1.93-2.29-3.85-3.49-5.75-.05-.08-.09-.16-.15-.24-1.23-2-2.51-3.9-3.8-5.83-.16-.23-.31-.47-.46-.7-.54-.79-1.08-1.58-1.63-2.36-.77-1.13-1.56-2.23-2.37-3.32-.09-.13-.19-.25-.29-.38l-.59-.78c-.39-.51-.77-1-1.16-1.52L631.19,352l-.5-.62c-.11-.12-.21-.26-.31-.38-.62-.74-1.24-1.47-1.86-2.18l-.49-.54-.57-.63c-.29-.32-.57-.65-.87-1-.64-.7-1.3-1.38-2-2l0,0h0c-.7-.71-1.4-1.4-2.1-2.08l-.79-.73-.71-.66c-.22-.21-.44-.42-.67-.62-.73-.66-1.46-1.3-2.2-1.92l-.08-.07-.23-.18c-.62-.53-1.25-1.05-1.88-1.54-.32-.26-.65-.49-1-.74l-.65-.5c-.19-.14-.36-.28-.55-.41-.82-.61-1.66-1.2-2.49-1.77l-.14-.09c-.72-.49-1.44-1-2.16-1.42l-.15-.1-.83-.5c-.42-.26-.83-.52-1.24-.76l-.51-.3c-.56-.32-1.12-.64-1.68-.94l-.1-.05q-1-.56-2-1.05l0,0-.28-.13c-.57-.28-1.15-.55-1.72-.81l-.15-.07-.55-.23c-.44-.2-.89-.39-1.33-.57l-.27-.11-.51-.19-1.25-.48-.39-.14-.41-.13c-.43-.15-.85-.29-1.28-.42l-.48-.16-.27-.08-1.46-.4-.46-.13-.12,0c-.69-.17-1.37-.33-2.05-.46l-.08,0-.31-.05c-.58-.11-1.15-.2-1.71-.28l-.28-.05-.36,0c-.56-.07-1.12-.12-1.67-.17l-.38,0h-.15c-.75-.05-1.49-.08-2.22-.08h-.43c-.76,0-1.5,0-2.24.1h-.22l-.1,0c-.59.05-1.17.12-1.75.21s-.91.13-1.35.22l-.71.16-.61.14-1.85.47q-1,.27-2,.51l-.59.14c-.67.15-1.35.29-2,.39l-.69.08-.39,0h-.11a2.41,2.41,0,0,1-.4,0h0a1.25,1.25,0,0,1-.31-.11.75.75,0,0,1-.17-.14h0a.83.83,0,0,1-.13-.18h0a1.33,1.33,0,0,1-.1-.24h0c0-.09-.05-.19-.07-.3h0a3.6,3.6,0,0,1,0-.36v0c0-.1,0-.22,0-.34a.92.92,0,0,0,0-.16v-.2c0-.26,0-.53,0-.86l-42.88,24.92c0,.32,0,.6,0,.86v.11a.28.28,0,0,0,0,.09v.16c0,.05,0,.1,0,.15s0,.13,0,.19V349a.88.88,0,0,0,0,.16s0,.09,0,.13v.05h0v0s0,.06,0,.09,0,0,0,.06,0,0,0,.06v.05h0l0,0v.13l0,0v.05h0l.05.07h0l0,0v0l0,0h0l0,0h0l0,0h0v0h0l0,0h0l0,0h0l0,0h.06l0,0h.08l.05,0h.59l.33,0h.06c.2,0,.43,0,.69-.08.42-.05.84-.13,1.26-.21l.78-.17.59-.14c.66-.16,1.32-.33,2-.51l1.87-.47.6-.14c.68-.15,1.36-.29,2.06-.38s1.16-.16,1.75-.22l.32,0c.74-.06,1.48-.09,2.24-.1h.43c.73,0,1.47,0,2.22.08l.53,0c.55.05,1.11.1,1.67.17l.64.09c.56.08,1.13.17,1.71.28l.39.07c.68.13,1.36.29,2.05.46l.58.15,1.46.4.75.24,1.28.41.8.28,1.25.48.78.3c.44.18.89.37,1.33.57.23.1.47.19.7.3.57.26,1.15.53,1.72.81l.3.14c.68.34,1.36.69,2,1.06s1.19.65,1.78,1l1.75,1.05.83.51c.77.49,1.54,1,2.31,1.52,1.06.72,2.12,1.48,3.17,2.27l.66.5c1,.73,1.91,1.48,2.85,2.27l.23.19c1,.84,2,1.71,3,2.61l.71.66c1,.91,1.94,1.84,2.9,2.81l0,0c1,1,1.9,2,2.83,3l.57.63c.9,1,1.79,2,2.66,3.1.17.2.33.41.5.62.75.93,1.49,1.87,2.23,2.84l.59.78q1.36,1.81,2.66,3.7c.71,1,1.4,2,2.09,3.06,1.29,1.92,2.57,3.86,3.8,5.83.06.08.1.16.15.24,1.2,1.9,2.35,3.82,3.49,5.75l1.23,2.11.93,1.64c.53.94,1,1.89,1.57,2.84.27.5.55,1,.82,1.51s.65,1.25,1,1.88c.57,1.09,1.14,2.19,1.69,3.29.39.76.76,1.53,1.13,2.29s.77,1.57,1.14,2.36c.63,1.32,1.25,2.64,1.85,4,.45,1.05.88,2.09,1.29,3.14l0,.14c.37.95.72,1.9,1.06,2.86l.25.72c.32.92.63,1.85.91,2.78l0,.12c.3,1,.57,1.92.82,2.87l.21.78c.2.78.39,1.57.57,2.35,0,.19.09.38.14.57.2.94.39,1.88.56,2.81,0,.21.08.42.11.64.14.76.26,1.53.36,2.28,0,.22.07.44.1.65.12,1,.23,1.92.32,2.86.18,1.56.31,3.1.42,4.62l.06.75c.1,1.5.16,3,.19,4.46,0,.39,0,.76,0,1.14,0,1.16,0,2.31,0,3.45,0,.39,0,.77,0,1.16-.05,1.47-.13,2.94-.25,4.37s-.31,2.69-.53,4c0,.11,0,.23,0,.34-.21,1.21-.46,2.39-.74,3.54-.08.36-.18.71-.27,1.06-.21.81-.45,1.61-.7,2.39-.14.43-.27.85-.42,1.27-.37,1-.75,2.07-1.18,3.05-.66,1.71-1.36,3.39-2.07,5.05-.24.53-.48,1-.71,1.57-.48,1-.95,2.08-1.45,3.1-.62,1.28-1.26,2.53-1.92,3.77-.31.6-.61,1.2-.93,1.78-1,1.8-2,3.57-3.07,5.29l-1.27,1.59a1,1,0,0,1-.28.27l42.88-24.92a.88.88,0,0,0,.28-.27l1.27-1.59c1.07-1.72,2.08-3.48,3.07-5.28.32-.59.62-1.19.93-1.78.66-1.25,1.3-2.5,1.92-3.78l.39-.76c.36-.76.7-1.56,1-2.34.24-.52.48-1,.71-1.57.72-1.66,1.42-3.34,2.08-5.05.34-.76.65-1.55.95-2.35.08-.22.15-.47.23-.7.15-.41.28-.84.42-1.27s.26-.73.37-1.12.22-.85.33-1.27.19-.7.27-1.06c.05-.2.11-.39.16-.6.21-.93.4-1.87.57-2.83,0,0,0-.08,0-.11s0-.23.05-.34c.13-.76.25-1.53.35-2.32.07-.55.13-1.1.18-1.66,0-.2,0-.41,0-.62.08-1,.14-2.07.19-3.12,0-.21,0-.42,0-.63l0-1.16c0-.57,0-1.14,0-1.72S665,433.23,665,432.65Z" transform="translate(-293.48 -205.34)" />
                <path class="yellow" d="M605.32,301.86l42.88-24.92c0-.06-.07-.11-.1-.16l-.09-.13-.07-.09-.06-.07-.06-.07-.07-.08-.07-.07,0,0h0l0,0-.08-.08-.09-.07-.09-.08-.1-.07-.1-.07a.41.41,0,0,0-.11-.07l-.11-.08-.07,0L538.71,213.33,531,208.86l-42.88,24.91,7.74,4.48L604,300.57a3.21,3.21,0,0,1,.77.57h0A3.61,3.61,0,0,1,605.32,301.86Z" transform="translate(-293.48 -205.34)" />
                <path class="pink" d="M630.83,345.42c-.46.38-.67.11-.85,0l-54.84-31.66-51.4-29.68c-.89-.51-1.1-.35-1.1.67l-.12,43.55c0,6.26.17,12.6.53,19.05,0,1.75.06,2.53.56,2.81a3.36,3.36,0,0,0,1.91,0c3.15-.43,6-1.61,9.13-2,8.63-1.33,18.59,1.12,28.72,7q2.45,1.41,4.89,3.08c9.27,6.24,18.14,15.27,25.53,26A228.58,228.58,0,0,1,614.66,421a84.53,84.53,0,0,1,6.79,25.57,101.84,101.84,0,0,1,.39,19.95A51.28,51.28,0,0,1,618,482.18a122.92,122.92,0,0,1-10.15,20.56l-1.27,1.59c-.25.34-.51.42-.82.24a2.74,2.74,0,0,1-.86-1c-2.81-4.3-5.43-8.65-8-13.12-5.5-9.52-10.93-19.05-16.43-28.57-.39-.69-.39-1.42,0-1.66,3.15-5.67,6.56-11,9.25-17.18a77.08,77.08,0,0,0,6.28-21.58,34.44,34.44,0,0,0-.45-13.31c-.71-2.82-1.49-4.17-3.69-5.44-9.94-5.74-19.63-10.31-28.4-9.1a46.78,46.78,0,0,0-14.8,5.14c-8.8,4.5-17.19,9.79-25.75,14.63a1.25,1.25,0,0,0-.56,1.22q-.39,35-.84,69.91l98.48,56.86-24.75,13.52a1.3,1.3,0,0,1-1.18-.16l-76-43.9-1.18-1.72-1.7-2.66-25.49-39.76-1.5-232.95,7.74,4.48L604,300.57a3.47,3.47,0,0,1,1.34,1.29Z" transform="translate(-293.48 -205.34)" />
                <polygon class="white" points="311.84 96.51 354.72 71.59 380.23 115.15 337.35 140.07 311.84 96.51" />
            </g>
            <g id="C">
                <polygon class="yellow" points="631.67 225.45 591.14 201.9 596.5 202.05 637.02 225.6 631.67 225.45" />
                <path class="yellow" d="M923.53,435.26q.86-2.22,1.62-4.47l-40.53-23.55c-.57,1.68-1.2,3.36-1.85,5-.29.74-.6,1.48-.91,2.22-.43,1-.85,2.07-1.3,3.1-.32.72-.66,1.44-1,2.16-.47,1-1,2-1.45,3-.35.73-.72,1.44-1.09,2.16-.51,1-1,2-1.56,2.94-.39.73-.8,1.45-1.21,2.18-.53.94-1.09,1.88-1.64,2.81-.46.75-.91,1.5-1.38,2.24s-1.11,1.75-1.68,2.62-1.07,1.61-1.62,2.41-1.1,1.55-1.65,2.33-1.35,1.85-2,2.76c-.92,1.22-1.85,2.43-2.81,3.6s-1.81,2.11-2.73,3.15c-.53.6-1.07,1.2-1.61,1.79s-1.27,1.36-1.91,2-1.09,1.14-1.65,1.7c-.82.82-1.64,1.64-2.47,2.43l-.67.64c-1.1,1-2.22,2-3.34,3l-.8.68c-.93.79-1.85,1.56-2.79,2.31l-.87.69c-1.15.91-2.31,1.78-3.48,2.63l-.59.41c-1,.71-2,1.4-3,2.07l-1,.63c-1.2.77-2.4,1.52-3.62,2.22-.62.37-1.23.74-1.85,1.09-1,.59-2,1.13-3,1.66l-.67.35c-1,.5-2,1-3,1.42L822,480c-.74.33-1.48.63-2.22.93s-1.3.5-1.94.73l-1.54.54c-.64.21-1.29.4-1.93.59l-1.6.45-1.1.27-2,.42-1.11.2c-.84.14-1.67.26-2.5.35l-.25,0c-1,.1-2.06.17-3.08.2-.7,0-1.39,0-2.08-.05-.51,0-1-.08-1.5-.13l-.2,0c-.57-.06-1.13-.15-1.69-.25l-.47-.09c-.39-.08-.78-.16-1.16-.26a5.47,5.47,0,0,1-.58-.15c-.35-.09-.69-.19-1-.3l-.55-.17-1.07-.39-.46-.18c-.5-.21-1-.42-1.48-.66l-.08,0c-.49-.25-1-.51-1.46-.79l40.52,23.56.29.16c.39.22.78.42,1.18.62l.08,0c.43.21.88.41,1.32.6l.15.06.46.18c.36.13.71.27,1.07.39l.56.18.48.15.56.15.57.15,1.17.25.47.09.12,0c.52.09,1,.16,1.57.22l.2,0q.66.07,1.35.12h.15c.68,0,1.38.06,2.08.05l.86,0c.73,0,1.47-.09,2.21-.17a2.3,2.3,0,0,1,.26,0c.61-.07,1.22-.14,1.83-.24.22,0,.44-.08.66-.12l1.12-.2,1.94-.42,1.11-.27c.2-.05.39-.08.58-.14s.68-.21,1-.31c.65-.19,1.29-.38,1.94-.59l1.53-.54c.65-.23,1.3-.47,1.94-.73l.72-.28c.5-.2,1-.43,1.51-.65l.43-.19c1-.44,2-.92,3-1.42l.68-.35q1.51-.78,3-1.65c.62-.36,1.23-.72,1.85-1.1,1.21-.7,2.42-1.45,3.62-2.22l1-.63c1-.67,2-1.36,3-2.07l.59-.41q1.76-1.26,3.48-2.63l.87-.69c.93-.75,1.86-1.52,2.78-2.31l.8-.68q1.7-1.47,3.35-3l.66-.64c.56-.53,1.11-1.05,1.66-1.59.28-.27.54-.56.82-.84l1.65-1.7c.64-.67,1.28-1.34,1.91-2s1.08-1.19,1.61-1.79c.3-.33.6-.65.89-1,.62-.72,1.23-1.44,1.84-2.17s1.38-1.71,2.06-2.58c.25-.33.49-.68.74-1,.7-.91,1.37-1.83,2.05-2.76.33-.47.68-.91,1-1.38.22-.31.42-.63.64-.95.55-.8,1.08-1.6,1.61-2.41.34-.52.7-1,1-1.55.22-.35.43-.71.65-1.07.47-.74.92-1.49,1.37-2.24.31-.51.63-1,.92-1.51s.48-.87.73-1.3c.41-.72.81-1.45,1.21-2.18.24-.43.49-.86.73-1.3s.55-1.09.83-1.64c.37-.71.73-1.43,1.09-2.16.17-.34.36-.68.52-1,.33-.67.61-1.34.92-2s.67-1.43,1-2.16c.12-.25.24-.51.35-.77.34-.77.64-1.55,1-2.33s.62-1.47.91-2.22C923.37,435.63,923.45,435.45,923.53,435.26Z" transform="translate(-293.48 -205.34)" />
                <path class="purple" d="M877.33,282.34a7.46,7.46,0,0,0-1.67-2.93,3.74,3.74,0,0,0-.69-.53l-40.53-23.55a6.12,6.12,0,0,1,2.37,3.46,55.28,55.28,0,0,1,2,17,250.35,250.35,0,0,1-2.15,30.72h0q-1.26,8.9-2.75,17.82t-3.21,17.9c-.53,2.7-1.07,5.36-1.62,8l-.33,1.56q-.82,3.93-1.7,7.79c-.09.42-.19.82-.28,1.24q-.75,3.27-1.53,6.48c-.16.68-.33,1.36-.49,2q-.91,3.75-1.87,7.41c-.37,1.51-.77,3-1.19,4.55-.1.37-.2.74-.31,1.11-.36,1.27-.73,2.54-1.12,3.82,0,.12-.07.25-.11.37-.43,1.4-.88,2.8-1.35,4.22l-.36,1.08c-.48,1.42-1,2.84-1.49,4.27l-.18.52c-.56,1.57-1.16,3.15-1.77,4.75l-.94,2.43,40.53,23.55c.25-.64.5-1.28.74-1.91.07-.18.13-.35.2-.52q.91-2.4,1.77-4.75l.18-.52c.52-1.43,1-2.85,1.49-4.27l.22-.63c0-.15.09-.3.14-.45.47-1.41.92-2.82,1.35-4.22,0-.12.07-.24.11-.37.39-1.28.76-2.55,1.12-3.81.05-.19.11-.38.16-.56l.15-.56c.41-1.52.82-3,1.18-4.54.64-2.44,1.26-4.92,1.88-7.42.16-.67.33-1.35.49-2,.51-2.14,1-4.29,1.52-6.47.09-.42.19-.83.29-1.25q.72-3.23,1.43-6.49l.27-1.29c.11-.53.22-1.05.32-1.58.56-2.64,1.1-5.3,1.62-8q1.72-9,3.22-17.9t2.75-17.82a252.63,252.63,0,0,0,2.15-30.73A55.27,55.27,0,0,0,877.33,282.34Z" transform="translate(-293.48 -205.34)" />
                <path class="white" d="M857.56,275.58c12-6.93,23.93-11.15,35.1-12.42,9.56-.93,18,1.35,24.7,6.65,6.29,5.24,10.88,12.86,13.49,22.37A121.55,121.55,0,0,1,935,325a226.92,226.92,0,0,1-1.86,29.29c-1.26,9.81-3,19.83-5.3,30l-73.23,43.24a211.17,211.17,0,0,0,8.81-27.11q4.3-16.47,7.82-34.53t6-35.72a252.63,252.63,0,0,0,2.15-30.73,55.27,55.27,0,0,0-2-17c-1.31-3.79-3.48-4.78-6.49-3q-11,6.34-21.8,25.08a250.4,250.4,0,0,0-19.34,43.41,380,380,0,0,0-13.8,51.88,261.52,261.52,0,0,0-5.25,50.55A128.78,128.78,0,0,0,814,480.4c1.95,8.44,5.51,15.42,10.47,20.53a25.75,25.75,0,0,0,18.81,7.29c8.24-.23,17.23-3.08,26.32-8.33.62-.36,1.23-.72,1.85-1.1,10.92-6.31,21.28-15.3,30.54-26.4a136.9,136.9,0,0,0,23.18-41.6l5.35.15a147.63,147.63,0,0,1-12,28.06A183.56,183.56,0,0,1,900,486.3,202.43,202.43,0,0,1,877,510.5a157.27,157.27,0,0,1-25,18.16l-.92.52c-.94.57-1.89,1.13-2.84,1.68-16.36,9.44-32.6,15.29-47.87,17.23-13.53,1.64-25.84-.52-36.16-6.37-9.49-5.52-16.83-14.49-21.52-26.31-4.69-11.59-7.12-25.35-7.15-40.59A190.93,190.93,0,0,1,743,423.48a240.86,240.86,0,0,1,22.55-54.2A266,266,0,0,1,803,318.35c15.63-16.44,32.37-29.9,49.28-39.67l2.51-1.42Z" transform="translate(-293.48 -205.34)" />
                <path class="pink" d="M865.82,271.25l1.1-.52c1.34-.62,2.67-1.21,4-1.75l.37-.14c1.22-.5,2.45-1,3.66-1.41l.79-.28c1.27-.45,2.54-.86,3.81-1.24l.74-.21c.91-.27,1.81-.5,2.71-.73.67-.17,1.35-.33,2-.48s1.48-.32,2.21-.46,1.33-.26,2-.37c1.16-.19,2.31-.37,3.45-.5.9-.08,1.79-.14,2.67-.17h.73c.64,0,1.28,0,1.91,0l.77,0c.83,0,1.65.1,2.45.2h0c.82.09,1.62.22,2.41.37l.62.13c.66.13,1.31.29,2,.46l.39.11c.74.21,1.48.45,2.2.72l.53.2c.6.23,1.18.48,1.76.74l.46.21c.73.35,1.46.73,2.16,1.14l-40.52-23.55-.36-.2c-.59-.34-1.19-.65-1.81-.94l-.46-.21c-.31-.14-.63-.3-.95-.43l-.81-.31-.53-.21c-.67-.24-1.35-.47-2-.68l-.15,0-.39-.1c-.64-.17-1.3-.33-2-.46l-.62-.13-.48-.1c-.64-.11-1.28-.2-1.92-.28h0c-.65-.07-1.31-.13-2-.17l-.49,0-.77,0c-.63,0-1.27,0-1.91,0h-1.09c-.76,0-1.53.09-2.31.16s-1.74.22-2.61.35c-.28,0-.56.11-.83.15-.66.11-1.33.24-2,.37l-2.22.45-2,.49c-.41.11-.83.19-1.24.3s-1,.28-1.46.42l-.75.22c-1.27.38-2.54.79-3.81,1.24l-.78.28c-1.22.44-2.44.9-3.67,1.4l-.36.15-.14,0c-1.28.53-2.57,1.1-3.85,1.7l-1.11.52c-1,.48-2,1-3,1.51l-1.17.6c-1.34.71-2.68,1.44-4,2.22-.94.54-1.88,1.1-2.83,1.68s-1.67.94-2.5,1.42c-1.7,1-3.4,2-5.1,3.07l-.72.45q-2.43,1.52-4.84,3.14l-.89.61q-2.42,1.64-4.8,3.36l-.76.56q-2.49,1.81-5,3.73l-.14.12q-2.46,1.9-4.9,3.92l-.66.54c-1.58,1.31-3.15,2.66-4.71,4l-.86.75c-1.55,1.38-3.1,2.77-4.63,4.2l-.77.72c-1.58,1.49-3.17,3-4.74,4.55l-.06.06-.15.16c-1.88,1.86-3.74,3.75-5.59,5.7-1.56,1.65-3.1,3.35-4.63,5.07l-1.06,1.19c-.32.37-.65.73-1,1.1-.7.82-1.39,1.66-2.09,2.49s-1.34,1.56-2,2.35q-1.5,1.83-3,3.69c-.59.74-1.19,1.46-1.77,2.21-.1.14-.21.27-.31.4q-2,2.63-4,5.33l-.86,1.21c-.9,1.23-1.79,2.45-2.67,3.7l-.74,1.09c-.4.58-.8,1.15-1.19,1.73q-1.53,2.25-3,4.53c-.35.55-.71,1.09-1.07,1.63-.17.28-.35.54-.53.81q-1.63,2.57-3.22,5.18l-.65,1.09c-.66,1.11-1.33,2.21-2,3.32-.55.93-1.08,1.87-1.62,2.8-1,1.85-2,3.7-3,5.56l-.34.66-.63,1.21c-.87,1.67-1.72,3.36-2.56,5.05-.2.41-.41.82-.61,1.24l-.35.7c-.83,1.73-1.64,3.46-2.43,5.21l-.57,1.27c-.38.86-.77,1.71-1.14,2.57s-.68,1.62-1,2.43l-.6,1.44q-1.14,2.76-2.21,5.52l-.18.48c-.16.42-.31.85-.47,1.27q-.93,2.48-1.8,4.95c-.21.6-.42,1.19-.62,1.79s-.34,1-.5,1.43c-.34,1-.65,2-1,3.05-.21.68-.44,1.36-.65,2-.65,2.11-1.27,4.23-1.85,6.34l0,.14c-.52,1.85-1,3.7-1.45,5.55-.09.33-.19.67-.27,1-.53,2.19-1,4.36-1.5,6.53v.05l0,.17c-.41,1.92-.78,3.83-1.13,5.73-.07.39-.15.79-.22,1.19-.33,1.88-.64,3.76-.91,5.63l-.15,1c-.11.76-.22,1.52-.32,2.27s-.14,1.31-.22,2c-.1.83-.2,1.65-.28,2.47-.13,1.23-.24,2.45-.34,3.67-.07.77-.14,1.54-.19,2.31-.1,1.32-.16,2.64-.22,3.95,0,.64-.08,1.28-.1,1.91-.07,1.94-.1,3.86-.1,5.76,0,15.25,2.46,29,7.15,40.6,4.69,11.82,12,20.79,21.53,26.31l40.52,23.55c-9.49-5.52-16.83-14.49-21.52-26.31-4.69-11.59-7.12-25.35-7.15-40.59,0-1.9,0-3.83.1-5.76,0-.64.06-1.28.09-1.92.06-1.31.13-2.62.22-3.95.06-.77.13-1.54.19-2.31.1-1.22.21-2.44.34-3.67.09-.82.19-1.64.28-2.46.17-1.41.35-2.83.55-4.25.05-.34.09-.69.14-1q.42-2.81.92-5.64c.07-.39.14-.78.22-1.17.35-1.91.72-3.82,1.13-5.75l0-.15c.46-2.19,1-4.38,1.51-6.58.08-.34.18-.67.26-1,.48-1.89,1-3.78,1.5-5.69q.87-3.17,1.85-6.34c.21-.68.43-1.36.65-2,.47-1.5,1-3,1.47-4.49.2-.6.41-1.19.62-1.79q.85-2.47,1.79-4.94c.16-.43.31-.86.48-1.28q1.14-3,2.39-6c.19-.48.4-1,.6-1.44.7-1.67,1.43-3.34,2.17-5l.57-1.27c.9-2,1.82-3.95,2.78-5.91.2-.42.41-.83.61-1.24q1.25-2.53,2.56-5.05l.62-1.2q1.65-3.13,3.39-6.22c1.17-2.06,2.38-4.1,3.6-6.13l.65-1.09q1.85-3,3.75-6c.35-.55.71-1.09,1.07-1.64q1.49-2.28,3-4.53l1.18-1.73q1.68-2.42,3.41-4.79l.87-1.21c1.43-1.93,2.87-3.84,4.34-5.73.58-.74,1.18-1.47,1.76-2.21,1-1.23,2-2.47,3-3.69.66-.79,1.33-1.57,2-2.35,1-1.21,2-2.41,3.08-3.59l1-1.19q2.3-2.58,4.64-5.07,2.77-2.91,5.58-5.7l.22-.21c1.57-1.56,3.15-3.07,4.74-4.56l.76-.72c1.54-1.43,3.08-2.82,4.63-4.19l.87-.76q2.34-2.06,4.71-4l.66-.55q2.45-2,4.89-3.92l.15-.11c1.65-1.29,3.31-2.53,5-3.74l.76-.55q2.39-1.74,4.79-3.37l.9-.6q2.42-1.64,4.83-3.15l.72-.45c1.7-1.06,3.4-2.09,5.1-3.07l2.51-1.42,2.82-1.68c1.35-.78,2.7-1.51,4-2.22l1.17-.6C863.79,272.24,864.8,271.74,865.82,271.25Z" transform="translate(-293.48 -205.34)" />
            </g>
            <g id="L">
                <polygon class="white" points="813.35 271.71 853.2 248.56 853 330.5 813.15 353.66 813.35 271.71" />
                <path class="white" d="M1098.49,494.73a16,16,0,0,1-1.83.69l-.29.09a16.7,16.7,0,0,1-1.76.41l-.72.1c-.46.07-.92.12-1.4.15l-.6,0a19.34,19.34,0,0,1-2,0h0c0-.29,0-.58,0-.87,0-.46,0-.93-.06-1.39-.06-1.46-.12-2.91-.21-4.38,0-.3,0-.58,0-.88s-.08-.91-.11-1.36c-.09-1.36-.2-2.72-.32-4.09,0-.43-.07-.86-.11-1.29s-.07-.67-.11-1c-.14-1.45-.31-2.91-.49-4.38-.05-.49-.1-1-.16-1.48,0-.16,0-.34-.07-.5-.28-2.14-.58-4.29-.92-6.45V468c0-.15,0-.31-.08-.47-.32-2-.67-4-1-6.05l-.12-.65c-.09-.48-.2-1-.29-1.45-.3-1.56-.62-3.12-1-4.69-.09-.4-.16-.79-.24-1.19-.21-1-.42-1.89-.64-2.84q-.66-2.79-1.35-5.6l0-.11c-.08-.33-.16-.65-.25-1-.4-1.61-.81-3.23-1.23-4.84-.19-.7-.38-1.41-.56-2.11-.35-1.28-.69-2.56-1-3.85l-.23-.83c-.14-.51-.29-1-.44-1.53-.33-1.2-.67-2.4-1-3.61-.24-.81-.47-1.62-.71-2.43-.36-1.19-.71-2.38-1.07-3.57-.15-.48-.29-1-.43-1.44l-.3-.94c-.43-1.4-.87-2.79-1.32-4.19-.21-.66-.41-1.33-.63-2q-1-3.06-2-6.14l0-.11c-.2-.61-.42-1.22-.63-1.84-1-3.08-2.08-6.16-3.16-9.25-.46-1.33-1-2.67-1.42-4-.84-2.39-1.69-4.79-2.55-7.18l-.18-.51q-1.21-3.31-2.46-6.65c-.43-1.18-.86-2.35-1.3-3.53q-2-5.36-4.08-10.73-1.9-4.94-3.71-9.86l-.78-2.11q-1.65-4.53-3.24-9.06c-.15-.42-.3-.83-.44-1.24q-1.71-4.89-3.34-9.79-2-6.06-3.93-12.11c-.48-1.51-.94-3-1.4-4.53-.3-1-.59-2-.88-3s-.56-1.87-.83-2.8l-.84-3-.78-2.77c-.28-1-.55-2-.82-3l-.73-2.74c-.26-1-.52-2-.77-3s-.46-1.82-.68-2.73-.5-2-.74-3.05-.43-1.8-.63-2.7-.47-2-.69-3.05c-.2-.86-.39-1.73-.58-2.59-.46-2.15-.91-4.28-1.34-6.41-.23-1.2-.43-2.38-.65-3.56-.27-1.53-.54-3.06-.78-4.58-.14-.83-.27-1.66-.4-2.49-.25-1.66-.48-3.3-.7-4.94-.09-.7-.19-1.39-.28-2.09q-.43-3.44-.76-6.83c0-.18,0-.36,0-.54-.19-2.09-.35-4.15-.49-6.21-.05-.71-.08-1.43-.12-2.14-.09-1.55-.16-3.09-.22-4.62,0-.77-.05-1.54-.07-2.3q-.06-2.37-.06-4.71c0-.89,0-1.8,0-2.69h0l-39.84,23.16c0,.43,0,.85,0,1.28s0,.94,0,1.41c0,1.56,0,3.12.06,4.7,0,.37,0,.74,0,1.11s0,.8.06,1.2c0,1.53.13,3.07.21,4.62,0,.49,0,1,.07,1.46l.06.68q.2,3.07.49,6.2c0,.16,0,.32,0,.48a.15.15,0,0,0,0,.07c.21,2.26.47,4.54.75,6.83,0,.19,0,.37.07.56.06.51.15,1,.21,1.52.22,1.64.45,3.29.71,4.94.06.39.1.77.16,1.15s.16.9.23,1.34c.25,1.52.51,3.05.79,4.58.09.53.17,1.05.27,1.57s.25,1.33.38,2c.42,2.13.88,4.27,1.34,6.42l.12.59.45,2c.23,1,.45,2.05.69,3.07s.42,1.79.64,2.69.48,2,.73,3.06l.21.85c.15.62.32,1.25.47,1.87l.78,3c.24.91.48,1.82.73,2.74s.54,2,.82,3c.09.34.18.69.28,1,.16.58.33,1.16.49,1.74.28,1,.56,2,.85,3s.54,1.86.82,2.79.59,2,.89,3c.12.39.23.77.34,1.16l1,3.37q1.9,6.06,3.94,12.12c.1.29.19.59.29.88,1,3,2,5.93,3,8.9l.45,1.27c.84,2.39,1.68,4.78,2.55,7.17l.69,1.86c.25.7.52,1.41.78,2.12q1.82,4.92,3.7,9.85,2.08,5.37,4.09,10.74c.44,1.18.87,2.37,1.31,3.55.88,2.38,1.76,4.75,2.62,7.13s1.73,4.84,2.59,7.26c.46,1.31.93,2.61,1.38,3.91q1.65,4.74,3.23,9.45c.2.59.41,1.18.6,1.76.7,2.05,1.37,4.1,2,6.15l.63,2,1.32,4.2.72,2.37c.36,1.2.72,2.4,1.07,3.59.24.81.48,1.62.71,2.43.35,1.2.69,2.4,1,3.6l.66,2.37c.36,1.28.7,2.56,1,3.85.19.7.38,1.4.56,2.1.43,1.62.84,3.23,1.24,4.85.09.36.19.72.28,1.09.46,1.87.91,3.73,1.35,5.6.31,1.35.59,2.69.87,4,.34,1.56.65,3.13,1,4.68.13.71.27,1.41.4,2.11q.57,3,1,6.07l.09.51c.34,2.16.64,4.3.91,6.44.09.66.16,1.32.24,2,.18,1.47.34,2.93.49,4.39l.21,2.29q.18,2.06.33,4.08l.15,2.24c.08,1.47.15,2.93.2,4.38,0,.75.07,1.52.09,2.26h0c.51,0,1,.06,1.52.06.17,0,.33,0,.5,0l.6,0c.18,0,.37,0,.55,0s.56-.08.85-.12l.72-.1.27,0c.51-.1,1-.23,1.48-.37l.3-.09c.15-.05.31-.09.46-.15a13.5,13.5,0,0,0,1.37-.55,56.45,56.45,0,0,0,8.22-3.94l39.85-23.15A58.13,58.13,0,0,1,1098.49,494.73Z" transform="translate(-293.48 -205.34)" />
                <polygon class="yellow" points="684.84 40.1 724.68 16.95 730.22 20.14 690.37 43.3 684.84 40.1" />
                <path class="pink" d="M983.85,248.64a237.18,237.18,0,0,0,4.59,47.69,437.41,437.41,0,0,0,11.7,45.39q6.95,22.06,15.44,44.17t15.82,43.8c5,14.8,9.22,29.56,12.64,44.17a231,231,0,0,1,6,45.46,17.49,17.49,0,0,0,8.62-1.44,56.59,56.59,0,0,0,10.44-5.3,128.09,128.09,0,0,0,11.13-7.94c3.8-3,7.45-6.14,10.86-9.37s6.56-6.44,9.35-9.6a57.88,57.88,0,0,0,6.4-8.62l-.2,81.95-129-74.47.68-239.09Z" transform="translate(-293.48 -205.34)" />
            </g>
            <g id="A">
                <path class="purple" d="M1347.2,473.73a12.93,12.93,0,0,1,0,1.64c0,.13,0,.25,0,.38s0,.24,0,.36a12.43,12.43,0,0,1-.22,1.29.24.24,0,0,1,0,.08l0,.13q-.09.42-.21.84c-.08.32-.18.63-.28.94l0,.1s0,.07,0,.11c-.08.22-.15.44-.24.66s-.22.55-.33.83-.14.31-.22.47-.27.53-.41.8c-.33.63-.68,1.25-1,1.86-.09.15-.18.29-.26.44l-.31.5-.57.93c-.41.65-.84,1.28-1.27,1.9l0,.05c-.66.9-1.28,1.78-1.88,2.63l-.33.48c-.56.82-1.1,1.62-1.59,2.4a9.43,9.43,0,0,0-.69,1.19v0a10.58,10.58,0,0,0-.5,1.23v0a9.47,9.47,0,0,0-.28,1.14.68.68,0,0,0,0,.14,7.24,7.24,0,0,0-.09,1.12,7.73,7.73,0,0,0,1,4l-42.92-24.94a7.56,7.56,0,0,1-1-4,6.05,6.05,0,0,1,0-.94l0-.18,0-.14c0-.09,0-.18,0-.28l.12-.49.12-.37V471c0-.13.09-.27.14-.4s.1-.25.16-.38l.16-.37,0,0v0l.15-.29a4,4,0,0,1,.2-.35l.21-.36a2.14,2.14,0,0,1,.13-.19l0-.06c.48-.75,1-1.54,1.55-2.34.11-.16.22-.31.33-.48l.29-.42c.5-.72,1-1.45,1.59-2.2.65-.94,1.27-1.91,1.87-2.88.11-.17.21-.34.31-.51.61-1,1.18-2,1.72-3.09.3-.66.56-1.31.79-2a.36.36,0,0,1,0-.11c.21-.63.38-1.26.53-1.88l0-.14a15.31,15.31,0,0,0,.27-1.72l0-.39a11.23,11.23,0,0,0,0-1.63,43.34,43.34,0,0,0-.78-6.83c-.52-2.81-1.22-6.23-2.15-9.76s-1.88-7.13-2.82-10.74-1.77-6.75-2.43-9.48a79.29,79.29,0,0,0-7.51-20.51,40.26,40.26,0,0,0-10.35-12.35l42.93,24.95a40.45,40.45,0,0,1,10.34,12.34,78.93,78.93,0,0,1,7.51,20.51c.67,2.73,1.5,5.88,2.43,9.49s1.88,7.21,2.82,10.73,1.63,7,2.16,9.77A43.09,43.09,0,0,1,1347.2,473.73ZM1375.36,325a5.76,5.76,0,0,0-.2-1.22,4.53,4.53,0,0,0-2-3.41l-42.92-24.94a4.49,4.49,0,0,1,2,3.4,5.85,5.85,0,0,1,.2,1.23,1.23,1.23,0,0,1,0,.2,8.25,8.25,0,0,1,0,1.3l-.06.4-.06.37c0,.22-.09.45-.15.67,0,0,0,.09,0,.14-.07.28-.16.56-.26.84l-.06.16c-.1.27-.21.55-.33.83l-.06.12c-.13.29-.28.59-.44.88-.32.59-.66,1.16-1,1.74s-.53.89-.81,1.33l-.61,1c-.33.51-.68,1-1,1.52-.19.27-.36.54-.55.8-.54.77-1.1,1.53-1.67,2.28-.79,1-1.61,2.12-2.46,3.22-.25.31-.49.63-.74.95l-.22.28c-.12-.16-.26-.31-.38-.47a83.73,83.73,0,0,1-11.36-24.33c-.38-1.32-.75-2.65-1.09-4l-42.92-24.94a85.86,85.86,0,0,0,12.45,28.33,30.73,30.73,0,0,0,9.57,8.79l32.12,18.67-.67.85c-.85,1.06-1.71,2.15-2.62,3.26l-.9,1.14-.44.61c-.95,1.23-1.87,2.48-2.78,3.76-.11.16-.23.31-.35.47s-.08.13-.12.18c-.94,1.35-1.85,2.71-2.74,4.1l-.22.32q-.83,1.29-1.62,2.61c-.58.93-1.15,1.88-1.71,2.83l-.28.5c-.37.65-.73,1.31-1.1,2-.26.48-.54,1-.8,1.44-.09.17-.16.34-.25.5-.35.66-.68,1.32-1,2-.24.49-.51,1-.75,1.48l-.23.5-1,2.07c-.22.5-.46,1-.68,1.5-.14.31-.27.63-.41.95-.29.71-.57,1.41-.84,2.11a.56.56,0,0,0,0,.12c-.43,1.11-.82,2.21-1.2,3.32l-.12.36-.12.37c-.39,1.2-.76,2.4-1.1,3.6a.93.93,0,0,1,0,.13l-.3,1.13c-.09.35-.18.69-.26,1s-.22.91-.32,1.37-.16.65-.23,1c0,0,0,.07,0,.1-.1.48-.19.95-.28,1.43l-.06.29-12.57-7.3-.53-.3c-.19-.11-.39-.2-.58-.3-.48-.27-1-.53-1.46-.77l-.89-.44-1.47-.66-.54-.24-.32-.13c-.9-.37-1.81-.72-2.74-1s-2.07-.68-3.11-1l-.21-.07-.54-.14c-1-.28-2-.53-3-.77l-1-.24c-1.22-.27-2.44-.53-3.67-.74-3.89-.68-7.66-1.38-11.38-2.15l42.93,24.94c3.71.77,7.49,1.47,11.38,2.15q1.83.33,3.66.75l1,.23.14,0,27.34,15.88c.11-.76.24-1.52.38-2.29,0-.26.1-.52.15-.77.1-.51.2-1,.31-1.54.07-.32.15-.65.22-1s.21-.9.32-1.36.18-.69.27-1,.22-.84.34-1.27c.33-1.19.7-2.4,1.1-3.6l.24-.72c.37-1.11.77-2.22,1.19-3.33.29-.74.58-1.48.89-2.22s.72-1.64,1.09-2.45.62-1.39.95-2.08.65-1.32,1-2,.66-1.32,1-2,.7-1.3,1.06-1.94.72-1.32,1.1-2c.64-1.12,1.3-2.24,2-3.34s1.22-2,1.85-2.93c.89-1.38,1.8-2.75,2.73-4.09l.48-.66c.9-1.27,1.83-2.53,2.77-3.76.45-.58.89-1.18,1.35-1.75.9-1.11,1.77-2.19,2.61-3.25l.77-1,1.73-2.2.44-.56.3-.4c.85-1.1,1.68-2.18,2.46-3.22.57-.74,1.13-1.51,1.68-2.28l.12-.17.42-.62c.34-.51.69-1,1-1.53l.22-.32c.14-.22.26-.44.4-.66l.81-1.32c.08-.15.18-.29.26-.44.26-.43.51-.87.75-1.31l.06-.11c.09-.16.17-.33.25-.5l.12-.27.06-.12a.54.54,0,0,0,.05-.11c.08-.18.15-.35.22-.53s0-.12.07-.19,0-.1,0-.16,0-.13.08-.2l.18-.6a.08.08,0,0,1,0,0l0-.13c0-.17.09-.33.12-.5a1.13,1.13,0,0,0,0-.18c0-.12,0-.24.07-.37s0-.18,0-.27a.53.53,0,0,0,0-.12,8.38,8.38,0,0,0,0-1.31C1375.37,325.1,1375.36,325,1375.36,325Z" transform="translate(-293.48 -205.34)" />
                <path class="pink" d="M1317.87,453a11.38,11.38,0,0,0-1.52-.53,2,2,0,0,0-.35-.08,9.12,9.12,0,0,0-1.18-.23,4.6,4.6,0,0,0-.52-.06,10.88,10.88,0,0,0-1.14-.06h-.55c-.4,0-.8.05-1.2.09l-.59.06c-.29,0-.59.12-.88.17s-.72.14-1.09.24c-.56.14-1.12.32-1.69.52l-.4.15c-.47.18-.93.38-1.4.59l-.56.25c-.62.3-1.24.62-1.86,1-.29.16-.58.34-.87.52l-1,.53c-.57.33-1.14.69-1.7,1.07l-.51.35c-.41.28-.82.58-1.23.89l-.51.39c-.51.4-1,.81-1.51,1.25l-.15.13c-.54.48-1.08,1-1.61,1.5l-.35.35c-.73.73-1.45,1.49-2.15,2.3-.4.45-.79.92-1.18,1.4-.64.85-1.26,1.73-1.87,2.61l-.64,1c-.46.7-.9,1.4-1.33,2.1l-.48.78c-.56.95-1.11,1.92-1.62,2.9l-.27.52c-.5,1-1,2-1.45,3-.37.82-.71,1.64-1.06,2.46s-.73,1.76-1.08,2.64c-.18.44-.36.89-.53,1.34-.51,1.36-1,2.72-1.46,4.08l0,0c-.39,1.18-.76,2.35-1.11,3.53-.41,1.39-.85,2.78-1.31,4.17l-.14.47-.49,1.41c-.14.41-.28.82-.43,1.23-.28.78-.56,1.56-.85,2.33l-.36.95-.06.17c-.41,1.05-.83,2.11-1.26,3.16-.19.46-.38.92-.58,1.37s-.34.74-.51,1.12-.28.63-.43.94l-.2.45c-.31.64-.64,1.28-1,1.92-.07.15-.14.3-.22.44l0,.08c-.44.82-.88,1.62-1.35,2.42l-.15.24c-.16.28-.33.55-.5.82-.27.46-.55.92-.83,1.37s-.4.62-.61.93-.59.82-.9,1.22l-.06.06c-.38.49-.77,1-1.16,1.43l0,0-.11.12c-.46.52-.92,1-1.4,1.49-.07.07-.13.15-.2.21l-.22.21-.71.67-.52.46c-.25.22-.51.43-.76.63l-.49.4c-.29.22-.57.42-.86.62l-.42.3q-.64.43-1.29.81-.42.24-.84.45l-.7.43q-.63.36-1.26.66l-.35.15c-.13.06-.26.13-.39.18a3,3,0,0,1-.32.11c-.34.13-.68.25-1,.35l-.33.11-.26.06-.59.12-.41.09-.33,0-.44.05-.3,0h-.94c-.29,0-.57-.06-.85-.1l-.1,0-.21,0c-.16,0-.33-.07-.49-.12a3.4,3.4,0,0,1-.34-.12l-.24-.08-.17-.06a6.67,6.67,0,0,1-.71-.35l-.08,0-42.92-24.95h0a6.36,6.36,0,0,0,1,.45l.25.09a7.22,7.22,0,0,0,.83.23l.21.05a9,9,0,0,0,1.06.12h.28l.85,0,.44,0c.24,0,.49-.07.73-.12l.59-.13.6-.17c.33-.1.67-.21,1-.34s.47-.18.71-.29l.35-.16c.41-.2.83-.41,1.26-.66.23-.13.47-.27.7-.42s.56-.3.84-.46.86-.52,1.29-.81l.42-.3c.28-.2.57-.4.85-.62s.33-.26.49-.39l.77-.64c.17-.14.34-.3.51-.46l.72-.67q.21-.19.42-.42c.47-.47.94-1,1.4-1.49l.13-.15c.4-.46.79-.93,1.17-1.42s.65-.85,1-1.29c.5-.75,1-1.52,1.44-2.29l.5-.82c.53-.91,1-1.82,1.54-2.74.07-.15.14-.3.22-.44.41-.79.8-1.58,1.18-2.37.14-.32.29-.63.43-.95.38-.82.75-1.65,1.09-2.49.45-1.1.89-2.21,1.32-3.32.12-.32.23-.64.35-.95.29-.78.58-1.55.86-2.33l.42-1.23c.22-.63.43-1.26.64-1.89.46-1.39.9-2.78,1.31-4.17.35-1.17.71-2.35,1.11-3.53h0v0q.69-2,1.47-4.08l.15-.43c.12-.3.25-.6.37-.91.35-.88.71-1.76,1.08-2.63.11-.25.2-.5.3-.74.25-.58.51-1.15.77-1.72s.4-.88.62-1.32.55-1.1.83-1.64l.26-.53a1.74,1.74,0,0,0,.1-.19c.42-.79.86-1.57,1.31-2.35l.22-.36c.15-.26.31-.51.47-.77.26-.42.5-.84.77-1.25s.38-.57.56-.85.43-.65.65-1,.28-.44.43-.65c.47-.66,1-1.32,1.43-2q.57-.69,1.14-1.35l0-.05c.7-.8,1.41-1.56,2.14-2.29l.19-.21.16-.14c.53-.52,1.07-1,1.61-1.51l.16-.13c.5-.43,1-.84,1.5-1.24l.51-.39c.41-.31.82-.61,1.24-.9l.5-.35c.57-.37,1.13-.74,1.7-1.06.32-.19.65-.37,1-.54l.87-.52c.62-.36,1.24-.67,1.85-1l.56-.26.74-.33.66-.25.4-.15c.53-.19,1-.36,1.57-.5l.13,0c.36-.1.72-.16,1.09-.23s.51-.13.76-.16l.11,0,.6-.05c.32,0,.65-.09,1-.1H1271l.42.05.52.06.41.05c.27,0,.52.12.78.18l.35.08.12,0a11.74,11.74,0,0,1,1.18.41l.22.1Zm-45-80.43c.28.16.57.31.86.46.72.37,1.46.73,2.21,1.07l.71.32,1,.44.42.16c.63.26,1.26.5,1.9.74l.9.33c.94.32,1.89.63,2.85.91.66-1.82,1.29-3.63,1.9-5.45.06-.2.14-.39.2-.59s.21-.66.32-1c.47-1.44.93-2.88,1.38-4.33.16-.52.33-1,.48-1.56q.85-2.81,1.64-5.6l0-.12c0-.12.07-.25.1-.37q.83-3,1.57-6c.11-.46.23-.92.34-1.39q.76-3.1,1.43-6.2c0-.11.05-.22.08-.33.25-1.21.5-2.42.74-3.62.4-2.06.76-4.12,1.09-6.16.1-.63.2-1.25.29-1.87.23-1.46.44-2.91.64-4.35,0-.37.11-.75.16-1.12s.06-.56.1-.84q.35-2.74.61-5.47l.09-.81q.28-3.09.48-6.14l.09-1.67c.08-1.54.14-3.07.19-4.59,0-.58,0-1.16,0-1.74,0-2,.06-4,0-5.93a21.74,21.74,0,0,0-1.81-10.29,10.51,10.51,0,0,0-3.92-4.16l-5.53-3.21a4.49,4.49,0,0,1-.44-2,12,12,0,0,1,.1-1.45c0-.22.06-.44.1-.66s.06-.39.1-.59c.08-.39.17-.78.28-1.17v0c.13-.45.27-.9.43-1.35l-42.92-25-.15.43c-.1.31-.2.62-.28.92h0c-.09.34-.17.68-.25,1,0,0,0,.1,0,.15,0,.2-.07.4-.1.59s-.07.35-.09.52a.66.66,0,0,0,0,.14c-.06.5-.1,1-.11,1.45a3.43,3.43,0,0,0,1.4,3.13l6.86,4a11.28,11.28,0,0,1,1.64,2.31,21.82,21.82,0,0,1,1.81,10.28q0,2.94,0,5.93c0,.58,0,1.17,0,1.75,0,1.52-.11,3-.19,4.58,0,.56,0,1.12-.09,1.68-.13,2-.28,4.07-.48,6.13,0,.27-.06.55-.08.82-.18,1.81-.39,3.64-.62,5.47-.08.65-.17,1.3-.26,2q-.29,2.17-.63,4.35c-.1.63-.19,1.25-.29,1.88q-.51,3.06-1.09,6.16c-.26,1.31-.54,2.62-.82,3.94q-.67,3.09-1.43,6.21c-.11.46-.23.92-.35,1.39-.49,2-1,4-1.56,6,0,.16-.09.33-.13.49q-.78,2.81-1.64,5.61l-.48,1.56c-.45,1.44-.91,2.89-1.39,4.33-.17.52-.34,1.05-.52,1.57-.61,1.82-1.23,3.64-1.89,5.46-1-.28-1.91-.59-2.86-.92-.3-.1-.59-.22-.89-.33-.64-.23-1.28-.48-1.9-.73l-1.43-.61-.71-.31c-.75-.35-1.49-.7-2.22-1.08q-.57-.29-1.11-.6l42.92,24.94Z" transform="translate(-293.48 -205.34)" />
                <path class="yellow" d="M1355.68,238.85l-42.92-24.94-.07,0a5.38,5.38,0,0,0-.64-.31l-.28-.1-.18-.06a.85.85,0,0,0-.17-.06,3.71,3.71,0,0,0-.64-.15l-.27,0c-.35-.06-.71-.09-1.07-.12h-.9c-.18,0-.36,0-.54,0h-.11c-.39,0-.78.07-1.18.12l-.32,0h0a16.58,16.58,0,0,0-1.75.37l-.15,0-.89.27-.35.11c-.46.16-.93.33-1.4.53l-.06,0c-.36.15-.73.32-1.1.49l-.56.26c-.56.28-1.12.58-1.69.91l-50.59,29.16a7.13,7.13,0,0,0-.67.45l-.19.16-.47.41-.12.11-.08.09-.23.23-.17.18a.76.76,0,0,1-.11.14l-.12.16a.69.69,0,0,0-.11.13c-.1.12-.2.25-.29.38h0l-.24.36c0,.07-.09.15-.14.23l0,.08,0,.05c-.07.12-.14.24-.2.36l-.1.2,0,.08,0,.08-.18.38-.09.22,42.92,25c.1-.23.2-.46.31-.68a.36.36,0,0,0,0-.09c.11-.21.22-.41.34-.61l0-.07c.12-.2.25-.4.39-.59v0c.13-.18.26-.35.4-.52l.13-.15c.09-.11.18-.22.28-.32l.22-.24.2-.19q.24-.22.48-.42l.19-.15a6.44,6.44,0,0,1,.66-.45l50.59-29.16c.57-.33,1.14-.63,1.7-.91.19-.1.37-.17.56-.26.36-.17.73-.35,1.09-.5s1-.39,1.46-.55l.36-.11c.34-.11.69-.22,1-.3a17.24,17.24,0,0,1,1.75-.38l.36,0c.4-.05.8-.09,1.18-.11.22,0,.43,0,.65,0s.51,0,.77,0a12.09,12.09,0,0,1,1.21.11,6.52,6.52,0,0,1,1.08.25l.17.06a6.28,6.28,0,0,1,1,.45h0Z" transform="translate(-293.48 -205.34)" />
                <path class="pink" d="M1278.17,390.91h0c-.52,1.23-1,2.45-1.57,3.67-.07.17-.15.34-.23.51-.91,2.08-1.83,4.17-2.78,6.24l-.57,1.23q-1.2,2.6-2.43,5.18c-.16.32-.3.64-.45,1s-.25.5-.38.75q-1.48,3.07-3,6.15l0,0c-1,2.06-2.11,4.1-3.19,6.14l-.38.74-.45.82c-1.23,2.3-2.47,4.59-3.75,6.87q-2.26,4.07-4.49,8.1l-1.27,2.32c-1.15,2.08-2.28,4.14-3.39,6.2-.4.74-.81,1.47-1.2,2.21q-2.14,4-4.22,7.86-2.46,4.62-4.81,9.17c-1.07,2.07-2.1,4.15-3.11,6.23-.22.46-.45.91-.67,1.37-.5,1.06-1,2.12-1.49,3.18l-.7,1.5q-1.06,2.34-2.09,4.68a.5.5,0,0,1,0,.13c-.67,1.55-1.33,3.12-2,4.68-.21.51-.41,1-.62,1.54-.45,1.11-.89,2.21-1.32,3.32-.2.51-.39,1-.58,1.52q-1.15,3-2.22,6c-.47,1.4-.91,2.78-1.33,4.17-.08.26-.15.52-.23.78-.31,1-.59,2.08-.87,3.11-.1.41-.21.81-.32,1.22-.29,1.17-.57,2.34-.82,3.5,0,.14-.07.28-.1.42q-.45,2.12-.81,4.2c0,.24-.07.48-.11.72-.19,1.15-.37,2.29-.51,3.42,0,.21-.05.41-.07.61-.13,1.06-.24,2.11-.33,3.16l-.09,1.17q-.09,1.35-.15,2.67c0,.36,0,.73,0,1.09,0,1.21,0,2.41,0,3.59-.16,7,1.19,13,4,17.45a16.17,16.17,0,0,0,5.49,5.34l-42.93-25a16.31,16.31,0,0,1-5.49-5.33c-2.76-4.49-4.12-10.5-4-17.46,0-1.17,0-2.37,0-3.58,0-.36,0-.73,0-1.1,0-.88.08-1.77.15-2.66q0-.58.09-1.17c.09-1.05.2-2.1.32-3.16,0-.21,0-.41.07-.61s0-.1,0-.15c.14-1.09.32-2.2.5-3.32,0-.22.06-.44.1-.67.24-1.36.5-2.73.79-4.11l0-.09c0-.14.06-.28.09-.42.25-1.16.53-2.33.83-3.51.1-.4.21-.8.32-1.21s.23-.92.36-1.38.34-1.16.51-1.74c.07-.26.15-.52.22-.77.34-1.11.69-2.22,1.06-3.34.09-.28.19-.55.28-.83.71-2,1.45-4,2.21-6l.27-.73c.1-.27.21-.53.32-.8.43-1.1.87-2.21,1.31-3.31.21-.52.41-1,.62-1.54q1-2.34,2-4.65l.06-.15h0q1-2.35,2.09-4.69l.69-1.49c.5-1.06,1-2.13,1.5-3.19.1-.21.2-.43.31-.65s.24-.48.35-.71c1-2.09,2-4.17,3.12-6.23q2.34-4.54,4.8-9.16l.16-.32c1.33-2.5,2.69-5,4.06-7.56l1.2-2.2,3.39-6.21,1.28-2.32q2.22-4,4.49-8.1c1.27-2.27,2.51-4.56,3.74-6.86l.84-1.57q1.62-3.06,3.18-6.13l0,0q1.56-3.06,3-6.15c.28-.57.55-1.14.82-1.7q1.24-2.6,2.44-5.19c.19-.41.38-.81.56-1.22.95-2.07,1.88-3.16,2.79-5.25.61-1.39.21.21.8-1.19l43.92,21Zm-38.63-28a76.07,76.07,0,0,1-3.5-25c0-.54,0-1.09.06-1.64,0-.18,0-.37.05-.55,0-.37.06-.75.11-1.13,0-.12,0-.24,0-.36.09-.66.21-1.33.35-2,0-.18.07-.35.11-.53.11-.51.23-1,.37-1.52,0-.14.07-.27.1-.41q.23-.78.48-1.56a2,2,0,0,0,.07-.23c0-.16.12-.32.17-.48.15-.41.29-.82.45-1.23l.13-.33c.19-.47.38-.94.58-1.41s.55-1.15.85-1.71l.06-.12c.27-.5.56-1,.85-1.46l.11-.17c.29-.47.6-.92.92-1.36l.26-.35c.26-.35.53-.69.8-1,.1-.11.19-.23.29-.35s.42-.46.64-.69.4-.45.61-.66c.37-.36.74-.71,1.12-1l.26-.22c.31-.26.63-.52,1-.75l.33-.25c.41-.28.82-.55,1.23-.79s.66-.37,1-.52.73-.41,1.09-.58l.32-.15.65-.27a8.9,8.9,0,0,1,.91-.31l.36-.12.41-.08.61-.12.29,0,.64,0h.24a7,7,0,0,1,.8.08l.07,0a5,5,0,0,1,.69.19l.18.06a5.05,5.05,0,0,1,.71.33l-42.93-24.94,0,0-.52-.25-.14-.05-.17-.06-.23-.08-.46-.11h-.1a6.18,6.18,0,0,0-.62-.07h-.68l-.36,0-.29,0h-.14l-.46.1-.41.09-.1,0-.26.09c-.3.09-.61.19-.92.31l-.19.07-.45.21-.33.15q-.52.25-1.08.57c-.34.16-.67.33-1,.52s-.82.51-1.22.8l-.34.24c-.32.24-.64.49-1,.76l-.25.21c-.35.3-.7.62-1,.95l-.1.1-.61.65c-.17.19-.36.37-.53.57a1.47,1.47,0,0,0-.1.13c-.1.11-.19.23-.29.35s-.35.41-.52.63l-.29.39-.25.34-.22.29c-.22.32-.44.65-.65,1l-.06.1-.1.16c-.14.23-.29.46-.42.69s-.29.52-.43.78l-.07.11,0,.06c-.17.32-.33.64-.49,1s-.22.46-.32.69l-.06.15c-.18.41-.35.83-.51,1.24l-.15.36v0c-.16.39-.29.79-.43,1.18-.06.17-.13.34-.18.51h0l-.06.21c-.17.52-.33,1.05-.48,1.57a.14.14,0,0,0,0,.07c0,.11,0,.22-.08.34-.14.5-.27,1-.38,1.51,0,.08,0,.15,0,.23a2.84,2.84,0,0,0-.06.31c-.13.67-.25,1.34-.34,2a2,2,0,0,1-.05.24.49.49,0,0,1,0,.12c0,.37-.08.75-.11,1.12,0,.18,0,.37,0,.56,0,.55-.06,1.1-.06,1.63a76.12,76.12,0,0,0,3.51,25,38.52,38.52,0,0,0,9.25,15.26,37.21,37.21,0,0,0,7.31,5.57l42.92,24.94a37.49,37.49,0,0,1-7.3-5.56A38.76,38.76,0,0,1,1239.54,363Z" transform="translate(-293.48 -205.34)" />
                <path class="white" d="M1415,448.46c1.18.38,1.85,1.64,1.79,3.4a22.07,22.07,0,0,1-.63,4.87c-.41,1.85-2,3.61-4.91,5.27l-69.81,40.31c-2.1,1.26-3.5,1.18-4.29.14a7.73,7.73,0,0,1-1-4,8.89,8.89,0,0,1,1.6-4.87c1.09-1.72,2.36-3.55,3.8-5.51a53.26,53.26,0,0,0,3.9-6.48,16.88,16.88,0,0,0,1.73-7.83,43.09,43.09,0,0,0-.77-6.82c-.53-2.81-1.22-6.24-2.16-9.77s-1.88-7.13-2.82-10.73-1.76-6.76-2.43-9.49a78.93,78.93,0,0,0-7.51-20.51,40.45,40.45,0,0,0-10.34-12.34,48.31,48.31,0,0,0-14.08-6.95,128.27,128.27,0,0,0-18.6-4.23c-4.74,12.41-10.11,24.75-16.07,36.92q-8.52,17.28-15.69,32.74c-4.46,9.55-8.41,19.21-11.8,28.88a77.23,77.23,0,0,0-4.6,25.6c-.15,5.21,1.34,9.36,4.19,11.68,2.72,2.06,6.67,1.86,10.8-.53l.7-.43q.42-.21.84-.45a30.21,30.21,0,0,0,9.13-8.66,69.45,69.45,0,0,0,6.4-12.1,141.17,141.17,0,0,0,4.9-13.89,108.7,108.7,0,0,1,5.26-14.09,68.66,68.66,0,0,1,7.66-12.83,40.28,40.28,0,0,1,10.9-9.63l1-.53c.29-.18.58-.36.87-.52,5.49-3.17,10.81-3.92,14.93-2.09,4.19,2.12,6.47,7.22,6.22,14,.18,7.39-1.59,15.8-5.08,24.13A108.85,108.85,0,0,1,1305.54,514a135.22,135.22,0,0,1-18.92,20.08,138.49,138.49,0,0,1-21.19,15.26,89.9,89.9,0,0,1-17.4,7.88,30.76,30.76,0,0,1-14.8,1.44,15.66,15.66,0,0,1-10.33-7.15c-2.77-4.49-4.12-10.49-4-17.45-.21-10.43,1.78-22,5.8-33.83a271.27,271.27,0,0,1,14.82-34.14c6-11.59,12.54-23.58,19.38-35.86a391.77,391.77,0,0,0,19.23-39.3,102.22,102.22,0,0,1-16-4.29,36.91,36.91,0,0,1-13.42-8.4,38.76,38.76,0,0,1-9.26-15.27,76.07,76.07,0,0,1-3.5-25,34.14,34.14,0,0,1,3.08-13.39,24.33,24.33,0,0,1,9.29-10.94c.33-.19.66-.37,1-.52,3.32-1.93,6.1-2.18,8.11-.92s3.12,4.07,3,7.55a33.15,33.15,0,0,1-1.11,8.18,37.4,37.4,0,0,0-1.11,9.36,66.3,66.3,0,0,0,1.94,17.33,33.74,33.74,0,0,0,5.35,11.43,22.85,22.85,0,0,0,8.1,6.94,55,55,0,0,0,10,4,250.3,250.3,0,0,0,10.21-36.53,198.73,198.73,0,0,0,3.8-40.69,21.76,21.76,0,0,0-1.81-10.29,10.4,10.4,0,0,0-4-4.22c-1.52-.75-2.89-1.38-4.06-1.88s-1.8-1.62-1.8-3.31a16.1,16.1,0,0,1,1-5.24,9.35,9.35,0,0,1,3.68-4.5l50.59-29.16c4.48-2.59,8.58-3.59,12.12-3q5.57.72,7.86,11.25,3.93,16.93,7,27.1a161.46,161.46,0,0,0,5.48,16,31.75,31.75,0,0,0,4.46,8.32,34.23,34.23,0,0,0,3.45,4.13c1,1,1.92,2.13,2.75,3.19a15.45,15.45,0,0,1,2.32,5.64,24,24,0,0,1,1,8.11c-.17,2.42-.4,4.88-.74,7.4s-.73,5.51-1.21,8.6a67.22,67.22,0,0,0-.62,11.69q.27,8.73,1.32,16.92c.74,6.69,2.18,14.7,4.23,24.18l11,48a11.42,11.42,0,0,0,3.67,7,11.16,11.16,0,0,0,5.06,2A41.25,41.25,0,0,1,1415,448.46Zm-41.16-117.58c1.37-2.52,1.85-5.21,1.29-7.13-.44-2.91-2.41-4.37-5.06-3.76a46.37,46.37,0,0,0-9.23,3.91,95.86,95.86,0,0,1-12.12,5.22c-5,1.63-9.59,1.72-13.5.25a30.26,30.26,0,0,1-13.78-10.8A85.82,85.82,0,0,1,1309,290.23a236.17,236.17,0,0,1-4.3,46.94,324.56,324.56,0,0,1-11.11,41.95c3.71.77,7.49,1.47,11.38,2.15a77,77,0,0,1,11.52,3,47,47,0,0,1,20.62,13.95,81.7,81.7,0,0,1,5.41-19.11,113,113,0,0,1,8.16-15.74,126.93,126.93,0,0,1,9.18-13.19q4.65-5.72,8.31-10.6a68.24,68.24,0,0,0,5.68-8.65" transform="translate(-293.48 -205.34)" />
            </g>
            <g id="T">
                <path class="white" d="M1464,303.47l.13-.24c.15-.28.29-.56.46-.82.06-.1.13-.19.19-.28.21-.31.44-.61.67-.89l.22-.27c.31-.34.63-.66,1-1l.18-.16c.3-.26.62-.51.94-.75l.32-.22c.39-.27.79-.54,1.21-.78L1426.44,323c-.42.25-.82.51-1.22.78l-.31.23c-.32.24-.64.49-.94.75l-.18.15c-.34.31-.66.64-1,1l-.22.26c-.24.29-.46.58-.67.89l-.13.18-.06.11a8,8,0,0,0-.46.81c0,.07-.08.13-.11.2l0,.05-.09.2c-.09.2-.17.39-.25.59l-.1.28a9,9,0,0,1-.24.93l-.06.18c-.08.24-.17.46-.26.68,0,.06-.05.13-.08.19s-.19.37-.29.55-.09.17-.15.26a6.09,6.09,0,0,1-.51.71L1462,308a5.67,5.67,0,0,0,.5-.68v0a2.2,2.2,0,0,0,.15-.26,5.42,5.42,0,0,0,.26-.48l0-.07.08-.18c.06-.13.12-.27.17-.41l.09-.27.06-.19.05-.14.15-.58c0-.07,0-.14,0-.21.11-.3.23-.58.35-.86Z" transform="translate(-293.48 -205.34)" />
                <polygon class="white" points="1232.76 100.4 1275.63 75.49 1274.92 324.74 1232.05 349.66 1232.76 100.4" />
                <polygon class="white" points="1300.63 129.1 1343.5 104.19 1343.23 200.09 1300.36 225.01 1300.63 129.1" />
                <polygon class="yellow" points="1123.15 26.91 1166.02 2 1343.5 104.19 1300.63 129.1 1123.15 26.91" />
                <path class="pink" d="M1594.11,334.45l-.28,95.9c-2.38-5.07-4.65-9.91-7.13-14.69q-5-10-11.67-22.87t-14.1-26.7c-5-9.22-9.73-17.89-14.37-26.13s-8.81-15.5-12.44-21.77a133.33,133.33,0,0,0-7.89-12.44l-.7,249.25-79-45.63a161,161,0,0,1,5.27-43.42,158.63,158.63,0,0,1,13.2-32.59,239.58,239.58,0,0,1,17.24-27.16A263.69,263.69,0,0,0,1499.64,379a176,176,0,0,0,13.82-33,172,172,0,0,0,6.68-43.82,48.07,48.07,0,0,0-12.19.58q-8.13,1.29-18.43,3.24T1468,311q-11.28,2.88-21.32,5.87c-7.76,2.58-22.76,3.26-26,12.61a7.91,7.91,0,0,1-1.59,3.5,1.8,1.8,0,0,1-2.27,0,5.12,5.12,0,0,1-1.46-1.33,51.56,51.56,0,0,0-1.35-20.74c-1.57-5.75-3.85-11.95-3.39-16.74s3.53-7.39,5.28-10.83,1.31-50.75.7-51.1Z" transform="translate(-293.48 -205.34)" />
            </g>
        </g>

        <g id="_2023" data-name="2023">
            <g id="_2-1" data-name="2">
                <polygon class="yellow" points="415.47 613.85 379.1 592.72 437.22 559.16 473.58 580.29 415.47 613.85" />
                <polygon class="pink" points="380.44 670.51 344.07 649.38 343.89 584.05 380.25 605.19 380.44 670.51" />
                <polygon class="yellow" points="380.25 605.19 343.89 584.05 401.95 489.61 438.32 510.74 380.25 605.19" />
                <polygon class="purple" points="438.32 510.74 401.95 489.61 401.87 460.26 438.24 481.4 438.32 510.74" />
                <polygon class="pink" points="381.79 534.6 345.42 513.47 345.34 482.94 381.7 504.07 381.79 534.6" />
                <polygon class="yellow" points="381.7 504.07 345.34 482.94 368.37 443.04 404.73 464.17 381.7 504.07" />
                <polygon class="yellow" points="404.73 464.17 368.37 443.04 436.78 403.54 473.14 424.68 404.73 464.17" />
                <polygon class="white" points="473.14 424.68 473.37 505.41 415.42 598.45 415.47 613.85 473.58 580.29 473.69 616.67 380.44 670.51 380.25 605.19 438.32 510.74 438.24 481.4 415.13 494.74 415.19 515.32 381.79 534.6 381.7 504.07 404.73 464.17 473.14 424.68" />
            </g>
            <g id="_0" data-name="0">
                <polygon class="yellow" points="538 598.24 576.13 576.08 607.93 594.44 569.8 616.6 538 598.24" />
                <polygon class="purple" points="538.37 467.08 576.5 444.92 576.13 576.08 538 598.24 538.37 467.08" />
                <polygon class="yellow" points="499.71 433.63 537.85 411.47 565.42 398.25 527.28 420.41 499.71 433.63" />
                <polygon class="white" points="608.84 467.5 646.98 445.34 646.46 627.67 608.32 649.83 608.84 467.5" />
                <polygon class="yellow" points="527.28 420.41 565.42 398.25 646.98 445.34 608.84 467.5 527.28 420.41" />
                <path class="pink" d="M820.76,625.76l81.56,47.08-.52,182.33-27.44,13.3-81.69-47.16L793.19,639ZM863.28,822l.37-131.16-31.81-18.36-.37,131.15L863.28,822" transform="translate(-293.48 -205.34)" />
            </g>
            <g id="_2-2" data-name="2">
                <polygon class="yellow" points="750.32 603.89 713.95 582.75 772.08 549.19 808.44 570.33 750.32 603.89" />
                <polygon class="pink" points="715.29 660.55 678.93 639.42 678.75 574.09 715.11 595.22 715.29 660.55" />
                <polygon class="yellow" points="715.11 595.22 678.75 574.09 736.82 479.65 773.18 500.79 715.11 595.22" />
                <polygon class="purple" points="773.18 500.79 736.82 479.65 736.73 450.31 773.1 471.44 773.18 500.79" />
                <polygon class="pink" points="716.65 524.65 680.28 503.51 680.2 472.97 716.56 494.1 716.65 524.65" />
                <polygon class="yellow" points="716.56 494.1 680.2 472.97 703.23 433.07 739.59 454.21 716.56 494.1" />
                <polygon class="yellow" points="739.59 454.21 703.23 433.07 771.64 393.58 808 414.71 739.59 454.21" />
                <polygon class="white" points="808 414.71 808.23 495.44 750.27 588.49 750.32 603.89 808.44 570.33 808.55 606.71 715.29 660.55 715.11 595.22 773.18 500.79 773.1 471.44 749.98 484.79 750.04 505.37 716.65 524.65 716.56 494.1 739.59 454.21 808 414.71" />
            </g>
            <g id="_3" data-name="3">
                <polygon class="yellow" points="841.07 542.46 879.58 520.08 917.27 541.83 878.75 564.22 841.07 542.46" />
                <polygon class="purple" points="878.75 564.22 917.27 541.83 917.19 569.87 878.67 592.25 878.75 564.22" />
                <polygon class="yellow" points="878.67 592.25 917.19 569.87 950.26 588.97 911.75 611.35 878.67 592.25" />
                <polygon class="yellow" points="895.01 513.48 933.53 491.09 950.51 500.9 912 523.28 895.01 513.48" />
                <polygon class="purple" points="879.04 460.16 917.56 437.77 917.49 464.05 878.97 486.43 879.04 460.16" />
                <polygon class="white" points="950.64 566.32 989.16 543.94 988.94 622.16 950.42 644.55 950.64 566.32" />
                <polygon class="white" points="926.63 552.46 965.14 530.07 989.16 543.94 950.64 566.32 926.63 552.46" />
                <polygon class="yellow" points="841.39 427.68 879.91 405.3 907.45 391.95 868.94 414.33 841.39 427.68" />
                <polygon class="pink" points="947.87 459.91 947.63 543.71 926.63 552.46 950.64 566.32 950.42 644.55 924.79 659.15 840.87 610.7 841.07 542.46 878.75 564.22 878.67 592.25 911.75 611.35 911.88 563.64 894.9 553.84 895.01 513.48 912 523.28 912.12 479.25 879.04 460.16 878.97 486.43 841.29 464.67 841.39 427.68 868.94 414.33 947.87 459.91" />
                <polygon class="white" points="947.87 459.91 986.39 437.53 986.15 521.33 947.63 543.71 947.87 459.91" />
                <polygon class="yellow" points="868.94 414.33 907.45 391.95 986.39 437.53 947.87 459.91 868.94 414.33" />
            </g>
        </g>
    </g>
</svg>