<svg version="1.1" id="geeksforgeeks_logo" xmlns="http://www.w3.org/2000/svg" viewBox="-1.5 -1.5 55 30">
    <style>
        @import url(style.css);
    </style>
    <title>GeeksforGeeks Logo</title>
    <g>
        <path d="M8.3,7.32A12.23,12.23,0,0,1,16.62,3.5h0A10.91,10.91,0,0,1,27.53,14.42v.31A10.91,10.91,0,0,1,16.62,25.65h-.85A10.07,10.07,0,0,1,5.7,15.59H53.54A10.06,10.06,0,0,1,43.48,25.65h-1.4A10.07,10.07,0,0,1,32,15.59V14.27A10.77,10.77,0,0,1,42.78,3.5h0A11.77,11.77,0,0,1,51,7.32" transform="translate(-3.45 -1.25)" />
    </g>
</svg>