<svg version="1.1" id="mcdonalds_logo" xmlns="http://www.w3.org/2000/svg" viewBox="-1.5 -1 126 110">
    <style>
        @import url(style.css);
    </style>
    <title>McDonald's Logo</title>
    <g>
        <path d="M88.29,7.63c10.58,0,19.16,44.62,19.16,99.73h15.43C122.88,48.03,107.31,0,88.25,0 C77.35,0,67.73,14.39,61.37,37C55.02,14.39,45.39,0,34.59,0C15.52,0,0,47.98,0,107.31h15.43c0-55.11,8.49-99.68,19.07-99.68 s19.16,41.22,19.16,92.06H69c0-50.84,8.63-92.06,19.2-92.06H88.29L88.29,7.63z M88.29,7.63L88.29,7.63L88.29,7.63L88.29,7.63z" />
    </g>
</svg>