<svg xmlns="http://www.w3.org/2000/svg" id="SD" data-name="SD" version="1.1" viewBox="0 0 1128.5 263"><defs><style>@import url(style.css);</style></defs><title>SD</title><g id="first"><path id="S" d="M255,326H180.5A23.5,23.5,0,0,0,157,349.5h0A23.5,23.5,0,0,0,180.5,373h44A23.5,23.5,0,0,1,248,396.5v2c0,13-10.52,21.5-23.5,21.5H149" class="red" transform="translate(-144.5 -311.5)"/><path id="O" d="M329.14,324.5h0a45.64,45.64,0,0,1,45.64,45.64v6.22A45.64,45.64,0,0,1,329.14,422h0a45.64,45.64,0,0,1-45.64-45.64v-6.22a45.64,45.64,0,0,1,45.64-45.64Z" class="green" transform="translate(-144.5 -311.5)"/><path id="U" d="M410,314v58.43A45.57,45.57,0,0,0,455.57,418h5.86A45.57,45.57,0,0,0,507,372.43V315" class="red" transform="translate(-144.5 -311.5)"/><path id="R" d="M630,433v-2.73A47.27,47.27,0,0,0,582.73,383H610.5A28.5,28.5,0,0,0,639,354.5h0A28.5,28.5,0,0,0,610.5,326H531" class="blue" transform="translate(-144.5 -311.5)"/><path id="A" d="M744,423H726.5A49.5,49.5,0,0,1,677,373.5h0A49.5,49.5,0,0,1,726.5,324H771V433" class="green" transform="translate(-144.5 -311.5)"/><path id="J" d="M796,424h16.11A51.89,51.89,0,0,0,864,372.11V314" class="red" transform="translate(-144.5 -311.5)"/><path id="E-1" d="M1009,423H952a49,49,0,0,1-49-49h0a49,49,0,0,1,49-49h57m0,49H947" class="blue" transform="translate(-144.5 -311.5)"/><path id="E-2" d="M1141,423h-57a49,49,0,0,1-49-49h0a49,49,0,0,1,49-49h57m0,49h-62" class="green" transform="translate(-144.5 -311.5)"/><path id="T" d="M1154,325h119m-59,108V325" class="red" transform="translate(-144.5 -311.5)"/></g><g id="last"><path id="D" d="M150,464h56.5c26.23,0,49.5,21.27,49.5,47.5h0c0,26.23-23.27,47.5-49.5,47.5H149" class="green" transform="translate(-144.5 -311.5)"/><path id="E-3" d="M399,562H342a49,49,0,0,1-49-49h0a49,49,0,0,1,49-49h57m0,49H337" class="blue" transform="translate(-144.5 -311.5)"/><path id="Y" d="M522,453v40a49,49,0,0,1-49,49h0a49,49,0,0,1-49-49V453m49,119V542" class="red" transform="translate(-144.5 -311.5)"/></g></svg>