<svg version="1.1" id="github_logo" xmlns="http://www.w3.org/2000/svg" viewBox="-5 -5 490 480">
    <style>
        @import url(style.css);
    </style>
    <title>Github Logo</title>
    <g>
        <path class="main" d="M265.49,43.08C133.62,43.08,26.68,150,26.68,281.89c0,105.51,68.42,195,163.31,226.6,11.93,2.21,16.32-5.18,16.32-11.49,0-5.69-.22-24.5-.33-44.46-66.43,14.45-80.45-28.17-80.45-28.17C114.66,396.76,99,389.42,99,389.42c-21.67-14.82,1.64-14.51,1.64-14.51,24,1.68,36.6,24.61,36.6,24.61,21.3,36.5,55.87,26,69.5,19.85,2.14-15.43,8.33-26,15.16-31.94-53-6-108.81-26.51-108.81-118,0-26.08,9.33-47.38,24.61-64.1-2.48-6-10.65-30.31,2.32-63.2,0,0,20.05-6.42,65.68,24.48a226.41,226.41,0,0,1,119.6,0c45.58-30.9,65.61-24.48,65.61-24.48,13,32.89,4.82,57.18,2.34,63.2,15.31,16.72,24.58,38,24.58,64.1,0,91.72-55.87,111.91-109,117.83,8.57,7.41,16.2,21.94,16.2,44.22,0,31.95-.27,57.67-.27,65.53,0,6.36,4.29,13.81,16.4,11.46C436,476.85,504.29,387.36,504.29,281.89,504.29,150,397.37,43.08,265.49,43.08Z" transform="translate(-26.68 -43.08)"/>
        <path class="circle" d="M117.13,386c-.53,1.19-2.4,1.54-4.09.73s-2.71-2.4-2.15-3.59,2.38-1.56,4.11-.75,2.73,2.42,2.13,3.61Zm-2.94-2.18" transform="translate(-26.68 -43.08)"/>
        <path class="circle" d="M126.8,396.75c-1.14,1.05-3.36.56-4.87-1.11s-1.86-3.89-.7-5,3.33-.56,4.89,1.1,1.87,3.9.68,5Zm-2.28-2.45" transform="translate(-26.68 -43.08)"/>
        <path class="circle" d="M136.22,410.5c-1.47,1-3.86.06-5.34-2.06s-1.46-4.67,0-5.69,3.83-.1,5.33,2,1.46,4.71,0,5.75Zm0,0" transform="translate(-26.68 -43.08)"/>
        <path class="circle" d="M149.12,423.79c-1.31,1.44-4.1,1-6.14-.92s-2.67-4.66-1.36-6.1,4.13-1,6.19.91,2.7,4.68,1.31,6.11Zm0,0" transform="translate(-26.68 -43.08)"/>
        <path class="circle" d="M166.91,431.5c-.58,1.87-3.26,2.72-6,1.93s-4.47-3-3.93-4.9,3.26-2.77,6-1.92,4.47,3,3.91,4.89Zm0,0" transform="translate(-26.68 -43.08)"/>
        <path class="circle" d="M186.46,432.93c.06,2-2.23,3.6-5.07,3.64s-5.17-1.53-5.2-3.47,2.25-3.6,5.1-3.65,5.17,1.53,5.17,3.48Zm0,0" transform="translate(-26.68 -43.08)"/>
        <path class="circle" d="M204.64,429.84c.34,1.92-1.63,3.89-4.45,4.42s-5.34-.68-5.69-2.59,1.66-3.94,4.43-4.45,5.35.66,5.71,2.62Zm0,0" transform="translate(-26.68 -43.08)"/>
    </g>
</svg>
