<?xml version="1.0" encoding="UTF-8"?>
<!-- Generator: Adobe Illustrator, SVG Export Plug-In . SVG Version)  -->
<svg version="1.1" id="name_text" data-name="Name Text" xmlns="http://www.w3.org/2000/svg" viewBox="0 0 372 174">
	<style>
		@import url('style.css');
	</style>

	<script>
		window.addEventListener("load", () => {
			var svg = document.querySelector('svg');

			setTimeout(() => {
				svg.setAttribute("class", "loaded");
			}, 500);
		});
	</script>

	<title>Niladri Mondal</title>

	<g id="first">
		<path id="N" class="letter red" d="M249.1,188.64V157.39A20.43,20.43,0,0,1,269.53,137h0A20.43,20.43,0,0,1,290,157.39v31.25" />

		<path id="I" class="letter green" d="M311.91,188.64V160.71A20.68,20.68,0,0,1,332.59,140h0" />
		
		<path id="L" class="letter violet" d="M347.14,105.91v55.15A21,21,0,0,0,368.08,182h0" />

		<path id="A" class="letter red" d="M403.31,181.9h0A20.93,20.93,0,0,1,382.38,161v-1.27a20.94,20.94,0,0,1,20.93-20.94h0a20.94,20.94,0,0,1,20.94,20.94v28.95" />

		<path id="D" class="letter green" d="M466.38,140.34h0a21,21,0,0,0-20.94,20.94v1.28c0,11.56,9.38,19.93,20.94,19.93h0c11.56,0,20.93-8.37,20.93-19.93V105.42" />

		<path id="R" class="letter violet" d="M508.51,188.93V161.07a20.62,20.62,0,0,1,20.61-20.62h0a20.62,20.62,0,0,1,20.62,20.62v.32" />

		<path id="I" class="letter red" d="M571.63,189.35V161.43a20.68,20.68,0,0,1,20.68-20.68h0" />

		<line id="I_Dot" class="dot green" x1="76.96" y1="21.87" x2="76.96" y2="5.02"/>
		<line id="I_Dot" class="dot red" x1="318.28" y1="23.58" x2="318.28" y2="6.73"/>
	</g>

	<g id="last">

		<path id="M_1" class="letter violet" d="M250,278.93V251.07c0-11.39,7.23-20.62,18.62-20.62h0c11.38,0,17.61,9.23,17.61,20.62v.32" />

		<path id="M_2" class="letter red" d="M285.77,279.37l.57-27.46c.24-11.23,7.41-20.21,18.64-20.21h0c11.4,0,18.64,9.24,18.64,20.64v27" />

		<path id="O" class="letter green" d="M361.11,272.35h-1.37a20.08,20.08,0,0,1-20.08-20.08v-1.75a20.08,20.08,0,0,1,20.08-20.08h1.37a20.08,20.08,0,0,1,20.08,20.08v1.75a20.08,20.08,0,0,1-20.08,20.08Z" />

		<path id="N" class="letter violet" d="M402.73,278.53l.58-27.46a20.63,20.63,0,0,1,20.63-20.21h0a20.64,20.64,0,0,1,20.64,20.64v27" />

		<path id="D" class="letter red" d="M486.64,230.14h0a20.94,20.94,0,0,0-20.94,20.94v1.27c0,11.57,9.38,19.94,20.94,19.94h0c11.56,0,20.93-8.37,20.93-19.94V195.21" />

		<path id="A" class="letter green" d="M549.51,270.76h0a21,21,0,0,1-20.94-20.94v-1.28a20.94,20.94,0,0,1,20.94-20.93h0a20.94,20.94,0,0,1,20.94,20.93v29" />
		
		<path id="L" class="letter violet" d="M591.57,194.66v55.15a20.94,20.94,0,0,0,20.94,20.93h0" />
	</g>

</svg>
