<svg version="1.1" id="saac_logo" xmlns="http://www.w3.org/2000/svg" viewBox="-10 -10 410 300">
    <style>
        @import url(style.css);
    </style>
    <title>SAAC Logo</title>
    <g>
        <path class="name" d="M378.62,140.31l7.51-11.79h-34a27.09,27.09,0,0,0-13.83,3.63c-5.23,3.07-10.59,8.7-11.12,18.89-.57,10.72,5.43,16.72,11.23,20a29.44,29.44,0,0,0,14.4,3.62h25.82l7.51-11.79H352.36a12.42,12.42,0,0,1-10.57-5.61A11.38,11.38,0,0,1,340,151a9.65,9.65,0,0,1,4.7-8.15,15.79,15.79,0,0,1,8.83-2.58Zm-268,19.84a7,7,0,1,1-7,7A7,7,0,0,1,110.61,160.15Zm35.08,13.93H201.2l-32.92-46.47a7.35,7.35,0,0,0-6-3.12h-.9a7.35,7.35,0,0,0-6,3.07l-32.44,46.52h17.15l20.68-31.25a1.62,1.62,0,0,1,2.24-.41,1.6,1.6,0,0,1,.41.41l12.29,18.44H154.19Zm65.69-13.93a7,7,0,1,1-7,7A7,7,0,0,1,211.38,160.15Zm35.08,13.93H302l-32.92-46.47a7.35,7.35,0,0,0-6-3.12h-.9a7.36,7.36,0,0,0-6,3.07l-32.44,46.52h17.15l20.68-31.25a1.62,1.62,0,0,1,2.24-.41,1.6,1.6,0,0,1,.41.41l12.29,18.44H255Zm67.84-13.93a7,7,0,1,1-7,7A7,7,0,0,1,314.3,160.15ZM86.49,139.78,95.07,128H51.29A19.79,19.79,0,0,0,43,129.71c-4.13,1.92-8.68,5.86-7.45,13.82,2.14,13.94,15,11.79,15,11.79H79.52a4.57,4.57,0,0,1,4.34,2.93,3.15,3.15,0,0,1-.48,3.15,3.93,3.93,0,0,1-3.11,1.43H43.07l-8.58,11.79H83.81s12.86,0,13.94-13.94-12.87-13.93-12.87-13.93H52.72a4.86,4.86,0,0,1-3.44-1.27,2.6,2.6,0,0,1-1-2.71c.16-1.38,2.31-2.46,5.52-2.47Z" transform="translate(-13.17 -9.39)" />
        <path class="text" d="M36.87,200.6a4.44,4.44,0,0,1-1.34-.48l-.27-2.68,0,0a4.31,4.31,0,0,0,1.45,1.29,3.84,3.84,0,0,0,1.74.39q2,0,2-1.44a1.41,1.41,0,0,0-.27-.87,2.15,2.15,0,0,0-.68-.59,10.4,10.4,0,0,0-1.11-.51,10,10,0,0,1-1.53-.74,3.15,3.15,0,0,1-1-1,3.09,3.09,0,0,1-.42-1.69,2.77,2.77,0,0,1,.46-1.52,3.17,3.17,0,0,1,1.32-1.11,4.68,4.68,0,0,1,2.06-.41,10.27,10.27,0,0,1,2.52.33l.2,2.63h0a2.7,2.7,0,0,0-1.11-1,3.4,3.4,0,0,0-1.42-.29c-1.22,0-1.84.41-1.84,1.24a1.15,1.15,0,0,0,.25.73,2.28,2.28,0,0,0,.63.51c.25.13.6.29,1.06.48a11.36,11.36,0,0,1,1.6.79,3.23,3.23,0,0,1,1.52,2.91,3,3,0,0,1-.46,1.66,3.15,3.15,0,0,1-1.36,1.17,5.13,5.13,0,0,1-2.21.43A9,9,0,0,1,36.87,200.6Zm14.84-10.25A3.41,3.41,0,0,1,52.77,193a3.74,3.74,0,0,1-1,2.88,4.27,4.27,0,0,1-3,1H47.42v1.33a3.81,3.81,0,0,0,.26,1.48,1.71,1.71,0,0,0,.61.82v0H44.37v0a1.88,1.88,0,0,0,.6-.85,3.74,3.74,0,0,0,.26-1.52v-6.38a3.6,3.6,0,0,0-.26-1.48,1.71,1.71,0,0,0-.6-.82v0h4.36A4.32,4.32,0,0,1,51.71,190.35Zm-1.22,2.78a2.19,2.19,0,0,0-.52-1.62,2.15,2.15,0,0,0-1.6-.52h-.95v4.27l.95,0A1.88,1.88,0,0,0,50.49,193.13Zm12.66,6.35a4.24,4.24,0,0,0,.82,1v0H60.35v0a.87.87,0,0,0,.26-.73,3.82,3.82,0,0,0-.26-1.24l-.14-.38H56.08l-.15.38a3.41,3.41,0,0,0-.25,1.22,1,1,0,0,0,.22.75v0H52.54v0a4.29,4.29,0,0,0,.81-1,7.84,7.84,0,0,0,.74-1.57l2.29-6.59a2.43,2.43,0,0,0,.15-.79,1.67,1.67,0,0,0-.13-.65,1.14,1.14,0,0,0-.31-.43v0h4.24v0a1.41,1.41,0,0,0-.3.44,1.44,1.44,0,0,0-.13.64,2.43,2.43,0,0,0,.15.79l2.35,6.59A7.68,7.68,0,0,0,63.15,199.48Zm-5.36-6.4c-.14.48-.34,1.08-.59,1.8l-.59,1.69h3.07l-.59-1.69c-.27-.77-.47-1.39-.61-1.84a9.12,9.12,0,0,1-.32-1.51h-.07A9.25,9.25,0,0,1,57.79,193.08ZM66.86,200a5.11,5.11,0,0,1-2-2.05,6.29,6.29,0,0,1-.68-2.93,6.22,6.22,0,0,1,.74-3.11,5.16,5.16,0,0,1,2.1-2,6.83,6.83,0,0,1,3.17-.71,9.86,9.86,0,0,1,2.82.4l.25,2.77h0A3.12,3.12,0,0,0,72,191.24a4.09,4.09,0,0,0-1.76-.38,3.37,3.37,0,0,0-2.65,1.08,4.22,4.22,0,0,0-1,2.94,4.88,4.88,0,0,0,.89,3A3,3,0,0,0,70,199.07a4.29,4.29,0,0,0,2.08-.46,4.85,4.85,0,0,0,1.52-1.33h0l-.38,2.87a10.39,10.39,0,0,1-3.41.6A5.81,5.81,0,0,1,66.86,200Zm16.31-2.55-.45,3.18a6.89,6.89,0,0,0-.86-.1c-.27,0-.64,0-1.09,0H75.12v0a1.89,1.89,0,0,0,.61-.85,3.93,3.93,0,0,0,.25-1.52V191.8a3.89,3.89,0,0,0-.25-1.52,1.91,1.91,0,0,0-.61-.84v0h5.74a8.79,8.79,0,0,0,1.7-.12l.27,2.86,0,0a1.8,1.8,0,0,0-.93-.89,3.71,3.71,0,0,0-1.58-.3H78.17v2.82h1.22c.67,0,1.17,0,1.49,0s.65,0,1-.08l-.47,2.68h0a1.4,1.4,0,0,0-.62-.76,2.32,2.32,0,0,0-1.12-.24H78.17V199h1.75a4.36,4.36,0,0,0,1.88-.39,3.22,3.22,0,0,0,1.33-1.12Zm15.21,2a4.24,4.24,0,0,0,.82,1v0H95.58v0a.87.87,0,0,0,.26-.73,3.82,3.82,0,0,0-.26-1.24l-.14-.38H91.31l-.14.38a3.43,3.43,0,0,0-.26,1.22,1,1,0,0,0,.22.75v0H87.77v0a4.29,4.29,0,0,0,.81-1,7.86,7.86,0,0,0,.75-1.57l2.28-6.59a2.43,2.43,0,0,0,.15-.79,1.51,1.51,0,0,0-.13-.65,1.25,1.25,0,0,0-.3-.43v0h4.24v0a1.27,1.27,0,0,0-.31.44,1.59,1.59,0,0,0-.13.64,2.43,2.43,0,0,0,.15.79l2.35,6.59A7.68,7.68,0,0,0,98.38,199.48ZM93,193.08c-.14.48-.33,1.08-.59,1.8l-.59,1.69h3.07l-.59-1.69c-.27-.77-.47-1.39-.61-1.84a9.12,9.12,0,0,1-.32-1.51h-.06A10.37,10.37,0,0,1,93,193.08Zm7,7.41a1.82,1.82,0,0,0,.61-.85,3.91,3.91,0,0,0,.26-1.52v-6.4a4.07,4.07,0,0,0-.23-1.35,1.78,1.78,0,0,0-.64-.93v0h3.64a2.15,2.15,0,0,0,.16.6,6.74,6.74,0,0,0,.49.94l2.31,3.87a25.48,25.48,0,0,1,1.47,3.17h.06a19.28,19.28,0,0,1-.25-3.3V191.8a4.16,4.16,0,0,0-.24-1.53,1.57,1.57,0,0,0-.58-.83v0h3.7v0a1.68,1.68,0,0,0-.61.84,4,4,0,0,0-.26,1.52v6.32a4,4,0,0,0,.26,1.53,1.73,1.73,0,0,0,.61.84v0h-3.38a11.38,11.38,0,0,0-.8-1.52l-2.26-3.66a15.52,15.52,0,0,1-.92-1.72,18.86,18.86,0,0,1-.74-1.93h-.06c.11.69.19,1.32.23,1.87s0,1.17,0,1.84v2.72a4.26,4.26,0,0,0,.24,1.54,1.65,1.65,0,0,0,.58.83v0H100Zm12.8,0a1.82,1.82,0,0,0,.61-.85,3.91,3.91,0,0,0,.26-1.52V191.8a3.83,3.83,0,0,0-.27-1.48,1.73,1.73,0,0,0-.6-.88v0h4.64a6.25,6.25,0,0,1,2.94.67,4.58,4.58,0,0,1,1.94,1.91,6,6,0,0,1,.69,3,5.56,5.56,0,0,1-1.45,4.12,6,6,0,0,1-4.37,1.44h-4.39Zm4.55-1.55a3,3,0,0,0,2.45-1,4.58,4.58,0,0,0,.84-3,4.48,4.48,0,0,0-.83-3,3.15,3.15,0,0,0-2.54-1h-1.41v7.95Zm21,.54a4.24,4.24,0,0,0,.82,1v0h-3.62v0a.87.87,0,0,0,.26-.73,3.82,3.82,0,0,0-.26-1.24l-.14-.38h-4.13l-.14.38a3.43,3.43,0,0,0-.26,1.22,1,1,0,0,0,.23.75v0h-3.36v0a4.56,4.56,0,0,0,.8-1,7.35,7.35,0,0,0,.75-1.57l2.29-6.59a2.69,2.69,0,0,0,.14-.79,1.51,1.51,0,0,0-.13-.65,1,1,0,0,0-.3-.43v0h4.24v0a1.27,1.27,0,0,0-.31.44,1.59,1.59,0,0,0-.12.64,2.4,2.4,0,0,0,.14.79l2.35,6.59A8.23,8.23,0,0,0,138.33,199.48Zm-5.36-6.4c-.14.48-.33,1.08-.59,1.8l-.59,1.69h3.07l-.59-1.69c-.27-.77-.47-1.39-.61-1.84a10.27,10.27,0,0,1-.32-1.51h-.06A10.37,10.37,0,0,1,133,193.08Zm15,4.39-.44,3.18a6.89,6.89,0,0,0-.86-.1c-.27,0-.64,0-1.1,0H140v0a1.88,1.88,0,0,0,.6-.85,3.91,3.91,0,0,0,.26-1.52V191.8a3.88,3.88,0,0,0-.26-1.52,1.9,1.9,0,0,0-.6-.84v0h5.74a8.86,8.86,0,0,0,1.7-.12l.27,2.86,0,0a1.87,1.87,0,0,0-.93-.89,3.76,3.76,0,0,0-1.59-.3H143v2.82h1.22c.67,0,1.17,0,1.49,0s.65,0,1-.08l-.46,2.68h0a1.37,1.37,0,0,0-.63-.76,2.27,2.27,0,0,0-1.12-.24H143V199h1.75a4.36,4.36,0,0,0,1.88-.39,3.22,3.22,0,0,0,1.33-1.12Zm11.7,2.77v0l-3.28.59a8.63,8.63,0,0,0-.82-1.78l-2.48-4.24h.77a2.34,2.34,0,0,0,1.6-.47,1.91,1.91,0,0,0,.55-1.51,1.79,1.79,0,0,0-.56-1.39,2.25,2.25,0,0,0-1.59-.5l-1.12,0v7.2a4,4,0,0,0,.24,1.46,2,2,0,0,0,.56.84v0h-3.85v0a1.79,1.79,0,0,0,.6-.84,4,4,0,0,0,.26-1.53v-6.38a3.77,3.77,0,0,0-.26-1.48,1.71,1.71,0,0,0-.6-.82v0h4.54a4.51,4.51,0,0,1,3,.91,3.06,3.06,0,0,1,1.07,2.47,3.42,3.42,0,0,1-.57,2,3.12,3.12,0,0,1-1.61,1.13l1.49,2.41A4.12,4.12,0,0,0,159.71,200.24Zm2.93-.15a5,5,0,0,1-2-2.06,6.39,6.39,0,0,1-.68-3,6.74,6.74,0,0,1,.71-3.15,5,5,0,0,1,2.06-2.09,6.41,6.41,0,0,1,3.17-.75,6,6,0,0,1,3,.72,5.1,5.1,0,0,1,2,2,6.28,6.28,0,0,1,.71,3,6.49,6.49,0,0,1-.74,3.13,5.29,5.29,0,0,1-2.1,2.12,6.31,6.31,0,0,1-3.11.75A6,6,0,0,1,162.64,200.09Zm5-1.42a3.43,3.43,0,0,0,1.22-1.47,5.23,5.23,0,0,0,.44-2.2,4.75,4.75,0,0,0-.93-3.13,3.46,3.46,0,0,0-4.37-.6,3.34,3.34,0,0,0-1.18,1.45,5.52,5.52,0,0,0-.4,2.19,4.9,4.9,0,0,0,.89,3.13,3.4,3.4,0,0,0,4.33.63Zm5.85,1.82a1.89,1.89,0,0,0,.61-.85,3.93,3.93,0,0,0,.25-1.52v-6.4a4.07,4.07,0,0,0-.22-1.35,1.84,1.84,0,0,0-.64-.93v0h3.63a2.15,2.15,0,0,0,.16.6,6,6,0,0,0,.5.94l2.3,3.87A22.86,22.86,0,0,1,181.5,198h.07a19.21,19.21,0,0,1-.26-3.3V191.8a4.4,4.4,0,0,0-.23-1.53,1.58,1.58,0,0,0-.59-.83v0h3.7v0a1.74,1.74,0,0,0-.61.84,4,4,0,0,0-.25,1.52v6.32a4,4,0,0,0,.25,1.53,1.79,1.79,0,0,0,.61.84v0h-3.38A11.38,11.38,0,0,0,180,199l-2.25-3.66a14.17,14.17,0,0,1-.93-1.72,18.86,18.86,0,0,1-.74-1.93H176c.12.69.19,1.32.23,1.87s.06,1.17.06,1.84v2.72a4.5,4.5,0,0,0,.23,1.54,1.65,1.65,0,0,0,.58.83v0h-3.69Zm22.14-1a4.24,4.24,0,0,0,.82,1v0h-3.62v0a.87.87,0,0,0,.26-.73,3.82,3.82,0,0,0-.26-1.24l-.14-.38h-4.13l-.14.38a3.23,3.23,0,0,0-.26,1.22,1,1,0,0,0,.22.75v0H185v0a4.29,4.29,0,0,0,.81-1,8.45,8.45,0,0,0,.75-1.57l2.28-6.59a2.43,2.43,0,0,0,.15-.79,1.67,1.67,0,0,0-.13-.65,1.25,1.25,0,0,0-.3-.43v0h4.24v0a1.27,1.27,0,0,0-.31.44,1.59,1.59,0,0,0-.13.64,2.43,2.43,0,0,0,.15.79l2.35,6.59A7.68,7.68,0,0,0,195.58,199.48Zm-5.36-6.4c-.14.48-.33,1.08-.59,1.8l-.59,1.69h3.07l-.59-1.69c-.27-.77-.47-1.39-.61-1.84a9.12,9.12,0,0,1-.32-1.51h-.06A10.37,10.37,0,0,1,190.22,193.08Zm8.15,6.5a5.13,5.13,0,0,1-1.14-3.63V191.8a4,4,0,0,0-.26-1.52,1.9,1.9,0,0,0-.6-.84v0h3.88v0a2,2,0,0,0-.56.84,4,4,0,0,0-.25,1.52v4.32a3.82,3.82,0,0,0,.54,2.32,2.26,2.26,0,0,0,1.86.68,2,2,0,0,0,1.71-.73,3.83,3.83,0,0,0,.54-2.27V191.8a4.2,4.2,0,0,0-.24-1.51,2,2,0,0,0-.57-.85v0h3.84v0a1.83,1.83,0,0,0-.61.84,3.88,3.88,0,0,0-.26,1.52V196a5.14,5.14,0,0,1-1.13,3.64,4.56,4.56,0,0,1-3.46,1.21A4.27,4.27,0,0,1,198.37,199.58ZM217,192.2l0,0a2.36,2.36,0,0,0-2.08-1.18h-1.2v7a4.2,4.2,0,0,0,.28,1.62,1.72,1.72,0,0,0,.7.87v0h-4.14v0a1.89,1.89,0,0,0,.68-.89,4,4,0,0,0,.29-1.6v-7h-1.21a2.33,2.33,0,0,0-2.08,1.18l0,0,.28-2.92a18.06,18.06,0,0,0,2.19.12h3.9a18.06,18.06,0,0,0,2.19-.12Zm1.42,8.29a1.89,1.89,0,0,0,.61-.85,3.93,3.93,0,0,0,.25-1.52V191.8a3.89,3.89,0,0,0-.25-1.52,1.91,1.91,0,0,0-.61-.84v0h3.94v0a1.83,1.83,0,0,0-.61.84,4,4,0,0,0-.26,1.52v6.32a3.93,3.93,0,0,0,.26,1.53,1.83,1.83,0,0,0,.61.84v0h-3.94Zm8.4-.47a5.11,5.11,0,0,1-2-2.05,6.7,6.7,0,0,1,.06-6,5,5,0,0,1,2.1-2,6.8,6.8,0,0,1,3.17-.71,9.74,9.74,0,0,1,2.81.4l.26,2.77h0a3.12,3.12,0,0,0-1.29-1.12,4.16,4.16,0,0,0-1.77-.38,3.39,3.39,0,0,0-2.65,1.08,4.27,4.27,0,0,0-1,2.94,4.88,4.88,0,0,0,.88,3,3,3,0,0,0,2.52,1.15,4.24,4.24,0,0,0,2.08-.46,4.64,4.64,0,0,0,1.52-1.33h0l-.39,2.87a10.35,10.35,0,0,1-3.41.6A5.74,5.74,0,0,1,226.83,200Zm9.69.58a4.34,4.34,0,0,1-1.34-.48l-.27-2.68,0,0a4.22,4.22,0,0,0,1.45,1.29,3.84,3.84,0,0,0,1.74.39q2,0,2-1.44a1.41,1.41,0,0,0-.27-.87,2.15,2.15,0,0,0-.68-.59,11.43,11.43,0,0,0-1.11-.51,10,10,0,0,1-1.53-.74,3.05,3.05,0,0,1-1-1,3.09,3.09,0,0,1-.42-1.69,2.69,2.69,0,0,1,.46-1.52,3.17,3.17,0,0,1,1.32-1.11,4.65,4.65,0,0,1,2.06-.41,10.13,10.13,0,0,1,2.51.33l.21,2.63h0a2.7,2.7,0,0,0-1.11-1,3.43,3.43,0,0,0-1.42-.29c-1.22,0-1.84.41-1.84,1.24a1.1,1.1,0,0,0,.25.73,2.09,2.09,0,0,0,.62.51c.25.13.61.29,1.07.48a11.36,11.36,0,0,1,1.6.79,3.38,3.38,0,0,1,1.07,1.09,3.29,3.29,0,0,1,.45,1.82,3,3,0,0,1-.46,1.66,3.12,3.12,0,0,1-1.37,1.17,5,5,0,0,1-2.2.43A9,9,0,0,1,236.52,200.6Zm21-1.12a4.5,4.5,0,0,0,.81,1v0h-3.61v0a.87.87,0,0,0,.25-.73,3.78,3.78,0,0,0-.25-1.24l-.15-.38h-4.13l-.14.38a3.43,3.43,0,0,0-.26,1.22,1,1,0,0,0,.23.75v0h-3.36v0a4.86,4.86,0,0,0,.81-1,7.84,7.84,0,0,0,.74-1.57l2.29-6.59a2.69,2.69,0,0,0,.14-.79,1.51,1.51,0,0,0-.13-.65,1,1,0,0,0-.3-.43v0h4.24v0a1.14,1.14,0,0,0-.3.44,1.44,1.44,0,0,0-.13.64,2.69,2.69,0,0,0,.14.79l2.35,6.59A8.25,8.25,0,0,0,257.52,199.48Zm-5.36-6.4q-.21.72-.6,1.8l-.59,1.69H254l-.59-1.69c-.26-.77-.47-1.39-.61-1.84a11.75,11.75,0,0,1-.32-1.51h-.06A10.38,10.38,0,0,1,252.16,193.08Zm9.07,6.94a5.11,5.11,0,0,1-2-2.05,6.7,6.7,0,0,1,.06-6,5,5,0,0,1,2.1-2,6.8,6.8,0,0,1,3.17-.71,9.86,9.86,0,0,1,2.82.4l.25,2.77h0a3.12,3.12,0,0,0-1.29-1.12,4.16,4.16,0,0,0-1.77-.38,3.39,3.39,0,0,0-2.65,1.08,4.27,4.27,0,0,0-1,2.94,4.88,4.88,0,0,0,.88,3,3,3,0,0,0,2.53,1.15,4.29,4.29,0,0,0,2.08-.46,4.71,4.71,0,0,0,1.51-1.33h0l-.39,2.87a10.29,10.29,0,0,1-3.4.6A5.76,5.76,0,0,1,261.23,200Zm16.46-7.82,0,0a2.36,2.36,0,0,0-2.08-1.18h-1.2v7a4,4,0,0,0,.28,1.62,1.72,1.72,0,0,0,.7.87v0h-4.15v0a1.77,1.77,0,0,0,.68-.89,3.84,3.84,0,0,0,.3-1.6v-7H271a2.37,2.37,0,0,0-1.24.33,2.44,2.44,0,0,0-.84.85l0,0,.27-2.92a18.11,18.11,0,0,0,2.2.12h3.9a18.06,18.06,0,0,0,2.19-.12Zm1.43,8.29a1.88,1.88,0,0,0,.6-.85,3.74,3.74,0,0,0,.26-1.52V191.8a3.71,3.71,0,0,0-.26-1.52,1.9,1.9,0,0,0-.6-.84v0h3.93v0a1.9,1.9,0,0,0-.6.84,3.8,3.8,0,0,0-.26,1.52v6.32a3.76,3.76,0,0,0,.26,1.53,1.9,1.9,0,0,0,.6.84v0h-3.93Zm8.64,0A1.13,1.13,0,0,0,288,200a1.89,1.89,0,0,0,.1-.65,3.47,3.47,0,0,0-.21-1.11l-2.41-6.7a6.37,6.37,0,0,0-.62-1.22,3.28,3.28,0,0,0-.84-.92v0h3.74v0a1.3,1.3,0,0,0-.27.88,2.06,2.06,0,0,0,.11.65L289,195a17.1,17.1,0,0,1,.83,3.28h.07c.09-.56.22-1.14.38-1.76s.31-1.12.45-1.54l1.34-4a2.45,2.45,0,0,0,.15-.81,1.14,1.14,0,0,0-.23-.75v0h3.43v0a3.49,3.49,0,0,0-1.35,2l-2.4,6.84a3.45,3.45,0,0,0-.2,1.12,1.46,1.46,0,0,0,.35,1.09v0h-4.08Zm8.62,0a1.82,1.82,0,0,0,.61-.85,3.93,3.93,0,0,0,.25-1.52V191.8a3.89,3.89,0,0,0-.25-1.52,1.83,1.83,0,0,0-.61-.84v0h3.94v0a1.83,1.83,0,0,0-.61.84,4,4,0,0,0-.26,1.52v6.32a3.93,3.93,0,0,0,.26,1.53,1.83,1.83,0,0,0,.61.84v0h-3.94Zm14.19-8.29,0,0a2.36,2.36,0,0,0-2.08-1.18h-1.2v7a4,4,0,0,0,.28,1.62,1.72,1.72,0,0,0,.7.87v0h-4.15v0a1.77,1.77,0,0,0,.68-.89,3.84,3.84,0,0,0,.3-1.6v-7h-1.22a2.37,2.37,0,0,0-1.24.33,2.44,2.44,0,0,0-.84.85l0,0,.27-2.92a18.11,18.11,0,0,0,2.2.12h3.9a18.06,18.06,0,0,0,2.19-.12Zm11.17-2.8v0a6.16,6.16,0,0,0-1.28,1.63l-3,5V198a4,4,0,0,0,.28,1.62,1.66,1.66,0,0,0,.69.87v0h-4.14v0a1.89,1.89,0,0,0,.68-.89,3.85,3.85,0,0,0,.29-1.6v-1.86l-3.07-5.07a6.16,6.16,0,0,0-1.29-1.63v0h3.4v0a1,1,0,0,0,0,.32,2.74,2.74,0,0,0,.41,1.31l1.23,2.13a5,5,0,0,1,.5,1h.06a4.64,4.64,0,0,1,.3-.67,3.44,3.44,0,0,1,.22-.37l1.21-2.13a2.68,2.68,0,0,0,.4-1.28.89.89,0,0,0-.05-.35v0ZM329.12,200a5,5,0,0,1-2-2.05,6.7,6.7,0,0,1,.06-6,5,5,0,0,1,2.1-2,6.8,6.8,0,0,1,3.17-.71,9.74,9.74,0,0,1,2.81.4l.26,2.77h0a3.12,3.12,0,0,0-1.29-1.12,4.16,4.16,0,0,0-1.77-.38,3.39,3.39,0,0,0-2.65,1.08,4.27,4.27,0,0,0-1,2.94,4.88,4.88,0,0,0,.89,3,3,3,0,0,0,2.52,1.15,4.27,4.27,0,0,0,2.08-.46,4.64,4.64,0,0,0,1.52-1.33h0l-.38,2.87a10.35,10.35,0,0,1-3.41.6A5.74,5.74,0,0,1,329.12,200Zm16.3-2.55-.45,3.18a6.74,6.74,0,0,0-.85-.1c-.28,0-.64,0-1.1,0h-5.65v0a1.82,1.82,0,0,0,.61-.85,3.91,3.91,0,0,0,.26-1.52V191.8a3.88,3.88,0,0,0-.26-1.52,1.83,1.83,0,0,0-.61-.84v0h5.75a8.74,8.74,0,0,0,1.69-.12l.27,2.86,0,0a1.82,1.82,0,0,0-.92-.89,3.76,3.76,0,0,0-1.59-.3h-2.11v2.82h1.21c.68,0,1.17,0,1.49,0s.66,0,1-.08l-.46,2.68h0a1.32,1.32,0,0,0-.62-.76,2.3,2.3,0,0,0-1.12-.24h-1.47V199h1.74a4.33,4.33,0,0,0,1.88-.39,3.25,3.25,0,0,0,1.34-1.12Zm1.71,3a1.82,1.82,0,0,0,.61-.85,3.91,3.91,0,0,0,.26-1.52v-6.4a4.07,4.07,0,0,0-.23-1.35,1.78,1.78,0,0,0-.64-.93v0h3.63a3.17,3.17,0,0,0,.16.6,7.06,7.06,0,0,0,.5.94l2.3,3.87A23.94,23.94,0,0,1,355.2,198h.06a19.21,19.21,0,0,1-.26-3.3V191.8a4.18,4.18,0,0,0-.23-1.53,1.57,1.57,0,0,0-.58-.83v0h3.69v0a1.74,1.74,0,0,0-.6.84,4,4,0,0,0-.26,1.52v6.32a4,4,0,0,0,.26,1.53,1.79,1.79,0,0,0,.6.84v0h-3.37a11.38,11.38,0,0,0-.8-1.52l-2.26-3.66a17.61,17.61,0,0,1-.93-1.72,19,19,0,0,1-.73-1.93h-.07c.12.69.2,1.32.24,1.87s.05,1.17.05,1.84v2.72a4.5,4.5,0,0,0,.23,1.54,1.66,1.66,0,0,0,.59.83v0h-3.7Zm21-8.29,0,0A2.36,2.36,0,0,0,366,191h-1.2v7a4,4,0,0,0,.28,1.62,1.71,1.71,0,0,0,.69.87v0h-4.14v0a1.83,1.83,0,0,0,.68-.89,3.84,3.84,0,0,0,.3-1.6v-7h-1.22a2.36,2.36,0,0,0-2.08,1.18l0,0,.27-2.92a18.06,18.06,0,0,0,2.19.12h3.91a18.06,18.06,0,0,0,2.19-.12Zm9.47,5.27-.45,3.18a6.53,6.53,0,0,0-.85-.1c-.27,0-.64,0-1.1,0h-5.65v0a1.82,1.82,0,0,0,.61-.85,3.91,3.91,0,0,0,.26-1.52V191.8a3.88,3.88,0,0,0-.26-1.52,1.83,1.83,0,0,0-.61-.84v0h5.75a8.67,8.67,0,0,0,1.69-.12l.28,2.86,0,0a1.82,1.82,0,0,0-.92-.89,3.76,3.76,0,0,0-1.59-.3h-2.11v2.82h1.22c.67,0,1.16,0,1.48,0s.66,0,1-.08l-.46,2.68h0a1.37,1.37,0,0,0-.63-.76,2.3,2.3,0,0,0-1.12-.24h-1.47V199h1.74a4.33,4.33,0,0,0,1.88-.39,3.25,3.25,0,0,0,1.34-1.12Zm11.7,2.77v0l-3.28.59a9.19,9.19,0,0,0-.82-1.78l-2.48-4.24h.77a2.35,2.35,0,0,0,1.6-.47,1.9,1.9,0,0,0,.54-1.51,1.76,1.76,0,0,0-.56-1.39,2.21,2.21,0,0,0-1.58-.5l-1.12,0v7.2a4,4,0,0,0,.24,1.46,2,2,0,0,0,.56.84v0h-3.86v0a1.73,1.73,0,0,0,.61-.84,4,4,0,0,0,.26-1.53v-6.38a3.77,3.77,0,0,0-.26-1.48,1.66,1.66,0,0,0-.61-.82v0h4.55a4.47,4.47,0,0,1,3,.91,3,3,0,0,1,1.08,2.47,3.42,3.42,0,0,1-.57,2,3.12,3.12,0,0,1-1.61,1.13l1.49,2.41A4.12,4.12,0,0,0,389.31,200.24Z" transform="translate(-13.17-9.39)"/>

        <path class="orange" d="M58.84,116.16h17.8S144.07,59,228.36,35.61s114.26-1.87,114.26-1.87,0-24.35-59.94-24.35-139.55,45-139.55,45-36.52,17.8-84.29,61.82ZM228.36,247.27H197.45S142.2,278.18,77.58,266c0,0-32.78-6.55-24.35-42.14,0,0-21.38,29,.65,49.8a39,39,0,0,0,16.58,9.1c19.2,5.25,73.2,12.39,157.9-35.49Z" transform="translate(-13.17-9.39)" />
        <path class="blue" d="M104.74,116.16h35.58s62.51-42.78,147-55.26c82.42-12.18,98.34,22.48,98.34,22.48s10.3,16.85,2.81,39.33c0,0,31.29-43.57-1.88-73-16.25-14.45-49.71-15.4-80-12.51a353.34,353.34,0,0,0-98.41,24.28C179,73.2,137.92,92.08,104.74,116.16ZM18.57,207.94H37.3S18.57,235.1,27,265.06C27,265.06,2.65,251,18.57,207.94Z" transform="translate(-13.17-9.39)" />
    </g>
</svg>