<svg xmlns="http://www.w3.org/2000/svg" id="sign" data-name="sign" version="1.1" viewBox="0 0 1495 247.94"><defs><style>@import url(style.css);</style></defs><title>Signature</title><g><path id="part-1" d="M181,577s19-4,38-26,32-48,32-48,72.32-139.88,39-156c-31-15-38,59-23,103s34,99,58,100,32-37,32-37,38-117,58-138,44-46,88-37" transform="translate(-179 -334.11)"/><path id="part-2" d="M383,502s-21,55,71-6c0,0,64-42,27-39s-60,79-60,79-18,66,30,36a936.62,936.62,0,0,0,87-62s12.4-12.4,28.86-4.69a2.15,2.15,0,0,1,.26,3.72c-5.57,3.68-18.06,10.75-27.12,7-5.1-2.12-3.52-5.15,0-7.93,11.62-9.22,28.81-4.11,34.21,9.7.07.2.15.39.22.59a4.7,4.7,0,0,0,3.13,2.87c3.94,1.1,16.05,2.31,34.45-7.23" transform="translate(-179 -334.11)"/><path id="part-3" d="M646,505s-40.49-.92-39.36,21.2a3.52,3.52,0,0,0,3.34,3.3c6.28.36,21.89-2.19,41-30.5,18.7-27.68,25.65-35.21,28-37.25a.31.31,0,0,1,.49.36C673.89,473.58,628,569.1,660,539c34-32,14-26,38-33,0,0,34-9,20-14s-23,3-23,3-12,9,3,14c12.38,4.13,27.47.08,32.38-1.46a3.66,3.66,0,0,1,4.74,3c.41,3.59-1.54,10.84-11.12,25.46-19,29-39,49-20,41s39-24,39-24,46-41,48-50c0,0-12,47,47,6" transform="translate(-179 -334.11)"/><path id="part-4" d="M898.5,410.5c23.73-14.37,88.65-51.84,106-34,9.24,9.5,1.65,31.24-8,58-25.7,71.22-64.9,115.48-62,118,3.13,2.72,48.43-44.92,59-56,75.54-79.25,97-128.18,156-149,22.11-7.81,29.93-5.15,34-2,13.65,10.56-.29,43.64-26,130-13.06,43.86-27.12,91.4-23,93,2.14.83,7.75-12.2,20-33,13.33-22.64,54.64-92.81,82.5-86.5a11.35,11.35,0,0,1,6,3c13.17,13.46-32.43,65.78-25,73,2.48,2.41,10.82,1.88,32-13,0,0,20-16,24,2,0,0,2,14-14,15-13.29.83-10.71-9.38-9.46-12.86a1.68,1.68,0,0,1,1.6-1.12c5.73.09,31,.09,51.94-6.4.84-.26,1.69-.45,2.54-.67,1.32-.32,4.88-2.2,12.38-11.95,0,0-36,61-6,33s35-26,35-26-11,22,12,20,54-14,54-14,23-7,30-4c0,0-26-4-40,13-3.94,4.79-4,8.47-2,11.28,0,0,10,9.72,35-15.28a254.56,254.56,0,0,0,40-53s-35,72-30,81,35-32,35-32,12-15,32-3c0,0-22.41-13.07-32.94,5.89a3.25,3.25,0,0,0,1.29,4.42c3.59,1.94,12.3,2.85,32.65-8.31,0,0-2,13,14,13s92-44,93-57-13-12-33,3-39,83-39,83-10,42,28,25,94-62,94-68" transform="translate(-179 -334.11)"/><ellipse id="part-1" cx="208" cy="158.89" rx="8" ry="5"/><ellipse id="part-2" cx="617" cy="158.89" rx="8" ry="5"/></g></svg>