<svg version="1.1" id="unacademy_logo" xmlns="http://www.w3.org/2000/svg" viewBox="-5 -5 280 230">
    <style>
        @import url(style.css);
    </style>
    <title>Unacademy Logo</title>
    <g>
        <path d="M163.66,213.42c10,62,65.67,109.44,132.25,109.44,65.67,0,121.3-46.51,132.25-107.62,1.82-5.47,1.82-10,1.82-14.59a8.18,8.18,0,0,0-8.21-8.21H170.05c-4.56.91-8.21,4.56-8.21,9.12h0c0,3.65,0,7.3,1.82,11.86Z" transform="translate(-161.84 -192.44)" />
        <path d="M361.58,402.21a66.66,66.66,0,0,0-65.67-54.72c-32.83,0-60.19,22.8-65.67,53.81a22.73,22.73,0,0,0-.91,7.3,3.92,3.92,0,0,0,3.65,3.64h125a3.34,3.34,0,0,0,3.65-3.64h0Z" transform="translate(-161.84 -192.44)" />
    </g>
</svg>