<svg xmlns="http://www.w3.org/2000/svg" viewBox="0 0 234.21 702.64"><defs><style>.a{fill:#2192FF;}.b{fill:#fff;opacity:0.2;}</style></defs><title>pixel</title><rect class="a" y="683.11" width="19.53" height="19.53"/><rect class="a" y="663.57" width="19.53" height="19.53"/><rect class="a" y="644.04" width="19.53" height="19.53"/><rect class="a" y="624.51" width="19.53" height="19.53"/><rect class="a" y="604.98" width="19.53" height="19.53"/><rect class="a" y="585.45" width="19.53" height="19.53"/><rect class="a" y="565.91" width="19.53" height="19.53"/><rect class="a" y="546.38" width="19.53" height="19.53"/><rect class="a" y="526.85" width="19.53" height="19.53"/><rect class="a" y="507.32" width="19.53" height="19.53"/><rect class="a" y="487.79" width="19.53" height="19.53"/><rect class="a" y="468.26" width="19.53" height="19.53"/><rect class="a" y="448.72" width="19.53" height="19.53"/><rect class="a" y="429.19" width="19.53" height="19.53"/><rect class="a" x="19.53" y="683.11" width="19.53" height="19.53"/><rect class="a" x="19.53" y="663.57" width="19.53" height="19.53"/><rect class="a" x="19.53" y="644.04" width="19.53" height="19.53"/><rect class="a" x="19.53" y="624.51" width="19.53" height="19.53"/><rect class="a" x="19.53" y="604.98" width="19.53" height="19.53"/><rect class="a" x="19.53" y="585.45" width="19.53" height="19.53"/><rect class="a" x="19.53" y="565.91" width="19.53" height="19.53"/><rect class="a" x="19.53" y="546.38" width="19.53" height="19.53"/><rect class="a" x="19.53" y="526.85" width="19.53" height="19.53"/><rect class="a" x="19.53" y="507.32" width="19.53" height="19.53"/><rect class="a" x="19.53" y="468.26" width="19.53" height="19.53"/><rect class="a" x="19.53" y="448.72" width="19.53" height="19.53"/><rect class="a" x="19.53" y="429.19" width="19.53" height="19.53"/><rect class="a" y="390.13" width="19.53" height="19.53"/><rect class="a" x="19.53" y="390.13" width="19.53" height="19.53"/><rect class="a" y="351.06" width="19.53" height="19.53"/><rect class="a" y="370.69" width="19.53" height="19.53"/><rect class="a" x="19.53" y="370.6" width="19.53" height="19.53"/><rect class="a" y="312.35" width="19.53" height="19.44"/><rect class="a" y="273.29" width="19.53" height="19.44"/><rect class="a" y="234.22" width="19.53" height="19.53"/><rect class="a" y="195.16" width="19.53" height="19.44"/><rect class="a" y="156.1" width="19.53" height="19.44"/><rect class="a" y="117.03" width="19.53" height="19.44"/><rect class="a" x="19.53" y="312.26" width="19.53" height="19.53"/><rect class="a" x="19.53" y="292.72" width="19.53" height="19.53"/><rect class="a" x="58.6" y="370.6" width="19.53" height="19.53"/><rect class="a" x="58.6" y="351.06" width="19.53" height="19.53"/><rect class="a" x="58.21" y="292.94" width="19.79" height="19.6"/><rect class="a" x="58.6" y="214.91" width="19.53" height="19.53"/><rect class="a" x="39.06" y="331.79" width="19.53" height="19.28"/><rect class="a" x="38.68" y="253.96" width="19.53" height="19.28"/><rect class="a" x="39.06" y="683.11" width="19.53" height="19.53"/><rect class="a" x="39.06" y="663.57" width="19.53" height="19.53"/><rect class="a" x="39.06" y="644.04" width="19.53" height="19.53"/><rect class="a" x="39.06" y="624.51" width="19.53" height="19.53"/><rect class="a" x="39.06" y="604.98" width="19.53" height="19.53"/><rect class="a" x="58.6" y="683.11" width="19.53" height="19.53"/><rect class="a" x="58.6" y="663.57" width="19.53" height="19.53"/><rect class="a" x="58.6" y="644.04" width="19.53" height="19.53"/><rect class="a" x="58.6" y="624.51" width="19.53" height="19.53"/><rect class="a" x="58.6" y="604.98" width="19.53" height="19.53"/><rect class="a" x="78.13" y="683.11" width="19.53" height="19.53"/><rect class="a" x="78.13" y="663.57" width="19.53" height="19.53"/><rect class="a" x="78.13" y="644.04" width="19.53" height="19.53"/><rect class="a" x="78.13" y="624.51" width="19.53" height="19.53"/><rect class="a" x="78.13" y="604.98" width="19.53" height="19.53"/><rect class="a" x="97.66" y="683.11" width="19.53" height="19.53"/><rect class="a" x="97.66" y="663.57" width="19.53" height="19.53"/><rect class="a" x="97.66" y="644.04" width="19.53" height="19.53"/><rect class="a" x="97.66" y="624.51" width="19.53" height="19.53"/><rect class="a" x="117.11" y="683.11" width="19.53" height="19.53"/><rect class="a" x="117.11" y="663.57" width="19.53" height="19.53"/><rect class="a" x="117.11" y="644.04" width="19.53" height="19.53"/><rect class="a" x="117.11" y="624.51" width="19.53" height="19.53"/><rect class="a" x="136.55" y="683.11" width="19.53" height="19.53"/><rect class="a" x="136.55" y="663.57" width="19.53" height="19.53"/><rect class="a" x="136.55" y="644.04" width="19.53" height="19.53"/><rect class="a" x="136.55" y="624.51" width="19.53" height="19.53"/><rect class="a" x="156" y="683.11" width="19.53" height="19.53"/><rect class="a" x="156" y="663.57" width="19.53" height="19.53"/><rect class="a" x="156" y="644.04" width="19.53" height="19.53"/><rect class="a" x="156" y="624.51" width="19.53" height="19.53"/><rect class="a" x="175.45" y="683.11" width="19.53" height="19.53"/><rect class="a" x="175.45" y="663.57" width="19.53" height="19.53"/><rect class="a" x="175.45" y="644.04" width="19.53" height="19.53"/><rect class="a" x="175.45" y="624.51" width="19.53" height="19.53"/><rect class="a" x="194.89" y="683.11" width="19.53" height="19.53"/><rect class="a" x="194.89" y="663.57" width="19.53" height="19.53"/><rect class="a" x="194.89" y="644.04" width="19.53" height="19.53"/><rect class="a" x="194.89" y="624.51" width="19.53" height="19.53"/><rect class="a" x="214.34" y="683.11" width="19.87" height="19.53"/><rect class="a" x="214.34" y="663.57" width="19.87" height="19.53"/><rect class="a" x="214.34" y="644.04" width="19.87" height="19.53"/><rect class="a" x="214.34" y="624.51" width="19.87" height="19.53"/><rect class="a" x="97.66" y="604.98" width="19.53" height="19.53"/><rect class="a" x="58.6" y="585.45" width="19.53" height="19.53"/><rect class="a" x="78.13" y="585.45" width="19.53" height="19.53"/><rect class="a" x="58.6" y="565.91" width="19.53" height="19.53"/><rect class="a" x="78.13" y="565.91" width="19.53" height="19.53"/><rect class="a" x="78.13" y="546.38" width="19.53" height="19.53"/><rect class="a" x="97.66" y="585.45" width="19.53" height="19.53"/><rect class="a" x="136.55" y="604.98" width="19.53" height="19.53"/><rect class="a" x="156" y="604.98" width="19.53" height="19.53"/><rect class="a" x="136.55" y="585.45" width="19.53" height="19.53"/><rect class="a" x="117.11" y="585.45" width="19.53" height="19.53"/><rect class="a" x="156" y="585.45" width="19.53" height="19.53"/><rect class="a" x="136.55" y="565.91" width="19.53" height="19.53"/><rect class="a" x="117.11" y="565.91" width="19.53" height="19.53"/><rect class="a" x="156" y="565.91" width="19.53" height="19.53"/><rect class="a" x="136.55" y="546.38" width="19.53" height="19.53"/><rect class="a" x="117.11" y="546.38" width="19.53" height="19.53"/><rect class="a" x="97.53" y="546.38" width="19.53" height="19.53"/><rect class="a" x="97.53" y="526.85" width="19.53" height="19.53"/><rect class="a" x="58.53" y="526.85" width="19.53" height="19.53"/><rect class="a" x="58.53" y="487.79" width="19.53" height="19.53"/><rect class="a" x="58.53" y="448.72" width="19.53" height="19.53"/><rect class="a" x="58.53" y="429.19" width="19.53" height="19.53"/><rect class="a" x="58.53" y="409.66" width="19.53" height="19.53"/><rect class="a" x="39.06" y="409.66" width="19.53" height="19.53"/><rect class="a" x="58.53" y="507.32" width="19.53" height="19.53"/><rect class="a" x="78" y="507.32" width="19.53" height="19.53"/><rect class="a" x="97.47" y="507.32" width="19.53" height="19.53"/><rect class="a" x="116.94" y="507.32" width="19.53" height="19.53"/><rect class="a" x="116.94" y="487.79" width="19.53" height="19.53"/><rect class="a" x="116.94" y="468.26" width="19.53" height="19.53"/><rect class="a" x="97.47" y="468.26" width="19.53" height="19.53"/><rect class="a" x="97.47" y="448.72" width="19.53" height="19.53"/><rect class="a" x="97.47" y="429.19" width="19.53" height="19.53"/><rect class="a" x="116.94" y="429.19" width="19.53" height="19.53"/><rect class="a" x="78" y="468.26" width="19.53" height="19.53"/><rect class="a" x="39.06" y="487.79" width="19.53" height="19.53"/><rect class="a" x="156" y="546.38" width="19.53" height="19.53"/><rect class="a" x="136.55" y="526.85" width="19.53" height="19.53"/><rect class="a" x="156" y="526.85" width="19.53" height="19.53"/><rect class="a" x="156" y="507.32" width="19.53" height="19.53"/><rect class="a" x="156" y="487.79" width="19.53" height="19.53"/><rect class="a" x="156" y="429.19" width="19.53" height="19.53"/><rect class="a" x="136.55" y="487.79" width="19.53" height="19.53"/><rect class="a" x="175.45" y="487.79" width="19.53" height="19.53"/><rect class="a" x="136.55" y="468.26" width="19.53" height="19.53"/><rect class="a" x="175.45" y="468.26" width="19.53" height="19.53"/><rect class="a" x="136.55" y="448.72" width="19.53" height="19.53"/><rect class="a" x="175.45" y="448.72" width="19.53" height="19.53"/><rect class="a" x="175.45" y="409.66" width="19.53" height="19.53"/><rect class="a" x="175.45" y="390.06" width="19.53" height="19.66"/><rect class="a" x="175.45" y="370.85" width="19.53" height="19.21"/><rect class="a" x="214.34" y="312.12" width="19.53" height="19.66"/><rect class="a" x="214.34" y="292.9" width="19.53" height="19.21"/><rect class="a" x="214.34" y="233.74" width="19.53" height="19.66"/><rect class="a" x="214.34" y="214.53" width="19.53" height="19.21"/><rect class="a" x="214.34" y="155.37" width="19.53" height="19.66"/><rect class="a" x="214.34" y="136.16" width="19.53" height="19.21"/><rect class="a" x="175.45" y="312.12" width="19.53" height="19.66"/><rect class="a" x="175.45" y="292.9" width="19.53" height="19.21"/><rect class="a" x="136.55" y="312.12" width="19.53" height="19.66"/><rect class="a" x="136.55" y="292.9" width="19.53" height="19.21"/><rect class="a" x="136.55" y="233.97" width="19.53" height="19.66"/><rect class="a" x="136.55" y="214.76" width="19.53" height="19.21"/><rect class="a" x="136.55" y="156.14" width="19.53" height="19.39"/><rect class="a" x="136.55" y="136.61" width="19.53" height="19.53"/><rect class="a" x="136.55" y="389.91" width="19.45" height="19.66"/><rect class="a" x="136.55" y="370.7" width="19.53" height="19.21"/><rect class="a" x="97.66" y="390.06" width="19.53" height="19.66"/><rect class="a" x="78" y="390.06" width="19.66" height="19.66"/><rect class="a" x="97.66" y="273.36" width="19.53" height="19.26"/><rect class="a" x="97.53" y="234.19" width="19.66" height="19.26"/><rect class="a" x="78" y="234.19" width="19.53" height="19.26"/><rect class="a" x="78" y="156.3" width="19.53" height="19.26"/><rect class="a" x="78" y="78.4" width="19.53" height="19.26"/><rect class="a" x="97.66" y="312.53" width="19.53" height="19.26"/><rect class="a" x="78" y="312.53" width="19.66" height="19.34"/><rect class="a" x="97.66" y="370.85" width="19.53" height="19.21"/><rect class="a" x="214.34" y="370.85" width="19.87" height="19.21"/><rect class="a" x="175.45" y="526.85" width="19.53" height="19.53"/><rect class="a" x="175.45" y="565.91" width="19.53" height="19.53"/><rect class="a" x="175.45" y="546.38" width="19.53" height="19.53"/><rect class="a" x="175.45" y="604.98" width="19.53" height="19.53"/><rect class="a" x="194.89" y="604.98" width="19.53" height="19.53"/><rect class="a" x="214.34" y="604.98" width="19.87" height="19.53"/><rect class="a" x="194.89" y="585.45" width="19.53" height="19.53"/><rect class="a" x="214.34" y="585.45" width="19.87" height="19.53"/><rect class="a" x="194.89" y="565.91" width="19.53" height="19.53"/><rect class="a" x="214.34" y="565.91" width="19.87" height="19.53"/><rect class="a" x="214.34" y="546.38" width="19.87" height="19.53"/><rect class="a" x="214.34" y="526.85" width="19.87" height="19.53"/><rect class="a" x="214.34" y="507.32" width="19.87" height="19.53"/><rect class="a" x="194.98" y="507.32" width="19.32" height="19.53"/><rect class="a" x="194.98" y="487.79" width="19.32" height="19.53"/><rect class="a" x="194.98" y="429.19" width="19.32" height="19.53"/><rect class="a" x="116.94" y="409.66" width="19.53" height="19.53"/><rect class="a" x="117.19" y="390.13" width="19.36" height="19.53"/><rect class="a" x="156" y="409.57" width="19.53" height="19.62"/><rect class="a" x="194.98" y="409.66" width="19.32" height="19.53"/><rect class="a" x="194.98" y="351.32" width="19.32" height="19.53"/><rect class="a" x="194.98" y="253.66" width="19.32" height="19.53"/><rect class="a" x="194.98" y="175.03" width="19.32" height="19.53"/><rect class="a" x="194.98" y="97.93" width="19.32" height="19.53"/><rect class="a" x="194.98" y="331.79" width="19.32" height="19.53"/><rect class="a" x="156.09" y="351.32" width="19.32" height="19.53"/><rect class="a" x="97.66" y="351.32" width="19.43" height="19.53"/><rect class="a" x="156.09" y="331.79" width="19.32" height="19.53"/><rect class="a" x="156.09" y="273.19" width="19.32" height="19.53"/><rect class="a" x="156.09" y="253.66" width="19.32" height="19.53"/><rect class="a" x="156.09" y="195.2" width="19.32" height="19.53"/><rect class="a" x="117.19" y="331.79" width="19.32" height="19.53"/><rect class="a" x="214.34" y="487.79" width="19.87" height="19.53"/><rect class="a" x="214.34" y="468.26" width="19.87" height="19.53"/><rect class="a" x="214.34" y="448.72" width="19.87" height="19.53"/><rect class="a" x="214.3" y="429.19" width="19.91" height="19.53"/><rect class="a" x="214.34" y="390.06" width="19.87" height="19.6"/><rect class="a" x="39.06" y="565.91" width="19.53" height="19.53"/><rect class="a" x="39.06" y="546.38" width="19.53" height="19.53"/><rect class="a" x="39.06" y="526.85" width="19.53" height="19.53"/><rect class="a" x="39.06" y="468.26" width="19.53" height="19.53"/><rect class="b" x="77.7" width="19.53" height="19.53"/><rect class="b" y="38.98" width="19.53" height="19.53"/><rect class="b" y="78.3" width="19.53" height="19.53"/><rect class="b" x="58.21" y="136.68" width="19.53" height="19.53"/><rect class="b" x="38.68" y="175.74" width="19.53" height="19.53"/><rect class="b" x="97.57" y="156.21" width="19.53" height="19.53"/><rect class="b" x="97.57" y="195.28" width="19.53" height="19.53"/><rect class="b" x="156.04" y="175.74" width="19.53" height="19.53"/><rect class="b" x="175.57" y="214.81" width="19.53" height="19.53"/><rect class="b" x="175.57" y="234.34" width="19.53" height="19.53"/><rect class="b" x="117.11" y="253.87" width="19.53" height="19.53"/><rect class="b" x="58.21" y="273.4" width="19.79" height="19.53"/><rect class="b" y="292.94" width="19.53" height="19.53"/><rect class="b" x="58.6" y="331.79" width="19.4" height="19.28"/><rect class="b" x="19.53" y="351.32" width="19.53" height="19.53"/><rect class="b" x="38.68" y="390.36" width="19.53" height="19.53"/><rect class="b" x="116.94" y="351.32" width="19.53" height="19.53"/><rect class="b" x="116.94" y="312.18" width="19.53" height="19.53"/><rect class="b" x="175.45" y="331.79" width="19.53" height="19.53"/><rect class="b" x="214.34" y="351.32" width="19.53" height="19.53"/><rect class="b" x="214.34" y="409.66" width="19.87" height="19.53"/><rect class="b" x="136.47" y="409.57" width="19.53" height="19.62"/><rect class="b" x="78.04" y="429.19" width="19.43" height="19.53"/><rect class="b" x="39.06" y="448.79" width="19.47" height="19.47"/><rect class="b" x="19.53" y="487.79" width="19.53" height="19.53"/><rect class="b" x="78" y="487.79" width="19.53" height="19.53"/><rect class="b" x="194.87" y="273.4" width="19.53" height="19.53"/><rect class="b" y="409.96" width="19.53" height="19.23"/><rect class="b" x="97.57" y="292.94" width="19.53" height="19.53"/><rect class="b" x="19.53" y="234.34" width="19.15" height="19.53"/><rect class="b" x="19.53" y="214.81" width="19.15" height="19.53"/><rect class="b" x="136.51" y="78.3" width="19.53" height="19.53"/><rect class="b" x="156.04" y="117.15" width="19.53" height="19.53"/><rect class="b" x="136.51" y="58.77" width="19.53" height="19.53"/></svg>