<svg version="1.1" id="playstation_logo" xmlns="http://www.w3.org/2000/svg" viewBox="2.5 7.5 45 35">
    <style>
        @import url(style.css);
    </style>
    <title>PlayStation Logo</title>
    <g>
        <path d="M5.8,32.1C4.3,33.1,4.8,35,8,35.9c3.3,1.1,6.9,1.4,10.4,0.8c0.2,0,0.4-0.1,0.5-0.1v-3.4l-3.4,1.1c-1.3,0.4-2.6,0.5-3.9,0.2c-1-0.3-0.8-0.9,0.4-1.4l6.9-2.4V27l-9.6,3.3C8.1,30.7,6.9,31.3,5.8,32.1zM29,17.1v9.7c4.1,2,7.3,0,7.3-5.2c0-5.3-1.9-7.7-7.4-9.6C26,11,23,10.1,20,9.5v28.9l7,2.1V16.2c0-1.1,0-1.9,0.8-1.6C28.9,14.9,29,16,29,17.1zM42,29.8c-2.9-1-6-1.4-9-1.1c-1.6,0.1-3.1,0.5-4.5,1l-0.3,0.1v3.9l6.5-2.4c1.3-0.4,2.6-0.5,3.9-0.2c1,0.3,0.8,0.9-0.4,1.4l-10,3.7V40L42,34.9c1-0.4,1.9-0.9,2.7-1.7C45.4,32.2,45.1,30.8,42,29.8z" />
    </g>
</svg>