<svg version="1.1" id="google_logo" xmlns="http://www.w3.org/2000/svg" viewBox="-5 -5 520 520">
    <style>
        @import url(style.css);
    </style>
    <title>Google Logo</title>
    <g>
        <path class="red" d="M419.4,58.94l-82.93,67.89A152.23,152.23,0,0,0,112,206.54l-83.4-68.27h0A256,256,0,0,1,419.4,58.94Z" />
        <path class="blue" d="M507.53,208.18a255.93,255.93,0,0,1-91.26,247.46l0,0-83.38-68.26a152.55,152.55,0,0,0,65.65-77.91H261.63V208.18h245.9Z" />
        <path class="green" d="M416.25,455.62l0,0A256.09,256.09,0,0,1,30.51,377.32l83-67.91a152.25,152.25,0,0,0,219.4,77.95Z" />
        <path class="yellow" d="M113.47,309.41l-83,67.91a256.46,256.46,0,0,1-1.89-239h0L112,206.54a152.85,152.85,0,0,0,1.44,102.87Z" />
    </g>
</svg>