<svg height="512" viewBox="0 0 512 512" width="512" xmlns="http://www.w3.org/2000/svg"><g id="filled_outline" data-name="filled outline"><path d="m417.306 275.706a69.107 69.107 0 0 0 -20.766-.662c-25.8 2.72-53.325-11.406-68.534-37.748-15.184-26.3-13.686-57.139 1.5-78.121a70.084 70.084 0 0 0 9.873-18.467 87.668 87.668 0 0 0 4.62-27.58c.314-47.567-39.331-88-86.895-88.584a88.022 88.022 0 0 0 -84.294 116.711 69.269 69.269 0 0 0 9.664 17.867c15.216 20.984 16.728 51.849 1.533 78.167-15.207 26.335-42.717 40.46-68.507 37.751a69.272 69.272 0 0 0 -20.786.663 88.023 88.023 0 0 0 -70.662 89.212c1.516 46.933 40.332 84.736 87.289 85.083a87.773 87.773 0 0 0 66.3-29.39 69.085 69.085 0 0 0 11.4-18.11c10.531-23.715 36.532-40.498 66.959-40.498s56.428 16.783 66.967 40.5a69.085 69.085 0 0 0 11.4 18.11 87.773 87.773 0 0 0 66.3 29.39c46.952-.347 85.767-38.143 87.289-85.072a88.025 88.025 0 0 0 -70.65-89.222zm-305.306 110.294a24 24 0 1 1 24-24 24 24 0 0 1 -24 24zm144-249.463a24 24 0 1 1 24-24 24 24 0 0 1 -24 24zm144 249.463a24 24 0 1 1 24-24 24 24 0 0 1 -24 24z" fill="#ff2b63"/><g fill="#e5235f"><path d="m329.505 141.175c-9.628 13.3-13.744 30.571-11.6 48.131a64.994 64.994 0 0 1 11.6-30.131 70.084 70.084 0 0 0 9.873-18.467 87.668 87.668 0 0 0 4.62-27.58 84.861 84.861 0 0 0 -.479-9.522 87.423 87.423 0 0 1 -4.141 19.1 70.084 70.084 0 0 1 -9.873 18.469z"/><path d="m256 70.537a24 24 0 0 0 -22.249 33 24 24 0 0 1 44.5 0 24 24 0 0 0 -22.249-33z"/><path d="m400 320a24 24 0 0 0 -22.249 33 24 24 0 0 1 44.5 0 24 24 0 0 0 -22.251-33z"/><path d="m182.473 159.122a64.98 64.98 0 0 1 11.637 30.178c2.143-17.58-1.985-34.867-11.637-48.178a69.269 69.269 0 0 1 -9.664-17.867 87.378 87.378 0 0 1 -4.344-19.817 89.1 89.1 0 0 0 -.465 9.1 87.677 87.677 0 0 0 4.809 28.718 69.269 69.269 0 0 0 9.664 17.866z"/><path d="m400.664 432a87.773 87.773 0 0 1 -66.3-29.39 69.085 69.085 0 0 1 -11.4-18.11c-10.536-23.717-36.537-40.5-66.964-40.5s-56.428 16.783-66.967 40.5a69.085 69.085 0 0 1 -11.4 18.11 87.773 87.773 0 0 1 -66.3 29.39c-44.946-.332-82.409-34.988-86.867-79.113a89.3 89.3 0 0 0 -.422 12.03c1.516 46.933 40.332 84.736 87.289 85.083a87.773 87.773 0 0 0 66.3-29.39 69.085 69.085 0 0 0 11.4-18.11c10.539-23.717 36.54-40.5 66.967-40.5s56.428 16.783 66.967 40.5a69.085 69.085 0 0 0 11.4 18.11 87.773 87.773 0 0 0 66.3 29.39c46.952-.347 85.767-38.143 87.289-85.072a89.311 89.311 0 0 0 -.422-12.042c-4.461 44.124-41.924 78.78-86.87 79.114z"/><path d="m112 320a24 24 0 0 0 -22.249 33 24 24 0 0 1 44.5 0 24 24 0 0 0 -22.251-33z"/><circle cx="256.004" cy="278.862" r="48"/></g><path d="m112 304a56 56 0 1 0 56 56 56 56 0 0 0 -56-56zm0 82a24 24 0 1 1 24-24 24 24 0 0 1 -24 24z" fill="#691daf"/><path d="m400 306a56 56 0 1 0 56 56 56 56 0 0 0 -56-56zm0 80a24 24 0 1 1 24-24 24 24 0 0 1 -24 24z" fill="#691daf"/><path d="m256 56.537a56 56 0 1 0 56 56 56 56 0 0 0 -56-56zm0 80a24 24 0 1 1 24-24 24 24 0 0 1 -24 24z" fill="#691daf"/><path d="m294.713 250.487a103.722 103.722 0 0 1 -75.683 58.983 48 48 0 0 0 75.683-58.983z" fill="#e00554"/><path d="m256 222.861a56 56 0 1 0 56 56 56.063 56.063 0 0 0 -56-56zm0 96a40 40 0 1 1 40-40 40.045 40.045 0 0 1 -40 40z"/><path d="m112 330a32 32 0 1 0 32 32 32.036 32.036 0 0 0 -32-32zm0 48a16 16 0 1 1 16-16 16.019 16.019 0 0 1 -16 16z"/><path d="m112 298a64 64 0 1 0 64 64 64.072 64.072 0 0 0 -64-64zm0 112a48 48 0 1 1 48-48 48.054 48.054 0 0 1 -48 48z"/><path d="m400 330a32 32 0 1 0 32 32 32.036 32.036 0 0 0 -32-32zm0 48a16 16 0 1 1 16-16 16.019 16.019 0 0 1 -16 16z"/><path d="m464 362a64 64 0 1 0 -64 64 64.072 64.072 0 0 0 64-64zm-64 48a48 48 0 1 1 48-48 48.054 48.054 0 0 1 -48 48z"/><path d="m256 144.537a32 32 0 1 0 -32-32 32.036 32.036 0 0 0 32 32zm0-48a16 16 0 1 1 -16 16 16.019 16.019 0 0 1 16-16z"/><path d="m256 176.537a64 64 0 1 0 -64-64 64.072 64.072 0 0 0 64 64zm0-112a48 48 0 1 1 -48 48 48.054 48.054 0 0 1 48-48z"/><path d="m400.723 458a96.008 96.008 0 0 0 18.147-190.14 76.363 76.363 0 0 0 -23.169-.772c-23.626 2.5-47.477-10.775-60.767-33.792-13.262-22.97-12.849-50.223 1.052-69.432a77.323 77.323 0 0 0 10.969-20.591 95.622 95.622 0 0 0 5.045-30.092c.166-25.135-9.7-49.13-27.782-67.566s-41.886-28.762-67.018-29.07a96.02 96.02 0 0 0 -91.951 127.325 76.661 76.661 0 0 0 10.751 19.948c13.93 19.211 14.355 46.48 1.081 69.471-13.285 23.01-37.129 36.276-60.747 33.8a76.475 76.475 0 0 0 -23.185.773 96.005 96.005 0 1 0 90.451 158.076 77.309 77.309 0 0 0 12.741-20.191c9.505-21.382 33.479-35.747 59.659-35.747s50.154 14.365 59.656 35.747a77.309 77.309 0 0 0 12.744 20.191 96.061 96.061 0 0 0 71.611 32.062zm-60.394-42.72a61.348 61.348 0 0 1 -10.052-16.028c-12.215-27.49-41.371-45.252-74.277-45.252s-62.062 17.762-74.277 45.249a61.348 61.348 0 0 1 -10.052 16.028 80.054 80.054 0 0 1 -59.683 26.723c-.2 0-.4 0-.593 0a80.006 80.006 0 0 1 -15.122-158.451 60.814 60.814 0 0 1 18.387-.549c29.885 3.14 59.834-13.231 76.274-41.707 16.426-28.452 15.648-62.548-1.984-86.863a61.022 61.022 0 0 1 -8.58-15.786 80.009 80.009 0 0 1 76.63-106.101c43.1.527 79.279 37.407 78.994 80.532a79.646 79.646 0 0 1 -4.2 25.068 61.666 61.666 0 0 1 -8.776 16.341c-17.593 24.312-18.357 58.387-1.946 86.812 16.446 28.486 46.4 44.846 76.3 41.7a60.582 60.582 0 0 1 18.363.552 80.024 80.024 0 0 1 -15.13 158.452c-.2 0-.4 0-.593 0a80.059 80.059 0 0 1 -59.683-26.723z"/><path d="m47.5 260.616a8.1 8.1 0 0 0 1 .063 8 8 0 0 0 7.929-7.01 198.875 198.875 0 0 1 25.817-76.169 201.088 201.088 0 0 1 52.214-58.9 8 8 0 1 0 -9.678-12.741 216.994 216.994 0 0 0 -56.347 63.558 214.794 214.794 0 0 0 -27.879 82.268 8 8 0 0 0 6.944 8.931z"/><path d="m441.423 181.718a8 8 0 0 0 2.948-10.923 216.868 216.868 0 0 0 -57.108-64.9 8 8 0 1 0 -9.68 12.738 200.979 200.979 0 0 1 52.917 60.137 8 8 0 0 0 10.923 2.948z"/><path d="m455.581 253.714a8 8 0 0 0 15.877-1.981 216.246 216.246 0 0 0 -11.18-46.647 8 8 0 1 0 -15.048 5.436 200.251 200.251 0 0 1 10.351 43.192z"/><path d="m234.619 494.959c7.061.69 14.256 1.041 21.381 1.041a215.792 215.792 0 0 0 84.2-16.934 8 8 0 1 0 -6.209-14.746 199.876 199.876 0 0 1 -77.991 15.68c-6.611 0-13.281-.324-19.827-.965a8 8 0 1 0 -1.558 15.924z"/><path d="m177.975 464.3a8 8 0 1 0 -6.212 14.744 216.339 216.339 0 0 0 24.453 8.612 8 8 0 1 0 4.4-15.383 200.558 200.558 0 0 1 -22.641-7.973z"/><path d="m99.874 179.34a183.714 183.714 0 0 0 -24.674 59.586 8 8 0 1 0 15.627 3.437 167.74 167.74 0 0 1 22.533-54.412 8 8 0 0 0 -13.485-8.611z"/><path d="m131.035 142.271c-3.022 2.766-5.99 5.67-8.822 8.63a8 8 0 1 0 11.561 11.061c2.589-2.707 5.3-5.36 8.064-7.89a8 8 0 1 0 -10.8-11.8z"/><path d="m380.978 142.276a8 8 0 1 0 -10.8 11.8 168.121 168.121 0 0 1 51.01 88.293 8 8 0 1 0 15.627-3.435 184.034 184.034 0 0 0 -55.837-96.658z"/><path d="m311.817 455.429a8 8 0 0 0 -4.817-15.258 170 170 0 0 1 -102 0 8 8 0 0 0 -4.818 15.258 186.01 186.01 0 0 0 111.633 0z"/></g></svg>