<svg version="1.1" id="edc_logo" xmlns="http://www.w3.org/2000/svg" viewBox="-10 -10 450 450">
    <style>
        @import url(style.css);
    </style>
    <title>EDC Logo</title>
    <g>
        <circle class="bg" cx="215" cy="215" r="215" />
        <path class="shadow" d="M343.76,611.12,192.49,524.43c-63.72-44.77-73.16-81.76-63.66-135.74.17-1,.36-2,.55-3C145,305.7,230.55,273,275.15,265.53c0,0,37.79,26.26,88.11,17.68l147.83,89.56s2.34,13.47,1.82,34.55C511.57,461.7,478.51,579.4,343.76,611.12Z" transform="translate(-83 -186)" />

        <g class="text">
            <g id="E">
                <path d="M211.83,286.81S111.23,328.68,127.57,441s149.62,97,149.62,97,73.53-17.36,94-67.4l-4.6-8.68S336.77,505.53,266,504.87V386.38h68.42l18.9-34.72H306.81l60.76-62.81-4-5.79s-45,9.37-86.8-17.95l-79.92,67.83-1.7,113.7-12.6,14.64s-49.7-55.83-9.19-124.6c10.46-17.75,25.92-31.1,43.12-41.15Z" transform="translate(-83 -186)" />
                <path d="M188,468.43s16.34,26.89,65.7,34.38V299.23L235,315.57l-1.36,105.88S211.83,450.38,188,468.43Z" transform="translate(-83 -186)" />
                <path d="M266,377.53,323.49,318s-34.72-2.39-57.53-18.73Z" transform="translate(-83 -186)" />
            </g>

            <g id="C">
                <polygon points="286.96 292.64 309.25 282.08 328.83 305.23 300.06 324.3 300.06 334.85 313.34 341.32 318.45 339.11 319.98 342.68 305.85 352.75 281.85 343.02 281.85 340.55 286.75 337.49 286.96 292.64" />
                <polygon points="300.28 291.28 314.32 307.11 300.28 317.42 300.28 291.28" />
            </g>

            <g id="L1">
                <path d="M416.77,520.51V456.85l-3.07-7.45a.59.59,0,0,1,.75-.78l6.4,2.27,15.17-7.2a.6.6,0,0,1,.78.83l-5.57,10v66l7.58,7.27a1.29,1.29,0,0,1,0,1.83l-6.6,6.73a1.67,1.67,0,0,1-1.21.51h-5a1.69,1.69,0,0,1-1-.32l-12.27-8.9a1.07,1.07,0,0,1-.23-1.53Z" transform="translate(-83 -186)" />
            </g>

            <g id="L2">
                <path d="M446.89,519.51V455.85l-3.06-7.45a.59.59,0,0,1,.74-.78l6.41,2.27,15.17-7.2a.59.59,0,0,1,.77.83l-5.56,10v66l7.58,7.27a1.29,1.29,0,0,1,0,1.83l-6.59,6.73a1.67,1.67,0,0,1-1.21.51h-5a1.69,1.69,0,0,1-1-.32l-12.28-8.9a1.08,1.08,0,0,1-.22-1.53Z" transform="translate(-83 -186)" />
            </g>
        </g>
    </g>
</svg>