<svg version="1.1" id="intel_logo" xmlns="http://www.w3.org/2000/svg" viewBox="0 0 395 156">
    <style>
        @import url(style.css);
    </style>
    <title>Intel Logo</title>
    <g>
        <rect class="dot" x="4.7" y="5.2" width="28.1" height="28.1" />
        <path class="text" d="M32.1,151.6V50.3H5.4V151.5H32.1Zm176.8,1V127.8a61.85,61.85,0,0,1-9.6-.6,10.87,10.87,0,0,1-6.3-2.8,11.21,11.21,0,0,1-2.8-6.1,64.72,64.72,0,0,1-.6-9.8V73.2h19.3V50.3H189.6V10.9H162.9v97.9a88,88,0,0,0,2.1,20.9,29.23,29.23,0,0,0,7.1,13.4,28.56,28.56,0,0,0,13,7.3c5.4,1.5,12.2,2.2,20.3,2.2Zm152.8-1V3.1H335V151.6ZM137.2,60.3c-7.4-8-17.8-12-31-12a38.79,38.79,0,0,0-17.5,3.9A37.78,37.78,0,0,0,75.4,63L74,64.9V50.3H47.7V151.5H74.2v-52c.3-9.5,2.6-16.5,7-21a22.92,22.92,0,0,1,16.9-7.2c7.7,0,13.6,2.4,17.5,7s5.8,11.1,5.8,19.4h0V98h0v53.5h26.9V94.1C148.4,79.7,144.6,68.3,137.2,60.3Zm184,40.5a55.74,55.74,0,0,0-3.8-20.5,54.88,54.88,0,0,0-10.7-16.7,48.74,48.74,0,0,0-16.5-11.2,54.11,54.11,0,0,0-21.2-4,52.6,52.6,0,0,0-20.6,4.1,53.84,53.84,0,0,0-16.7,11.2,52.16,52.16,0,0,0-11.2,16.7,50.87,50.87,0,0,0-4.1,20.6,54.33,54.33,0,0,0,3.9,20.6,51.39,51.39,0,0,0,10.9,16.7,49.93,49.93,0,0,0,16.9,11.2,55.23,55.23,0,0,0,21.7,4.2c22.6,0,36.6-10.3,45-19.9l-19.2-14.6c-4,4.8-13.6,11.3-25.6,11.3-7.5,0-13.7-1.7-18.4-5.2a25.68,25.68,0,0,1-9.6-14.1l-.3-.9h79.5v-9.5Zm-79.3-9.3c0-7.4,8.5-20.3,26.8-20.4S295.6,84,295.6,91.4Z" />
        <path class="mark" d="M392.1,138.8a9.91,9.91,0,0,0-5.2-5.2,10,10,0,0,0-3.8-.8,9.57,9.57,0,0,0-3.8.8,9.91,9.91,0,0,0-5.2,5.2,10,10,0,0,0-.8,3.8,9.57,9.57,0,0,0,.8,3.8,9.91,9.91,0,0,0,5.2,5.2,10,10,0,0,0,3.8.8,9.57,9.57,0,0,0,3.8-.8,9.91,9.91,0,0,0,5.2-5.2,9.42,9.42,0,0,0,0-7.6Zm-1.6,7a7.58,7.58,0,0,1-4.3,4.3,8.29,8.29,0,0,1-3.2.6,8.66,8.66,0,0,1-3.2-.6,7.58,7.58,0,0,1-4.3-4.3,8.29,8.29,0,0,1-.6-3.2,8.66,8.66,0,0,1,.6-3.2,7.58,7.58,0,0,1,4.3-4.3,8.29,8.29,0,0,1,3.2-.6,8.66,8.66,0,0,1,3.2.6,7.58,7.58,0,0,1,4.3,4.3,8.83,8.83,0,0,1,0,6.4Zm-5.6-2.3a3.1,3.1,0,0,0,1.9-.9,3,3,0,0,0,.8-2.2,3,3,0,0,0-1-2.5,4.3,4.3,0,0,0-3-.9h-4.4v11.3h2.1v-4.6h1.5l2.8,4.6h2.2Zm-1.1-1.7h-2.5v-3.2h2.5a2.92,2.92,0,0,1,.9.2,1,1,0,0,1,.6.5c.2.2.2.5.2.9a2,2,0,0,1-.2.9,2.65,2.65,0,0,1-.6.5A2.92,2.92,0,0,1,383.8,141.8Z" />
    </g>
</svg>