<svg xmlns="http://www.w3.org/2000/svg" id="Layer_1" data-name="Layer 1" viewBox="0 0 1702.37 422.5"><defs><style>.cls-1{fill:#ff954d}.cls-2{opacity:.6}.cls-3{fill:#fff}.cls-4{opacity:.3}.cls-5{fill:#390075}</style></defs><title>Bottom Bun</title><g id="Bottom_Bun"><path d="M2809,2646.46s99.12,155.11-10.3,276.11c-114.77,126.93-534.63,122.29-784.45,122.29s-669.69,4.64-784.46-122.29c-109.42-121-10.3-276.11-10.3-276.11" class="cls-1" transform="translate(-1163.08 -2638.04)"/><g class="cls-2"><path d="M1382.29,3001.13c-69.39-17.88-125.28-43.07-157.36-78.55-109.44-121-10.32-276.11-10.32-276.11l67.31,21.51s-99.12,155.13,10.29,276.12C1313.1,2967.17,1344.08,2985.91,1382.29,3001.13Z" class="cls-3" transform="translate(-1163.08 -2638.04)"/></g><g class="cls-4"><path d="M2764.48,2924.66c-114.76,126.93-534.63,122.28-784.42,122.28-240.29,0-637.86,4.3-770-108.31,178.13,52.65,462.11,50,649.94,50,249.83,0,669.7,4.65,784.46-122.28,67.24-74.36,55.74-161.63,36.85-217.83h93.49S2873.93,2803.64,2764.48,2924.66Z" class="cls-5" transform="translate(-1163.08 -2638.04)"/></g><path d="M2068.34,3060.52h-79.65c-260.73.29-654.88.39-770.49-127.45-116.08-128.37-12.93-293.37-11.87-295l26.36,16.84c-3.76,5.93-91.22,146.68,8.73,257.2,106.27,117.53,507.55,117.22,747.25,117.14h51.19c239.78.17,641,.39,747.26-117.14,100.25-110.86,9.65-255.75,8.72-257.2l26.37-16.84c1.05,1.65,104.2,166.65-11.88,295C2698.86,3056.33,2328.48,3060.52,2068.34,3060.52Z" class="cls-5" transform="translate(-1163.08 -2638.04)"/></g></svg>