<svg xmlns="http://www.w3.org/2000/svg" id="Layer_1" data-name="Layer 1" viewBox="0 0 3001.33 1839.16"><defs><style>.cls-1{fill:#b2b2b2}.cls-2{fill:#390075}.cls-3{opacity:.6}.cls-4{fill:#fff}.cls-5{fill:#4089ff}.cls-6{opacity:.3}.cls-7{fill:#4a2922}.cls-8{fill:#ff954d}.cls-9{fill:#848484}.cls-10{fill:#f9db03}.cls-11{fill:#c14d56}.cls-12{fill:#ff1a61}.cls-13{fill:#13e23a}.cls-14{fill:#ff5548}.cls-15{opacity:.7}.cls-16{fill:#000072}</style></defs><title>Burger</title><g id="Knife"><path d="M3119.16,2296.4s177.22-703.18,302.56-959.64c11.68-23.9,47-18.8,51.49,7.43,19.46,114.43,32.2,385.06-109.16,895.62-10.35,37.39-44.35,63-83.15,63.57-19.32.29-36,3.8-37.94,14.7Z" class="cls-1" transform="translate(-499.31 -1221.38)"/><path d="M3245,2320.91l-128.8-22.55.64-2.55c1.78-7,178.72-706.37,302.73-960.12a29.76,29.76,0,0,1,56.1,8.09c19.76,116.2,31.85,387.22-109.21,896.68-10.66,38.49-45,64.75-85.47,65.37-15.26.23-33.81,2.61-35.57,12.67Zm-122.77-26.46,119,20.83c3.38-9.17,16.7-14,39.67-14.35,38.28-.57,70.76-25.4,80.83-61.78,140.81-508.55,128.8-778.75,109.11-894.55a24.86,24.86,0,0,0-46.88-6.76C3303.91,1583.39,3134.07,2247.65,3122.18,2294.45Z" class="cls-2" transform="translate(-499.31 -1221.38)"/><g class="cls-3"><path d="M3463,1342.08c-125.33,256.44-302.56,959.62-302.56,959.62l83,14.55a14.17,14.17,0,0,0-.47,1.84l-123.8-21.67s177.19-703.22,302.52-959.66c9.9-20.26,36.81-19.67,47.49-3.09A28.12,28.12,0,0,0,3463,1342.08Z" class="cls-4" transform="translate(-499.31 -1221.38)"/></g><path d="M3283.43,2303.28c37.73-1.63,70.49-26.9,80.61-63.49,141.37-510.54,128.62-781.16,109.17-895.6-3.78-22.21-29.72-29.26-44.66-16.38,15.59,146,10.83,442.38-137.91,957.58A93.74,93.74,0,0,1,3283.43,2303.28Z" class="cls-4" transform="translate(-499.31 -1221.38)"/><path d="M3257.27,2323a4.32,4.32,0,0,0,1.1-2.23l-30.82-5.4c3.13-17.86,21-27.16,53.11-27.64,32.37-.49,59.82-21.43,68.31-52.11,140.13-506.08,128.32-774.1,108.82-888.82a11.66,11.66,0,0,0-22-3.18c-123.19,252.06-299.68,949.58-301.44,956.6l-30.35-7.65c7.25-28.78,179.05-707.7,303.67-962.69a43,43,0,0,1,81,11.68c19.94,117.28,32.23,390.48-109.51,902.41-12.05,43.5-52.34,74.36-98,75C3261.8,2319.32,3257.31,2323,3257.27,2323Z" class="cls-2" transform="translate(-499.31 -1221.38)"/><path d="M3253.7,2345.75c-5.44,21.59-14.47,57.5-25,99.58-17.79,71.31-39.86,160.42-56,227.73-7.82,32.67-9.15,57.54-7.67,78.51,3.21,46,19.72,73.11,9.27,121.69-14.7,68.49-91.25,92.27-152,52.22-75.61-49.91-41.3-177.43-27.3-225.39.9-3.13,2.23-7.59,3.87-13.22,14.28-48.77,54-184.27,83.16-283.7,11.62-39.7,21.59-73.7,27.58-94.08a22.28,22.28,0,0,1,26.71-15.37l101.16,25A22.28,22.28,0,0,1,3253.7,2345.75Z" class="cls-5" transform="translate(-499.31 -1221.38)"/><g class="cls-6"><path d="M3174.29,2873.26c-14.7,68.49-91.25,92.27-152,52.22-49.44-32.63-51.87-98.42-43.73-153.45,5.59,28,18.58,53.15,43.73,69.74,58.28,38.41,131.08,18.11,149.93-44C3176.84,2821.12,3180.79,2843,3174.29,2873.26Z" class="cls-2" transform="translate(-499.31 -1221.38)"/></g><path d="M3084.9,2960.6c-24.28,0-49.15-7.49-71.24-22.07-58.2-38.38-69.54-120.08-33.71-242.83,12-41.08,91.89-313.58,114.59-391a37.87,37.87,0,0,1,45.5-26.14l101.11,24.93a37.92,37.92,0,0,1,27.72,46.1c-15.9,63.15-55.62,221.43-81,327.14-13.12,54.68-6.92,85.49-.93,115.29,4.93,24.56,10,49.95,2.61,84.53-7.52,35.1-30.25,62.76-62.34,75.88A111.68,111.68,0,0,1,3084.9,2960.6Zm46-651.87a6.65,6.65,0,0,0-6.37,4.78c-22.7,77.4-102.59,349.88-114.58,391-31.53,108-24.5,178,20.9,207.94,26.73,17.63,58.32,21.75,84.51,11,22.7-9.28,38.18-28.27,43.59-53.47,6.06-28.23,2-48.42-2.7-71.8-6.35-31.58-13.55-67.38,1.18-128.76,25.4-105.87,65.16-264.29,81.07-327.48a6.66,6.66,0,0,0-4.87-8.08l-101.12-24.93A6.82,6.82,0,0,0,3130.93,2308.73Z" class="cls-2" transform="translate(-499.31 -1221.38)"/><circle cx="3170.38" cy="2376.52" r="20.15" class="cls-7" transform="translate(-1289.22 1031.68) rotate(-35.07)"/><path d="M3170.43,2399.12a22.79,22.79,0,0,1-3.94-.34h0a22.55,22.55,0,1,1,3.94.34Zm-.09-40.31a17.71,17.71,0,0,0-3,35.15h0a17.71,17.71,0,0,0,6.11-34.89A18.1,18.1,0,0,0,3170.34,2358.81Z" class="cls-2" transform="translate(-499.31 -1221.38)"/><path d="M3023.91,2520.29s-27.9,55.32-55.81,21.43-34.89-122.1-20.44-147.52c14-24.52,90.24-55,152.52-37.24S3023.91,2520.29,3023.91,2520.29Z" class="cls-8" transform="translate(-499.31 -1221.38)"/><g class="cls-6"><path d="M3023.89,2520.28s-27.88,55.31-55.77,21.43-34.9-122.08-20.46-147.5c2.5-4.38,7-9,13-13.38-.11,36.15,9.2,82.81,27.78,105.38,27.93,33.91,55.81-21.44,55.81-21.44s44.56-46.82,71.78-90.59C3121.68,2417.56,3023.89,2520.28,3023.89,2520.28Z" class="cls-2" transform="translate(-499.31 -1221.38)"/></g><path d="M2987.35,2568.35c-8.77,0-20.33-3.32-31.34-16.69-31.11-37.79-39.92-133.58-21.94-165.19s101.51-64.26,170.41-44.55c13.44,3.84,22.69,12.72,26,25,12.35,45.38-66.64,133.9-93.75,162.56-5.07,9.36-21.5,36-45.53,38.66A36.49,36.49,0,0,1,2987.35,2568.35Zm72.26-201.18c-46.55,0-90.65,21.23-98.34,34.76-11.29,19.85-4.65,101.24,18.91,129.84,1.71,2.09,5.09,5.54,7.58,5.27,6.26-.69,16.73-13.11,22.2-23.84l1-2,1.58-1.68c46.68-49.06,93.07-114.75,87.74-134.36-.22-.81-.56-2-4.45-3.14A132,132,0,0,0,3059.61,2367.17Z" class="cls-2" transform="translate(-499.31 -1221.38)"/><g class="cls-6"><path d="M3172.69,2673.06c-7.82,32.67-9.15,57.54-7.67,78.51-64.07-3.25-115.7-28.28-148.64-49.56a83.85,83.85,0,0,1-17.56-15.14c14.28-48.77,54-184.27,83.16-283.7,44.28-4.27,104.09,11.38,146.72,42.16C3210.91,2516.64,3188.84,2605.75,3172.69,2673.06Z" class="cls-2" transform="translate(-499.31 -1221.38)"/></g><path d="M3204.6,2700.89c34.29-1.25,64.23-24.84,74.79-58.7,14.62-46.87,30.11-117.87,15.65-178.77-24-101.17-217.22-144.89-251.79-83.73-33.7,59.61-45.16,144.13-49.05,195.53a83,83,0,0,0,37.83,75.93C3069,2675,3129.48,2703.61,3204.6,2700.89Z" class="cls-8" transform="translate(-499.31 -1221.38)"/><g class="cls-3"><path d="M3299.66,2533.5a201.85,201.85,0,0,0-4.62-28.4c-24-101.15-217.2-144.88-251.78-83.7-28.67,50.73-41.27,119.45-46.75,170.5a80.52,80.52,0,0,1-2.3-26.44c3.87-51.4,15.33-135.93,49.05-195.54,34.58-61.18,227.77-17.45,251.78,83.71C3301.15,2479.33,3301.93,2506.78,3299.66,2533.5Z" class="cls-4" transform="translate(-499.31 -1221.38)"/></g><g class="cls-6"><path d="M3279.4,2642.2c-10.56,33.84-40.53,57.42-74.79,58.68-75.14,2.73-135.65-25.86-172.58-49.72a83,83,0,0,1-37.82-75.92c1.13-15.1,2.89-33,5.75-52.38a83.1,83.1,0,0,0,32.07,38.88c36.93,23.86,97.44,52.46,172.58,49.76,34.26-1.25,64.23-24.84,74.79-58.72a495.35,495.35,0,0,0,17.91-78.19C3307.64,2532.84,3293.13,2598.2,3279.4,2642.2Z" class="cls-2" transform="translate(-499.31 -1221.38)"/></g><path d="M3194.59,2716.72c-74,0-133.48-28.17-171.05-52.43a98.57,98.57,0,0,1-44.95-90.25c4.47-58.89,16.94-141.74,51-202.05,16.32-28.88,58.59-41.53,113-33.8,69.13,9.79,151.07,52,167.59,121.61,15.15,63.8-.29,136.93-15.93,187-12.54,40.19-48.37,68.19-89.16,69.67h0C3201.62,2716.65,3198.09,2716.71,3194.59,2716.72Zm-82.2-349.46c-27.49,0-48.22,7.21-55.53,20.13-32.9,58.2-43.61,143.41-47.07,189a67.3,67.3,0,0,0,30.74,61.6c35.55,23,92.64,49.73,163.5,47.25h0c27.55-1,51.84-20.18,60.43-47.71,14.47-46.39,28.87-113.61,15.35-170.51-12.55-52.86-80.7-89.24-141.53-97.85A185.44,185.44,0,0,0,3112.39,2367.26Z" class="cls-2" transform="translate(-499.31 -1221.38)"/></g><g id="Fork"><polygon points="409.2 1018.59 269.84 1044.58 192.28 533.97 297.46 514.35 409.2 1018.59" class="cls-9"/><path d="M767.11,2268.82l-78.29-515.44,109.83-20.49.51,2.31,112.28,506.7Zm-72.75-511.5,76.82,505.77L905.58,2238,794.9,1738.56Z" class="cls-2" transform="translate(-499.31 -1221.38)"/><path d="M908.53,2240l-139.37,26-64.37-423.86a37.29,37.29,0,0,0-25-29.86C487.45,1748.7,513,1374.32,520.27,1297.68a18.23,18.23,0,0,1,14.82-16.23,18.28,18.28,0,0,1,21.32,14.63l48,257.11a35.68,35.68,0,0,0,35,29.14,37.84,37.84,0,0,0,6.57-.63,35.59,35.59,0,0,0,28.48-41.58l-45.65-244.7a31.48,31.48,0,0,1-.51-5.68,30.91,30.91,0,0,1,61.3-5.63l45.61,244.71a35.68,35.68,0,0,0,35,29.1,37.84,37.84,0,0,0,6.57-.63,35.62,35.62,0,0,0,28.51-41.54l-48-257.14a19.22,19.22,0,0,1-.32-3.37,18.28,18.28,0,0,1,34.62-8.17c34.49,68.86,193.2,408.82,36.77,537.38a37.28,37.28,0,0,0-12.6,36.88Z" class="cls-1" transform="translate(-499.31 -1221.38)"/><path d="M767.12,2268.81l-64.75-426.35a34.65,34.65,0,0,0-23.4-27.91c-194.08-64.12-168.28-442-161.13-517.1a20.7,20.7,0,0,1,41-1.81l48,257.1a33.21,33.21,0,0,0,32.6,27.14,35.33,35.33,0,0,0,6.15-.58,33.15,33.15,0,0,0,26.5-38.73l-45.65-244.7A33.42,33.42,0,0,1,653.05,1257,33.36,33.36,0,0,1,692,1283.66l45.61,244.71a33.21,33.21,0,0,0,32.61,27.11,35.38,35.38,0,0,0,6.14-.59,33.18,33.18,0,0,0,26.54-38.69l-48-257.14a22.71,22.71,0,0,1-.35-3.82,20.72,20.72,0,0,1,39.25-9.26c33.77,67.43,194.25,410.41,36.13,540.36a34.64,34.64,0,0,0-11.76,34.46l93.33,421.12ZM538.44,1283.59a15.89,15.89,0,0,0-2.9.27,15.79,15.79,0,0,0-12.84,14.06c-7.08,74.45-32.75,449,157.81,512a39.49,39.49,0,0,1,26.69,31.82l64,421.35,134.39-25-92.24-416.18a39.52,39.52,0,0,1,13.44-39.3C982,1655,822.87,1315,789.38,1248.16a15.83,15.83,0,0,0-30,7.08,17.22,17.22,0,0,0,.27,3l48,257.11a38.09,38.09,0,0,1-30.47,44.4,40.62,40.62,0,0,1-7,.66,38.1,38.1,0,0,1-37.42-31.09l-45.6-244.71a28.47,28.47,0,0,0-56,10.41l45.64,244.7a38,38,0,0,1-30.42,44.44,40.64,40.64,0,0,1-7,.66A38.11,38.11,0,0,1,602,1553.64l-48-257.11A15.86,15.86,0,0,0,538.44,1283.59Z" class="cls-2" transform="translate(-499.31 -1221.38)"/><g class="cls-3"><path d="M604.36,1553.19a35.14,35.14,0,0,0,9.39,18.19,17.61,17.61,0,0,1-1.88.43,37.82,37.82,0,0,1-6.57.62,35.68,35.68,0,0,1-35-29.14L523,1289.7a16.87,16.87,0,0,1,2-2.62,18.27,18.27,0,0,1,31.45,9Z" class="cls-4" transform="translate(-499.31 -1221.38)"/></g><g class="cls-3"><path d="M735.17,1528.82a35,35,0,0,0,9.38,18.15,18,18,0,0,1-1.87.43,37.82,37.82,0,0,1-6.57.62,35.68,35.68,0,0,1-35-29.1l-45.61-244.71a30.49,30.49,0,0,0-6.3-13.69,29.8,29.8,0,0,1,4.3-1.13,30.93,30.93,0,0,1,36.07,24.72Z" class="cls-4" transform="translate(-499.31 -1221.38)"/></g><g class="cls-3"><path d="M908.53,2240l-139.37,26-2.39-15.8,107.69-20.07-92.78-418.65a37.38,37.38,0,0,1,12.59-36.89c151.85-124.74,6.85-448.61-33.37-530.56a18.23,18.23,0,0,1,30.67,3.09c34.5,68.84,193.19,408.83,36.77,537.37a37.25,37.25,0,0,0-12.6,36.88Z" class="cls-4" transform="translate(-499.31 -1221.38)"/></g><path d="M756.13,2284.32,689.4,1845a22.54,22.54,0,0,0-15.17-18.11c-87.18-29.15-142.57-118.32-164.62-265-16.74-111.45-9-222.94-4.9-265.7a33.81,33.81,0,0,1,8.67-19.61A34.2,34.2,0,0,1,534,1265.81c17.84-2.36,34.53,10,37.92,28.24l47.81,256.27a20,20,0,0,0,24.63,15.7c10-2.53,16.47-13.43,14.45-24.3L613.43,1298.3a46.22,46.22,0,0,1,7.36-34.86,46.73,46.73,0,0,1,33-19.91c24.11-2.82,46.74,14.26,51.34,38.9l45.42,243.49a20,20,0,0,0,23.19,16,19.13,19.13,0,0,0,12.27-8.21,22,22,0,0,0,3.62-16.41l-47.73-255.85a33.91,33.91,0,0,1,27.19-39.55c14.76-2.72,29.94,5.06,36.88,19,19.28,38.64,66.76,140.37,91.06,250.13,31.92,144.17,12.27,246.89-58.42,305.29h0a22.38,22.38,0,0,0-7.47,22.25l96.13,433.84Zm-217.78-987.5h-.21a2.74,2.74,0,0,0-1.66.86,2.71,2.71,0,0,0-.62,1.5c-7,72.55-32.55,437.6,148.29,498.05a53.73,53.73,0,0,1,36.19,43.09l61.86,407.29,107.54-20L800.6,1825.32a53.53,53.53,0,0,1,18.09-53.15h0C965.25,1651.09,810.48,1320,778,1254.85c-.7-1.39-2.17-2.37-3.2-2.16a2.6,2.6,0,0,0-2.09,3l47.72,255.84a53.55,53.55,0,0,1-8.63,39.94,50.19,50.19,0,0,1-32.49,21.22,51.29,51.29,0,0,1-59.49-41.08l-45.42-243.5c-1.56-8.37-9.14-14.43-16.94-13.55a15.23,15.23,0,0,0-13.24,18L689.6,1536c5.08,27.25-11.41,53.77-37.54,60.38A51.27,51.27,0,0,1,589,1556.05l-47.8-256.27C540.89,1298.19,539.55,1296.82,538.35,1296.82Zm290.31,487.42h0Z" class="cls-2" transform="translate(-499.31 -1221.38)"/><path d="M958.79,2896.18a104.88,104.88,0,0,1-122.9-87.35l-10.25-65.12-45-285.94-33.91-215.56a68.34,68.34,0,0,1,55-77.84l39.82-7.44a68.42,68.42,0,0,1,79.37,52.77l41,189.67,62.47,289.26,17.64,81.79A104.84,104.84,0,0,1,958.79,2896.18Z" class="cls-10" transform="translate(-499.31 -1221.38)"/><path d="M939.27,2900.34a107.31,107.31,0,0,1-105.71-91.15l-89.18-566.62a70.34,70.34,0,0,1,56.89-80.51l39.82-7.43a70.37,70.37,0,0,1,82.09,54.58l121.07,560.72a107.19,107.19,0,0,1-85,128.56h0A108.93,108.93,0,0,1,939.27,2900.34Zm-85-742.24a67.76,67.76,0,0,0-12.36,1.14l-39.82,7.44A65.68,65.68,0,0,0,749,2241.84l89.19,566.63a102.51,102.51,0,0,0,120.15,85.4h0a102.49,102.49,0,0,0,81.3-122.94L918.59,2210.2A65.67,65.67,0,0,0,854.31,2158.1Z" class="cls-2" transform="translate(-499.31 -1221.38)"/><g class="cls-3"><path d="M1015.63,2865.28a104.25,104.25,0,0,0,6.18-64.35l-17.65-81.79L941.7,2429.88l-41-189.67a68.4,68.4,0,0,0-79.36-52.76l-39.82,7.43a67.89,67.89,0,0,0-32.35,15.6,68.23,68.23,0,0,1,52.49-46.11l39.82-7.44a68.42,68.42,0,0,1,79.37,52.77l41,189.67,62.47,289.26,17.64,81.79A104.66,104.66,0,0,1,1015.63,2865.28Z" class="cls-4" transform="translate(-499.31 -1221.38)"/></g><g class="cls-6"><path d="M958.79,2896.18a104.88,104.88,0,0,1-122.9-87.35L828.38,2761a104.87,104.87,0,0,0,202.89-40.22l10.68,49.6A104.84,104.84,0,0,1,958.79,2896.18Z" class="cls-2" transform="translate(-499.31 -1221.38)"/></g><path d="M939.25,2913.64A120.61,120.61,0,0,1,820.42,2811.2l-89.18-566.56A83.59,83.59,0,0,1,798.83,2149l39.82-7.44a83.61,83.61,0,0,1,97.53,64.86l121.08,560.7a120.51,120.51,0,0,1-95.59,144.45A122,122,0,0,1,939.25,2913.64Zm-85-742.24a54,54,0,0,0-9.89.92l-39.81,7.43a52.46,52.46,0,0,0-42.42,60l89.2,566.64a89.22,89.22,0,0,0,104.58,74.39h0a89.23,89.23,0,0,0,70.76-107L905.59,2213A52.42,52.42,0,0,0,854.27,2171.4Z" class="cls-2" transform="translate(-499.31 -1221.38)"/><circle cx="838.83" cy="2252.98" r="27.56" class="cls-2" transform="translate(-2063.99 1083.31) rotate(-70.81)"/><path d="M1018.57,2520.29s27.91,55.32,55.82,21.43,34.88-122.1,20.43-147.52c-14-24.52-90.23-55-152.51-37.24S1018.57,2520.29,1018.57,2520.29Z" class="cls-8" transform="translate(-499.31 -1221.38)"/><g class="cls-6"><path d="M1074.38,2541.71c-27.89,33.88-55.82-21.43-55.82-21.43s-119.46-125.44-86.64-157.64c27.34,42.44,69,86.14,69,86.14s27.89,55.31,55.82,21.43c15.68-19.05,24.76-55.27,27.14-87.85,5,3.95,8.8,8,11,11.85C1109.27,2419.63,1102.31,2507.84,1074.38,2541.71Z" class="cls-2" transform="translate(-499.31 -1221.38)"/></g><path d="M1055.13,2568.35a36.49,36.49,0,0,1-3.88-.21c-24-2.68-40.45-29.3-45.52-38.66-27.11-28.66-106.1-117.19-93.75-162.56,3.34-12.28,12.58-21.16,26-25,68.9-19.7,152.39,12.87,170.41,44.55s9.17,127.4-22,165.19C1075.46,2565,1063.91,2568.35,1055.13,2568.35Zm-22.61-55.14c5.48,10.73,15.94,23.14,22.21,23.83,2.49.25,5.86-3.18,7.58-5.27,23.56-28.6,30.19-110,18.91-129.84-9.7-17.06-77.25-46.32-134.61-29.93-3.89,1.12-4.22,2.33-4.44,3.14-5.34,19.61,41.05,85.3,87.73,134.36l1.59,1.67Z" class="cls-2" transform="translate(-499.31 -1221.38)"/><g class="cls-6"><path d="M1024.31,2688.63a88.2,88.2,0,0,1-10,7.63c-37,23.82-97.48,52.45-172.58,49.72a78.42,78.42,0,0,1-16-2.27l-45-285.94c45.41-46.39,128.92-69.19,181.22-58.4Z" class="cls-2" transform="translate(-499.31 -1221.38)"/></g><path d="M837.88,2700.89c-34.28-1.25-64.23-24.84-74.79-58.7-14.62-46.87-30.11-117.87-15.65-178.77,24-101.17,217.23-144.89,251.8-83.73,33.7,59.61,45.15,144.13,49,195.53a82.94,82.94,0,0,1-37.84,75.93C973.51,2675,913,2703.61,837.88,2700.89Z" class="cls-8" transform="translate(-499.31 -1221.38)"/><g class="cls-3"><path d="M1041,2512.85c-7.74-30.75-18.42-61.41-33.17-87.5-36.18-64-238.29-18.27-263.4,87.58-1,4.3-1.92,8.64-2.62,13.06-.67-21.16.82-42.4,5.63-62.58,24-101.16,217.21-144.89,251.79-83.71C1021.38,2418.81,1033.89,2468.69,1041,2512.85Z" class="cls-4" transform="translate(-499.31 -1221.38)"/></g><g class="cls-6"><path d="M1010.46,2651.16c-37,23.86-97.47,52.45-172.58,49.72-34.3-1.26-64.22-24.84-74.78-58.68A515.13,515.13,0,0,1,749.25,2588c14.24,22.88,38.61,37.78,65.63,38.76,75.15,2.7,135.66-25.89,172.58-49.75a83,83,0,0,0,37.83-75.93c-2-26.05-5.87-60.59-13.65-96.1,24.25,56.48,33.24,125.83,36.65,170.31A83,83,0,0,1,1010.46,2651.16Z" class="cls-2" transform="translate(-499.31 -1221.38)"/></g><path d="M847.89,2716.72c-3.49,0-7-.07-10.57-.2h0c-40.8-1.48-76.63-29.48-89.17-69.67-15.63-50.12-31.08-123.25-15.93-187,16.52-69.58,98.47-111.82,167.61-121.61,54.44-7.73,96.71,4.92,113,33.8,34.09,60.31,46.57,143.16,51,202.05a98.56,98.56,0,0,1-45,90.25C981.38,2688.55,921.84,2716.72,847.89,2716.72Zm-9.44-31.47C909.16,2687.77,966.4,2661,1002,2638a67.29,67.29,0,0,0,30.73-61.6c-3.46-45.6-14.17-130.81-47.07-189-9.46-16.72-41.39-23.88-81.4-18.21-60.84,8.61-129,45-141.55,97.85-13.52,56.9.89,124.12,15.36,170.51,8.59,27.53,32.87,46.71,60.42,47.71Z" class="cls-2" transform="translate(-499.31 -1221.38)"/></g><g id="Bottom_Bun"><path d="M2809,2646.46s99.12,155.11-10.3,276.11c-114.77,126.93-534.63,122.29-784.45,122.29s-669.69,4.64-784.46-122.29c-109.42-121-10.3-276.11-10.3-276.11" class="cls-8" transform="translate(-499.31 -1221.38)"/><g class="cls-3"><path d="M1382.29,3001.13c-69.39-17.88-125.28-43.07-157.36-78.55-109.44-121-10.32-276.11-10.32-276.11l67.31,21.51s-99.12,155.13,10.29,276.12C1313.1,2967.17,1344.08,2985.91,1382.29,3001.13Z" class="cls-4" transform="translate(-499.31 -1221.38)"/></g><g class="cls-6"><path d="M2764.48,2924.66c-114.76,126.93-534.63,122.28-784.42,122.28-240.29,0-637.86,4.3-770-108.31,178.13,52.65,462.11,50,649.94,50,249.83,0,669.7,4.65,784.46-122.28,67.24-74.36,55.74-161.63,36.85-217.83h93.49S2873.93,2803.64,2764.48,2924.66Z" class="cls-2" transform="translate(-499.31 -1221.38)"/></g><path d="M2068.34,3060.52h-79.65c-260.73.29-654.88.39-770.49-127.45-116.08-128.37-12.93-293.37-11.87-295l26.36,16.84c-3.76,5.93-91.22,146.68,8.73,257.2,106.27,117.53,507.55,117.22,747.25,117.14h51.19c239.78.17,641,.39,747.26-117.14,100.25-110.86,9.65-255.75,8.72-257.2l26.37-16.84c1.05,1.65,104.2,166.65-11.88,295C2698.86,3056.33,2328.48,3060.52,2068.34,3060.52Z" class="cls-2" transform="translate(-499.31 -1221.38)"/></g><g id="Meat"><path d="M2868.18,2647.48c-22.89,52.61-73.46,81.56-125.41,103.85-41.58,17.84-97.44,32.94-158.81,44.87-85.11,16.47-180.87,26.75-263.95,29.34-.59,0-1.17.08-1.76.08-327.24,9.89-611.41,16.23-951.88-53.44-42-8.56-105.49-23.82-141.12-47.95s-56.14-76.47-59.58-119.93a155.48,155.48,0,0,1-.19-18c1.44-34.82,12.16-88.09,37.7-99.71l1632.57-9.39c15,28.95,29,56.88,36.49,84.45C2880,2590.37,2880.69,2618.69,2868.18,2647.48Z" class="cls-11" transform="translate(-499.31 -1221.38)"/><path d="M2009.24,2847.48c-204.3,0-412.19-12.13-646-60-69.87-14.29-117.89-30.76-146.8-50.36-40.85-27.68-62.77-86.06-66.38-131.64-2.2-27.69,5-114.23,46.64-133.15l13,28.49c-19.11,8.69-31,68.95-28.4,102.19,2.92,36.88,20.67,86.47,52.75,108.21,25.08,17,70.67,32.34,135.51,45.61,348.24,71.24,639.69,62.43,948.26,53.09,128.85-3.9,314.86-28.41,418.82-73,46-19.72,95.82-46.51,117.22-95.7,20.94-48.13,0-95.35-32-156.82l27.78-14.42c28.77,55.4,61.38,118.2,32.87,183.72-25.76,59.22-82,89.84-133.58,112-107.7,46.21-298.5,71.54-430.2,75.53C2214.59,2844.39,2112.36,2847.48,2009.24,2847.48Z" class="cls-2" transform="translate(-499.31 -1221.38)"/></g><g id="Cheese"><path d="M2877.76,2515.62c-9.9,17.33-58.87,43.81-110.15,70.53-119,62-227.38,244.12-261.25,249.71-45,7.44-404.61-133.11-561.12-151.84-271.89-32.55-427-13.22-676.34-73.74-34.62-8.41-87.15-30.55-97.05-49.16-14.55-27.35-22.18-65.25-1.33-114.89l3.76-.07,1674.1-28.52c10.21,9,20.27,25.43,26.76,42.87C2882.61,2480.73,2885.31,2502.4,2877.76,2515.62Z" class="cls-10" transform="translate(-499.31 -1221.38)"/><g class="cls-3"><path d="M2877.76,2515.62c-9.9,17.33-58.87,43.81-110.15,70.53-119,62-227.38,244.12-261.25,249.71-45,7.44-404.61-133.11-561.12-151.84-271.89-32.55-427-13.22-676.34-73.74-34.62-8.41-87.15-30.55-97.05-49.16-10.6-19.95-17.52-45.5-12.44-77.14a120.12,120.12,0,0,0,12.44,36c9.9,18.65,62.43,40.75,97.05,49.16,249.32,60.52,404.45,41.19,676.34,73.74,156.51,18.73,516.13,159.28,561.12,151.88,33.87-5.59,142.26-187.71,261.25-249.71,51.28-26.76,100.25-53.2,110.15-70.53.39-.7.78-1.44,1.13-2.19C2883.27,2488.79,2883.86,2505,2877.76,2515.62Z" class="cls-4" transform="translate(-499.31 -1221.38)"/></g><path d="M2502.66,2851.75c-27.68,0-93.41-20.49-209.3-57.4-118.6-37.77-266.2-84.77-350-94.8-102.26-12.24-186.82-17.05-268.61-21.7-135.79-7.72-253.07-14.39-409.57-52.37-28.79-7-92.88-30.12-107.18-57-18.06-34-15.63-93.5,5.9-144.79l28.86,12.11c-20,47.69-18.62,96.38-7.13,118,5.44,10.22,47.46,31.72,86.94,41.3,153.73,37.31,269.69,43.9,404,51.54,82.26,4.68,167.33,9.51,270.55,21.87,86.72,10.38,229.64,55.9,355.75,96.06,86.31,27.48,184.09,58.66,200.94,55.89,9.18-3,38.63-38.11,62.28-66.34,50.59-60.35,119.87-143,194.31-181.81,31-16.14,95.41-49.73,103.78-64.4,8.62-15.12-6.77-61.36-26.14-78.52l20.75-23.42c26.11,23.13,51.09,84.95,32.58,117.44-10.93,19.16-47.81,40.84-116.5,76.65-68.93,35.92-135.9,115.82-184.79,174.16-43,51.28-62.76,74.08-81.17,77.12A39.76,39.76,0,0,1,2502.66,2851.75Z" class="cls-2" transform="translate(-499.31 -1221.38)"/></g><g id="Jelly"><g class="cls-6"><path d="M2875.14,2460.51q-1.93,4.23-4.23,8.29c-29.61,52.93-79.79,65.37-137.64,82-77.73,22.37-160.68,39.09-257.54,47.37-329.1,28.11-691.43,42.15-1034.71-9.68-49.83-7.55-93-10.38-147.09-28.1-32.62-10.72-63.56-19-86.72-44.64-18-19.87-28.83-43.85-32.93-69.62l1674.1-28.52C2858.59,2426.68,2868.65,2443.07,2875.14,2460.51Z" class="cls-2" transform="translate(-499.31 -1221.38)"/></g><path d="M2888.24,2371.6c-1,22.06-6.73,43.65-17.33,62.59-29.61,52.92-79.79,65.36-137.64,82-77.73,22.38-161.12,35-257.54,47.37-348.83,44.59-691.25,50.19-1034.53-1.64-49.83-7.55-94.15-11.89-148.21-29.61-32.62-10.72-62.62-25.55-85.78-51.17-21.2-23.39-32.42-52.45-34.54-83.43a157.42,157.42,0,0,1,0-23.39c3-42.48,18-88.79,36.85-123.57l1611.87-14.39C2867,2262.94,2890.82,2318.56,2888.24,2371.6Z" class="cls-12" transform="translate(-499.31 -1221.38)"/><path d="M1945.62,2614.59c-174.48,0-342.54-12.4-506.75-37.2-8.24-1.24-16.32-2.39-24.32-3.54-41.17-5.89-80-11.46-126.43-26.66-41-13.45-70.39-31.09-92.52-55.51-28.13-31.06-41.82-73.13-38.54-118.47,3-42.19,17.52-90.74,38.71-129.89l27.52,14.89c-19.18,35.44-32.28,79.28-35,117.26-2.69,37.26,7.86,70.18,30.53,95.21,18.32,20.22,43.45,35.09,79.08,46.77,43.76,14.36,81.33,19.73,121.1,25.42,8.08,1.16,16.24,2.33,24.56,3.59,321.75,48.58,658.74,49.1,1030.2,1.58,102.67-13.13,181.17-25.56,255.21-46.88l7.22-2.07c53.55-15.34,95.85-27.47,121.09-72.54,32.8-58.57,11.53-144.42-43.76-176.67l15.76-27c70.2,40.94,96.56,145.32,55.3,219-31.54,56.32-84.11,71.38-139.78,87.33l-7.16,2.06c-76,21.88-155.77,34.53-259.9,47.85C2292.7,2602.75,2116.09,2614.59,1945.62,2614.59Z" class="cls-2" transform="translate(-499.31 -1221.38)"/></g><g id="Leaves"><g class="cls-6"><path d="M2888.24,2371.6a88.6,88.6,0,0,1-28.94,18.82c-57,22.49-137.22-6.69-190.11,24.17-51.86,30.27-63.36,110.07-160.92,110.27-70.52.15-134.79-60.63-199.45-32.51-53,23-81.87,83.4-137.72,97.87-81.6,21.2-145.47-93.45-229.53-87.46-55.55,4-96.15,60-151.5,66.34-75.41,8.64-133.81-76.79-209.69-78.43-32.12-.67-62.24,14-92.67,24.33s-65.91,16-93.17-1c-30.86-19.24-41.54-61.68-73.11-79.79-30.2-17.29-68.37-6.5-102.56-12.95-17.49-3.29-33.25-11.78-46.2-23.55a157.42,157.42,0,0,1,0-23.39c3-42.48,18-88.79,36.85-123.57l1611.87-14.39C2867,2262.94,2890.82,2318.56,2888.24,2371.6Z" class="cls-7" transform="translate(-499.31 -1221.38)"/><path d="M2150.88,2595.25c-35.62,0-68.4-22.65-100.28-44.68-34.26-23.68-69.78-48.17-108.86-45.38-27.72,2-52.34,17.68-76.15,32.85-23.39,14.91-47.57,30.32-75.24,33.48-40.44,4.68-76.45-17.44-111.28-38.79-31.16-19.1-63.37-38.85-98.75-39.61-24.8-.55-48.86,8.44-72.17,17.09-6.55,2.44-13.09,4.87-19.65,7.1-40.11,13.6-72.17,13.2-95.26-1.21-15.55-9.7-26.14-25.16-36.38-40.1-10.81-15.78-21-30.7-36.65-39.66-18.13-10.38-39.07-10.31-61.23-10.24-13.42,0-27.33.08-40.56-2.42a97.56,97.56,0,0,1-47.39-24.14l-.72-.66-.07-1a157,157,0,0,1,0-23.76c2.9-40.37,16.78-86.93,37.13-124.55l.69-1.27h1.44l1612.55-14.4.58.33c44.15,25.74,70.87,79.7,68,137.46l0,1-.7.67a91,91,0,0,1-29.75,19.32c-26.81,10.59-58.89,9.92-89.93,9.27-35.4-.73-72-1.5-99.83,14.74-17.65,10.31-30.52,26.47-44.14,43.58-26.17,32.89-53.23,66.89-118,67H2508c-29.63,0-58.12-10.55-85.69-20.76-38.88-14.4-75.62-28-112.51-11.95-23.82,10.35-43.09,28.76-61.72,46.56-22.34,21.35-45.43,43.42-76.37,51.43A82.17,82.17,0,0,1,2150.88,2595.25Zm-203-95.17c38.22,0,72.37,23.6,105.46,46.47,38.79,26.81,75.45,52.15,117.09,41.3,29.7-7.7,51.33-28.36,74.22-50.23,19-18.1,38.54-36.82,63.15-47.51,38.69-16.85,76.33-2.91,116.16,11.84,27.16,10.06,55.24,20.46,84,20.46h.26c62.42-.12,88.74-33.19,114.19-65.17,13.91-17.48,27.05-34,45.5-44.76,29-16.93,66.33-16.16,102.4-15.41,30.54.65,62.14,1.3,88-8.93a85.78,85.78,0,0,0,27.44-17.63c2.32-54.51-23.74-107.23-65.1-131.68L1211,2253.2c-19.67,36.82-33.06,82.05-35.88,121.31a154.76,154.76,0,0,0-.07,22.06,92.44,92.44,0,0,0,44.28,22.3c12.79,2.42,26.44,2.36,39.64,2.33,21.84-.08,44.41-.13,63.69,10.91,16.58,9.51,27.6,25.59,38.25,41.13,9.95,14.53,20.24,29.55,34.93,38.7,21.8,13.61,52.45,13.85,91.09.74,6.52-2.21,13-4.63,19.53-7,23.74-8.82,48.3-17.93,74-17.41,36.7.8,69.5,20.9,101.21,40.34,35.68,21.88,69.4,42.53,108.16,38.11,26.55-3.05,50.25-18.14,73.17-32.75,24.32-15.5,49.48-31.52,78.43-33.6C1943.58,2500.16,1945.77,2500.08,1947.93,2500.08Z" class="cls-2" transform="translate(-499.31 -1221.38)"/></g><path d="M2859.3,2351.3c-57,22.49-137.22-6.69-190.11,24.17-51.86,30.28-63.36,110.07-160.92,110.27-70.52.16-134.79-60.63-199.45-32.5-53,23-81.87,83.39-137.72,97.86-81.6,21.2-145.47-93.44-229.53-87.46-55.55,4-96.15,60-151.5,66.34-75.41,8.64-133.81-76.78-209.69-78.43-32.12-.66-62.24,14-92.67,24.33s-65.91,16-93.17-1c-30.86-19.25-41.54-61.69-73.11-79.8-30.2-17.29-68.37-6.49-102.56-13-50.11-9.46-86-61.33-81.91-112.18,3.13-38.92,21.32-69,47-92.94,26.79-25.07,61.72-43.46,96.22-58.36L2750,2085.31c41.58,5.79,84.41,11.93,120.63,33.14,2.82,1.64,5.55,3.44,8.18,5.31,30.94,22.14,47.36,59.19,51,97.72S2911.59,2330.69,2859.3,2351.3Z" class="cls-13" transform="translate(-499.31 -1221.38)"/><g class="cls-3"><path d="M2859.3,2361.08c-57,22.49-137.22-6.69-190.11,24.17-51.86,30.28-63.36,110.07-160.92,110.27-70.52.16-134.79-60.63-199.45-32.51-53,23-81.87,83.4-137.72,97.87-81.6,21.2-145.47-93.45-229.53-87.46-55.55,4-96.15,60-151.5,66.34-75.41,8.64-133.81-76.79-209.69-78.43-32.12-.66-62.24,14-92.67,24.33s-65.91,16-93.17-1c-30.86-19.24-41.54-61.68-73.11-79.79-30.2-17.29-68.37-6.49-102.56-12.95-50.11-9.46-86-61.33-81.91-112.18a135.08,135.08,0,0,1,2.19-15.8c8.76,39.5,39.7,74,79.72,81.59,34.19,6.45,72.36-4.34,102.56,12.95,31.57,18.11,42.25,60.55,73.11,79.79,27.26,17,62.74,11.31,93.17,1s60.55-25,92.67-24.33c75.88,1.64,134.28,87.07,209.69,78.43,55.35-6.34,96-62.35,151.5-66.34,84.06-6,147.93,108.66,229.53,87.46,55.85-14.47,84.76-74.87,137.72-97.87,64.66-28.12,128.93,32.66,199.45,32.51,97.56-.2,109.06-80,160.92-110.27,52.89-30.86,133.12-1.68,190.11-24.17,39.62-15.61,61.8-60,68.61-97.32.86,4.57,1.48,9.23,1.91,13.88C2933.5,2269.78,2911.59,2340.47,2859.3,2361.08Z" class="cls-4" transform="translate(-499.31 -1221.38)"/></g><path d="M2150.51,2569.43c-39.23,0-73.78-23.88-107.38-47.1-33.9-23.42-65.94-45.54-100.45-43.08-24.41,1.75-46.57,15.87-70,30.83-24.64,15.7-50.12,31.93-80.79,35.45-44.91,5.14-82.94-18.13-119.68-40.65-31-19-60.33-37-92.14-37.67-22.3-.55-44.13,7.65-67.3,16.26-6.66,2.47-13.32,4.94-20,7.21-44,15-79.8,14.15-106.48-2.49-17.91-11.16-29.3-27.78-40.31-43.85-9.94-14.49-19.32-28.19-32.31-35.65-15.07-8.64-34.25-8.56-54.67-8.52-14,0-28.55.09-43-2.64-57.08-10.76-99.53-68.54-94.62-128.81,7.37-90.45,85.43-135.36,152.61-164.39l12.41,28.73c-59.15,25.55-127.81,64.36-133.83,138.2-3.59,44,28.11,87.76,69.22,95.51,11.54,2.18,24,2.14,37.13,2.1,23.62-.06,48-.14,70.33,12.68,19.19,11,31.07,28.34,42.56,45.11,9.61,14,18.69,27.28,31,35,18.32,11.4,45.19,11.22,79.85-.58,6.4-2.18,12.78-4.55,19.17-6.93,24.91-9.25,50.45-18.76,78.87-18.21,40.28.87,74.62,21.92,107.82,42.28,33.7,20.66,65.53,40.17,99.77,36.24,23.5-2.69,44.89-16.32,67.53-30.75,25.71-16.39,52.3-33.34,84.61-35.65,45.44-3.3,83.63,23.08,120.48,48.54,36.23,25,70.45,48.69,106.24,39.39,26.39-6.85,46.81-26.36,68.43-47,19.78-18.89,40.23-38.44,67-50.07,43.6-18.94,85.51-3.42,126,11.59,26.06,9.65,53,19.63,79.42,19.63h.22c56.08-.11,79.3-29.3,103.89-60.19,14.06-17.66,28.59-35.92,49.17-47.94,32.24-18.82,71.46-18,109.36-17.22,30.59.65,59.47,1.25,82.88-8,45.9-18.1,63.66-82.72,60.71-113.81-3.89-41-22.66-74.13-51.5-91-34.12-19.94-75.19-25.62-114.9-31.12l4.28-31c40.75,5.64,86.94,12,126.41,35.09,37.64,22,62,63.94,66.86,115.05,4.38,46.14-21.11,122.51-80.37,145.89-29.27,11.54-62.7,10.83-95,10.17-35.11-.74-68.3-1.42-92.94,13-15.51,9.06-27.63,24.28-40.45,40.4-25.48,32-57.19,71.85-128.31,72h-.3c-32,0-61.63-11-90.28-21.58-37.9-14-70.64-26.17-102.69-12.23-21.64,9.41-39.23,26.21-57.83,44-23.57,22.52-47.93,45.79-82.2,54.69A96.87,96.87,0,0,1,2150.51,2569.43Z" class="cls-2" transform="translate(-499.31 -1221.38)"/><path d="M1455.53,2421.25c-1.46-9.43-2.31-18.8-2.83-28.32a273.46,273.46,0,0,1,0-28.78c1.19-19.33,4.09-39.31,14.17-59.29l.07-.14a15.77,15.77,0,0,1,28.16,14.21,16.34,16.34,0,0,1-2.09,3.14A96,96,0,0,0,1480,2342.5a175.38,175.38,0,0,0-9.15,24.67,257.61,257.61,0,0,0-6.13,26.49c-1.59,9-2.87,18.18-3.56,27.28v.09a2.85,2.85,0,0,1-5.66.22Z" class="cls-2" transform="translate(-499.31 -1221.38)"/><path d="M1779.66,2436.8a376.88,376.88,0,0,0-7.06-40.7,236.84,236.84,0,0,0-11.89-38,15.85,15.85,0,1,1,30.4-7.63l0,.31a262.21,262.21,0,0,1-.09,44.06,387.64,387.64,0,0,1-5.71,42.29,2.87,2.87,0,0,1-5.66-.21Z" class="cls-2" transform="translate(-499.31 -1221.38)"/><path d="M2530.15,2422.27a214.12,214.12,0,0,0-8.67-25.4A220.16,220.16,0,0,0,2510,2373a166.06,166.06,0,0,0-14.26-21.51,129.66,129.66,0,0,0-17-17.78l-.22-.2a15.77,15.77,0,1,1,20.88-23.63,16.32,16.32,0,0,1,2.43,2.71,158,158,0,0,1,15.26,26.09,188.49,188.49,0,0,1,10,27.29,238.22,238.22,0,0,1,6.08,27.7,223.14,223.14,0,0,1,2.66,27.93,2.85,2.85,0,0,1-5.61.82Z" class="cls-2" transform="translate(-499.31 -1221.38)"/><path d="M2870,2276.54a92.72,92.72,0,0,0-7.63-23.83,82.1,82.1,0,0,0-13.45-20.06c-2.5-3-5.6-5.46-8.42-8-3.18-2.2-6.08-4.57-9.51-6.22-6.42-3.86-13.72-6-20.81-7.9l-.65-.17a15.79,15.79,0,0,1,8.18-30.51,16.44,16.44,0,0,1,3.46,1.38c9,4.89,17.66,10.23,24.91,17.4,3.81,3.29,6.94,7.3,10.14,11.08,2.84,4.1,5.78,8.06,7.93,12.46a97.35,97.35,0,0,1,9.7,26.78,100.65,100.65,0,0,1,1.83,27.58,2.84,2.84,0,0,1-5.63.26Z" class="cls-2" transform="translate(-499.31 -1221.38)"/><path d="M2605.13,2372.41a117.49,117.49,0,0,0-3.93-19,80.22,80.22,0,0,0-7.08-17.26c-3-5.13-6.39-9.81-10.4-12.62a23.17,23.17,0,0,0-12.13-4.36,13.89,13.89,0,1,1,6-26.84l.83.32a48.3,48.3,0,0,1,21.41,16.21c5.16,6.92,7.68,14.46,9.47,21.66a93.38,93.38,0,0,1,2.39,21.41,124.83,124.83,0,0,1-1.58,20.74,2.5,2.5,0,0,1-5-.1Z" class="cls-2" transform="translate(-499.31 -1221.38)"/><path d="M1211.94,2289.34a91.78,91.78,0,0,1,6.19-21.21,84.39,84.39,0,0,1,11.56-19.46,68.49,68.49,0,0,1,17.88-16c6.93-4.61,14.91-7.25,23-9.36a15.76,15.76,0,1,1,8,30.49,15.17,15.17,0,0,1-3.1.5l-.84,0c-4.93.25-10.08.5-14.8,2.36a43.71,43.71,0,0,0-13.82,7.63,63.58,63.58,0,0,0-11.78,12.53,78,78,0,0,0-8.64,15.54l-.27.65a7,7,0,0,1-13.33-3.76Z" class="cls-2" transform="translate(-499.31 -1221.38)"/></g><g id="Top_Bun"><path d="M2024.56,1345.58c797.8,0,953.3,664,812.1,830.94-162,191.53-753,177.66-812.1,177.66s-650.12,13.87-812.09-177.66C1071.27,2009.56,1226.77,1345.58,2024.56,1345.58Z" class="cls-8" transform="translate(-499.31 -1221.38)"/><g class="cls-3"><path d="M2024.57,1330.89c-168.62,0-308.48,29.72-423,78.09-92.36,39-168.19,90.17-229.17,147.77-202.33,191.11-241.38,452.82-179.64,575-34.36-144.29,27.83-390.19,239.07-561,26.27-3,57.27-13.51,87.76-31.11,35.34-20.4,62.74-46.17,77.63-70.54,118.48-54.1,265.51-87.84,445.21-87.84,476.89,0,724.26,237.23,816,463.75C2784.39,1604.74,2537,1330.89,2024.57,1330.89Z" class="cls-4" transform="translate(-499.31 -1221.38)"/></g><g class="cls-6"><path d="M2792.64,2171.64c-162,191.51-753,177.67-812.07,177.67-55,0-571.13,12-772.81-140.9C1445,2296.46,1816.91,2288,1863.1,2288c59.07,0,650.14,13.89,812.12-177.66,100.21-118.48,51-487.22-271.11-691.37C2830.9,1599.5,2904,2040,2792.64,2171.64Z" class="cls-2" transform="translate(-499.31 -1221.38)"/></g><path d="M2053.33,2370q-14.2,0-27.69-.11c-4.85,0-8.67-.06-11.37-.06s-6.53,0-11.38.06c-244.2,1.87-674.13-19.45-812.67-183.27-69.25-81.89-66.45-255.71,6.66-413.3,61.85-133.31,265.32-443.39,817.39-443.39s755.52,310.07,817.37,443.38c73.12,157.59,75.93,331.42,6.67,413.31C2704.87,2344.4,2301,2370,2053.33,2370Zm-39.06-31.46c2.76,0,6.66,0,11.61.06,9.59.08,19.18.11,28.64.11,390.85,0,667-62.41,759.89-172.29,51.69-61.13,65.35-215.05-11.15-379.93-59.33-127.87-255-425.26-789-425.26s-729.68,297.39-789,425.26c-76.5,164.88-62.84,318.8-11.15,379.93C1307,2276.29,1583.2,2338.71,1974,2338.71q14.23,0,28.64-.11C2007.61,2338.57,2011.51,2338.54,2014.27,2338.54Z" class="cls-2" transform="translate(-499.31 -1221.38)"/><ellipse cx="1053.91" cy="909.31" class="cls-14" rx="102.51" ry="53.36"/><ellipse cx="1996.61" cy="909.31" class="cls-14" rx="102.51" ry="53.36"/><g class="cls-15"><path d="M1783.45,1492.72c-10.4,10.47-24.73,31.91-17.29,66.44a8.38,8.38,0,0,0,14.55,3.72c23.1-26.71,20.83-52.4,16.74-66.58A8.33,8.33,0,0,0,1783.45,1492.72Z" class="cls-4" transform="translate(-499.31 -1221.38)"/></g><g class="cls-15"><path d="M2257.32,1486.38c-6,13.48-11.73,38.62,7.53,68.23a8.38,8.38,0,0,0,14.92-1.71c12.06-33.19.78-56.38-8.1-68.17A8.33,8.33,0,0,0,2257.32,1486.38Z" class="cls-4" transform="translate(-499.31 -1221.38)"/></g><g class="cls-15"><path d="M1934.81,1540.87c-9.26,11.49-21.29,34.3-10.31,67.86a8.39,8.39,0,0,0,14.87,2.2c20.2-29,15.27-54.28,9.73-68A8.33,8.33,0,0,0,1934.81,1540.87Z" class="cls-4" transform="translate(-499.31 -1221.38)"/></g><g class="cls-15"><path d="M2140,1545.63c-6.06,13.45-12,38.55,7.1,68.28a8.38,8.38,0,0,0,14.94-1.62c12.27-33.12,1.13-56.38-7.67-68.22A8.33,8.33,0,0,0,2140,1545.63Z" class="cls-4" transform="translate(-499.31 -1221.38)"/></g><path d="M1933.85,1987.71c6.26,12.57,11.17,23.56,16.92,33.3a124.34,124.34,0,0,0,18.87,25.36,89.25,89.25,0,0,0,24.41,18.18,66.94,66.94,0,0,0,30.51,6.81,73.29,73.29,0,0,0,30.31-7.31,86.4,86.4,0,0,0,24.46-17.81c7.13-7.22,12.77-15.87,18-25.58,5.46-9.69,10.5-20.39,18-33l.06-.11a3.24,3.24,0,0,1,5.64.11c7.14,13.12,8.8,28.16,6.2,42.88-2.79,14.67-10,28.9-20.1,40.72a96.25,96.25,0,0,1-37.84,26.44,120.27,120.27,0,0,1-44.68,8.05,130.27,130.27,0,0,1-44.46-8.55c-14.27-5.48-27.75-14.23-37.9-26.08a84.12,84.12,0,0,1-19.2-40.93c-2.32-14.68-.79-29.41,5.14-42.53a3.15,3.15,0,0,1,4.15-1.56,3.11,3.11,0,0,1,1.5,1.45Z" class="cls-2" transform="translate(-499.31 -1221.38)"/><ellipse cx="2368.31" cy="1866.23" class="cls-16" rx="172.06" ry="132.74" transform="translate(-363.91 2671.14) rotate(-80.46)"/><ellipse cx="2328.79" cy="1824.11" class="cls-4" rx="59.35" ry="35.58" transform="translate(-398.04 2549.2) rotate(-79.22)"/><ellipse cx="2423.01" cy="1922.66" class="cls-4" rx="29.69" ry="17.78" transform="matrix(0.13, -0.99, 0.99, 0.13, -288.92, 2862.74)"/><ellipse cx="1708.24" cy="1866.23" class="cls-16" rx="172.06" ry="132.74" transform="translate(-914.6 2020.19) rotate(-80.46)"/><ellipse cx="1668.72" cy="1824.11" class="cls-4" rx="59.35" ry="35.58" transform="translate(-934.65 1900.78) rotate(-79.22)"/><ellipse cx="1762.93" cy="1922.66" class="cls-4" rx="29.69" ry="17.78" transform="matrix(0.13, -0.99, 0.99, 0.13, -865.83, 2207.93)"/></g></svg>