<svg xmlns="http://www.w3.org/2000/svg" id="Layer_1" data-name="Layer 1" viewBox="0 0 1751.78 445.81"><defs><style>.cls-1{fill:#f9db03}.cls-2{opacity:.6}.cls-3{fill:#fff}.cls-4{fill:#390075}</style></defs><title>Cheese</title><g id="Cheese"><path d="M2877.76,2515.62c-9.9,17.33-58.87,43.81-110.15,70.53-119,62-227.38,244.12-261.25,249.71-45,7.44-404.61-133.11-561.12-151.84-271.89-32.55-427-13.22-676.34-73.74-34.62-8.41-87.15-30.55-97.05-49.16-14.55-27.35-22.18-65.25-1.33-114.89l3.76-.07,1674.1-28.52c10.21,9,20.27,25.43,26.76,42.87C2882.61,2480.73,2885.31,2502.4,2877.76,2515.62Z" class="cls-1" transform="translate(-1145.97 -2405.94)"/><g class="cls-2"><path d="M2877.76,2515.62c-9.9,17.33-58.87,43.81-110.15,70.53-119,62-227.38,244.12-261.25,249.71-45,7.44-404.61-133.11-561.12-151.84-271.89-32.55-427-13.22-676.34-73.74-34.62-8.41-87.15-30.55-97.05-49.16-10.6-19.95-17.52-45.5-12.44-77.14a120.12,120.12,0,0,0,12.44,36c9.9,18.65,62.43,40.75,97.05,49.16,249.32,60.52,404.45,41.19,676.34,73.74,156.51,18.73,516.13,159.28,561.12,151.88,33.87-5.59,142.26-187.71,261.25-249.71,51.28-26.76,100.25-53.2,110.15-70.53.39-.7.78-1.44,1.13-2.19C2883.27,2488.79,2883.86,2505,2877.76,2515.62Z" class="cls-3" transform="translate(-1145.97 -2405.94)"/></g><path d="M2502.66,2851.75c-27.68,0-93.41-20.49-209.3-57.4-118.6-37.77-266.2-84.77-350-94.8-102.26-12.24-186.82-17.05-268.61-21.7-135.79-7.72-253.07-14.39-409.57-52.37-28.79-7-92.88-30.12-107.18-57-18.06-34-15.63-93.5,5.9-144.79l28.86,12.11c-20,47.69-18.62,96.38-7.13,118,5.44,10.22,47.46,31.72,86.94,41.3,153.73,37.31,269.69,43.9,404,51.54,82.26,4.68,167.33,9.51,270.55,21.87,86.72,10.38,229.64,55.9,355.75,96.06,86.31,27.48,184.09,58.66,200.94,55.89,9.18-3,38.63-38.11,62.28-66.34,50.59-60.35,119.87-143,194.31-181.81,31-16.14,95.41-49.73,103.78-64.4,8.62-15.12-6.77-61.36-26.14-78.52l20.75-23.42c26.11,23.13,51.09,84.95,32.58,117.44-10.93,19.16-47.81,40.84-116.5,76.65-68.93,35.92-135.9,115.82-184.79,174.16-43,51.28-62.76,74.08-81.17,77.12A39.76,39.76,0,0,1,2502.66,2851.75Z" class="cls-4" transform="translate(-1145.97 -2405.94)"/></g></svg>