<svg xmlns="http://www.w3.org/2000/svg" id="Layer_1" data-name="Layer 1" viewBox="0 0 618.34 1692.27"><defs><style>.cls-1{fill:#848484}.cls-2{fill:#390075}.cls-3{fill:#b2b2b2}.cls-4{opacity:.6}.cls-5{fill:#fff}.cls-6{fill:#f9db03}.cls-7{opacity:.3}.cls-8{fill:#ff954d}</style></defs><title>Fork</title><g id="Fork"><polygon points="409.2 1018.59 269.84 1044.58 192.28 533.97 297.46 514.35 409.2 1018.59" class="cls-1"/><path d="M767.11,2268.82l-78.29-515.44,109.83-20.49.51,2.31,112.28,506.7Zm-72.75-511.5,76.82,505.77L905.58,2238,794.9,1738.56Z" class="cls-2" transform="translate(-499.31 -1221.38)"/><path d="M908.53,2240l-139.37,26-64.37-423.86a37.29,37.29,0,0,0-25-29.86C487.45,1748.7,513,1374.32,520.27,1297.68a18.23,18.23,0,0,1,14.82-16.23,18.28,18.28,0,0,1,21.32,14.63l48,257.11a35.68,35.68,0,0,0,35,29.14,37.84,37.84,0,0,0,6.57-.63,35.59,35.59,0,0,0,28.48-41.58l-45.65-244.7a31.48,31.48,0,0,1-.51-5.68,30.91,30.91,0,0,1,61.3-5.63l45.61,244.71a35.68,35.68,0,0,0,35,29.1,37.84,37.84,0,0,0,6.57-.63,35.62,35.62,0,0,0,28.51-41.54l-48-257.14a19.22,19.22,0,0,1-.32-3.37,18.28,18.28,0,0,1,34.62-8.17c34.49,68.86,193.2,408.82,36.77,537.38a37.28,37.28,0,0,0-12.6,36.88Z" class="cls-3" transform="translate(-499.31 -1221.38)"/><path d="M767.12,2268.81l-64.75-426.35a34.65,34.65,0,0,0-23.4-27.91c-194.08-64.12-168.28-442-161.13-517.1a20.7,20.7,0,0,1,41-1.81l48,257.1a33.21,33.21,0,0,0,32.6,27.14,35.33,35.33,0,0,0,6.15-.58,33.15,33.15,0,0,0,26.5-38.73l-45.65-244.7A33.42,33.42,0,0,1,653.05,1257,33.36,33.36,0,0,1,692,1283.66l45.61,244.71a33.21,33.21,0,0,0,32.61,27.11,35.38,35.38,0,0,0,6.14-.59,33.18,33.18,0,0,0,26.54-38.69l-48-257.14a22.71,22.71,0,0,1-.35-3.82,20.72,20.72,0,0,1,39.25-9.26c33.77,67.43,194.25,410.41,36.13,540.36a34.64,34.64,0,0,0-11.76,34.46l93.33,421.12ZM538.44,1283.59a15.89,15.89,0,0,0-2.9.27,15.79,15.79,0,0,0-12.84,14.06c-7.08,74.45-32.75,449,157.81,512a39.49,39.49,0,0,1,26.69,31.82l64,421.35,134.39-25-92.24-416.18a39.52,39.52,0,0,1,13.44-39.3C982,1655,822.87,1315,789.38,1248.16a15.83,15.83,0,0,0-30,7.08,17.22,17.22,0,0,0,.27,3l48,257.11a38.09,38.09,0,0,1-30.47,44.4,40.62,40.62,0,0,1-7,.66,38.1,38.1,0,0,1-37.42-31.09l-45.6-244.71a28.47,28.47,0,0,0-56,10.41l45.64,244.7a38,38,0,0,1-30.42,44.44,40.64,40.64,0,0,1-7,.66A38.11,38.11,0,0,1,602,1553.64l-48-257.11A15.86,15.86,0,0,0,538.44,1283.59Z" class="cls-2" transform="translate(-499.31 -1221.38)"/><g class="cls-4"><path d="M604.36,1553.19a35.14,35.14,0,0,0,9.39,18.19,17.61,17.61,0,0,1-1.88.43,37.82,37.82,0,0,1-6.57.62,35.68,35.68,0,0,1-35-29.14L523,1289.7a16.87,16.87,0,0,1,2-2.62,18.27,18.27,0,0,1,31.45,9Z" class="cls-5" transform="translate(-499.31 -1221.38)"/></g><g class="cls-4"><path d="M735.17,1528.82a35,35,0,0,0,9.38,18.15,18,18,0,0,1-1.87.43,37.82,37.82,0,0,1-6.57.62,35.68,35.68,0,0,1-35-29.1l-45.61-244.71a30.49,30.49,0,0,0-6.3-13.69,29.8,29.8,0,0,1,4.3-1.13,30.93,30.93,0,0,1,36.07,24.72Z" class="cls-5" transform="translate(-499.31 -1221.38)"/></g><g class="cls-4"><path d="M908.53,2240l-139.37,26-2.39-15.8,107.69-20.07-92.78-418.65a37.38,37.38,0,0,1,12.59-36.89c151.85-124.74,6.85-448.61-33.37-530.56a18.23,18.23,0,0,1,30.67,3.09c34.5,68.84,193.19,408.83,36.77,537.37a37.25,37.25,0,0,0-12.6,36.88Z" class="cls-5" transform="translate(-499.31 -1221.38)"/></g><path d="M756.13,2284.32,689.4,1845a22.54,22.54,0,0,0-15.17-18.11c-87.18-29.15-142.57-118.32-164.62-265-16.74-111.45-9-222.94-4.9-265.7a33.81,33.81,0,0,1,8.67-19.61A34.2,34.2,0,0,1,534,1265.81c17.84-2.36,34.53,10,37.92,28.24l47.81,256.27a20,20,0,0,0,24.63,15.7c10-2.53,16.47-13.43,14.45-24.3L613.43,1298.3a46.22,46.22,0,0,1,7.36-34.86,46.73,46.73,0,0,1,33-19.91c24.11-2.82,46.74,14.26,51.34,38.9l45.42,243.49a20,20,0,0,0,23.19,16,19.13,19.13,0,0,0,12.27-8.21,22,22,0,0,0,3.62-16.41l-47.73-255.85a33.91,33.91,0,0,1,27.19-39.55c14.76-2.72,29.94,5.06,36.88,19,19.28,38.64,66.76,140.37,91.06,250.13,31.92,144.17,12.27,246.89-58.42,305.29h0a22.38,22.38,0,0,0-7.47,22.25l96.13,433.84Zm-217.78-987.5h-.21a2.74,2.74,0,0,0-1.66.86,2.71,2.71,0,0,0-.62,1.5c-7,72.55-32.55,437.6,148.29,498.05a53.73,53.73,0,0,1,36.19,43.09l61.86,407.29,107.54-20L800.6,1825.32a53.53,53.53,0,0,1,18.09-53.15h0C965.25,1651.09,810.48,1320,778,1254.85c-.7-1.39-2.17-2.37-3.2-2.16a2.6,2.6,0,0,0-2.09,3l47.72,255.84a53.55,53.55,0,0,1-8.63,39.94,50.19,50.19,0,0,1-32.49,21.22,51.29,51.29,0,0,1-59.49-41.08l-45.42-243.5c-1.56-8.37-9.14-14.43-16.94-13.55a15.23,15.23,0,0,0-13.24,18L689.6,1536c5.08,27.25-11.41,53.77-37.54,60.38A51.27,51.27,0,0,1,589,1556.05l-47.8-256.27C540.89,1298.19,539.55,1296.82,538.35,1296.82Zm290.31,487.42h0Z" class="cls-2" transform="translate(-499.31 -1221.38)"/><path d="M958.79,2896.18a104.88,104.88,0,0,1-122.9-87.35l-10.25-65.12-45-285.94-33.91-215.56a68.34,68.34,0,0,1,55-77.84l39.82-7.44a68.42,68.42,0,0,1,79.37,52.77l41,189.67,62.47,289.26,17.64,81.79A104.84,104.84,0,0,1,958.79,2896.18Z" class="cls-6" transform="translate(-499.31 -1221.38)"/><path d="M939.27,2900.34a107.31,107.31,0,0,1-105.71-91.15l-89.18-566.62a70.34,70.34,0,0,1,56.89-80.51l39.82-7.43a70.37,70.37,0,0,1,82.09,54.58l121.07,560.72a107.19,107.19,0,0,1-85,128.56h0A108.93,108.93,0,0,1,939.27,2900.34Zm-85-742.24a67.76,67.76,0,0,0-12.36,1.14l-39.82,7.44A65.68,65.68,0,0,0,749,2241.84l89.19,566.63a102.51,102.51,0,0,0,120.15,85.4h0a102.49,102.49,0,0,0,81.3-122.94L918.59,2210.2A65.67,65.67,0,0,0,854.31,2158.1Z" class="cls-2" transform="translate(-499.31 -1221.38)"/><g class="cls-4"><path d="M1015.63,2865.28a104.25,104.25,0,0,0,6.18-64.35l-17.65-81.79L941.7,2429.88l-41-189.67a68.4,68.4,0,0,0-79.36-52.76l-39.82,7.43a67.89,67.89,0,0,0-32.35,15.6,68.23,68.23,0,0,1,52.49-46.11l39.82-7.44a68.42,68.42,0,0,1,79.37,52.77l41,189.67,62.47,289.26,17.64,81.79A104.66,104.66,0,0,1,1015.63,2865.28Z" class="cls-5" transform="translate(-499.31 -1221.38)"/></g><g class="cls-7"><path d="M958.79,2896.18a104.88,104.88,0,0,1-122.9-87.35L828.38,2761a104.87,104.87,0,0,0,202.89-40.22l10.68,49.6A104.84,104.84,0,0,1,958.79,2896.18Z" class="cls-2" transform="translate(-499.31 -1221.38)"/></g><path d="M939.25,2913.64A120.61,120.61,0,0,1,820.42,2811.2l-89.18-566.56A83.59,83.59,0,0,1,798.83,2149l39.82-7.44a83.61,83.61,0,0,1,97.53,64.86l121.08,560.7a120.51,120.51,0,0,1-95.59,144.45A122,122,0,0,1,939.25,2913.64Zm-85-742.24a54,54,0,0,0-9.89.92l-39.81,7.43a52.46,52.46,0,0,0-42.42,60l89.2,566.64a89.22,89.22,0,0,0,104.58,74.39h0a89.23,89.23,0,0,0,70.76-107L905.59,2213A52.42,52.42,0,0,0,854.27,2171.4Z" class="cls-2" transform="translate(-499.31 -1221.38)"/><circle cx="838.83" cy="2252.98" r="27.56" class="cls-2" transform="translate(-2063.99 1083.31) rotate(-70.81)"/><path d="M1018.57,2520.29s27.91,55.32,55.82,21.43,34.88-122.1,20.43-147.52c-14-24.52-90.23-55-152.51-37.24S1018.57,2520.29,1018.57,2520.29Z" class="cls-8" transform="translate(-499.31 -1221.38)"/><g class="cls-7"><path d="M1074.38,2541.71c-27.89,33.88-55.82-21.43-55.82-21.43s-119.46-125.44-86.64-157.64c27.34,42.44,69,86.14,69,86.14s27.89,55.31,55.82,21.43c15.68-19.05,24.76-55.27,27.14-87.85,5,3.95,8.8,8,11,11.85C1109.27,2419.63,1102.31,2507.84,1074.38,2541.71Z" class="cls-2" transform="translate(-499.31 -1221.38)"/></g><path d="M1055.13,2568.35a36.49,36.49,0,0,1-3.88-.21c-24-2.68-40.45-29.3-45.52-38.66-27.11-28.66-106.1-117.19-93.75-162.56,3.34-12.28,12.58-21.16,26-25,68.9-19.7,152.39,12.87,170.41,44.55s9.17,127.4-22,165.19C1075.46,2565,1063.91,2568.35,1055.13,2568.35Zm-22.61-55.14c5.48,10.73,15.94,23.14,22.21,23.83,2.49.25,5.86-3.18,7.58-5.27,23.56-28.6,30.19-110,18.91-129.84-9.7-17.06-77.25-46.32-134.61-29.93-3.89,1.12-4.22,2.33-4.44,3.14-5.34,19.61,41.05,85.3,87.73,134.36l1.59,1.67Z" class="cls-2" transform="translate(-499.31 -1221.38)"/><g class="cls-7"><path d="M1024.31,2688.63a88.2,88.2,0,0,1-10,7.63c-37,23.82-97.48,52.45-172.58,49.72a78.42,78.42,0,0,1-16-2.27l-45-285.94c45.41-46.39,128.92-69.19,181.22-58.4Z" class="cls-2" transform="translate(-499.31 -1221.38)"/></g><path d="M837.88,2700.89c-34.28-1.25-64.23-24.84-74.79-58.7-14.62-46.87-30.11-117.87-15.65-178.77,24-101.17,217.23-144.89,251.8-83.73,33.7,59.61,45.15,144.13,49,195.53a82.94,82.94,0,0,1-37.84,75.93C973.51,2675,913,2703.61,837.88,2700.89Z" class="cls-8" transform="translate(-499.31 -1221.38)"/><g class="cls-4"><path d="M1041,2512.85c-7.74-30.75-18.42-61.41-33.17-87.5-36.18-64-238.29-18.27-263.4,87.58-1,4.3-1.92,8.64-2.62,13.06-.67-21.16.82-42.4,5.63-62.58,24-101.16,217.21-144.89,251.79-83.71C1021.38,2418.81,1033.89,2468.69,1041,2512.85Z" class="cls-5" transform="translate(-499.31 -1221.38)"/></g><g class="cls-7"><path d="M1010.46,2651.16c-37,23.86-97.47,52.45-172.58,49.72-34.3-1.26-64.22-24.84-74.78-58.68A515.13,515.13,0,0,1,749.25,2588c14.24,22.88,38.61,37.78,65.63,38.76,75.15,2.7,135.66-25.89,172.58-49.75a83,83,0,0,0,37.83-75.93c-2-26.05-5.87-60.59-13.65-96.1,24.25,56.48,33.24,125.83,36.65,170.31A83,83,0,0,1,1010.46,2651.16Z" class="cls-2" transform="translate(-499.31 -1221.38)"/></g><path d="M847.89,2716.72c-3.49,0-7-.07-10.57-.2h0c-40.8-1.48-76.63-29.48-89.17-69.67-15.63-50.12-31.08-123.25-15.93-187,16.52-69.58,98.47-111.82,167.61-121.61,54.44-7.73,96.71,4.92,113,33.8,34.09,60.31,46.57,143.16,51,202.05a98.56,98.56,0,0,1-45,90.25C981.38,2688.55,921.84,2716.72,847.89,2716.72Zm-9.44-31.47C909.16,2687.77,966.4,2661,1002,2638a67.29,67.29,0,0,0,30.73-61.6c-3.46-45.6-14.17-130.81-47.07-189-9.46-16.72-41.39-23.88-81.4-18.21-60.84,8.61-129,45-141.55,97.85-13.52,56.9.89,124.12,15.36,170.51,8.59,27.53,32.87,46.71,60.42,47.71Z" class="cls-2" transform="translate(-499.31 -1221.38)"/></g></svg>