<svg xmlns="http://www.w3.org/2000/svg" id="Layer_1" data-name="Layer 1" viewBox="0 0 1747.6 400.51"><defs><style>.cls-1{opacity:.3}.cls-2{fill:#390075}.cls-3{fill:#ff1a61}</style></defs><title>Jelly</title><g id="Jelly"><g class="cls-1"><path d="M2875.14,2460.51q-1.93,4.23-4.23,8.29c-29.61,52.93-79.79,65.37-137.64,82-77.73,22.37-160.68,39.09-257.54,47.37-329.1,28.11-691.43,42.15-1034.71-9.68-49.83-7.55-93-10.38-147.09-28.1-32.62-10.72-63.56-19-86.72-44.64-18-19.87-28.83-43.85-32.93-69.62l1674.1-28.52C2858.59,2426.68,2868.65,2443.07,2875.14,2460.51Z" class="cls-2" transform="translate(-1156.58 -2222.85)"/></g><path d="M2888.24,2371.6c-1,22.06-6.73,43.65-17.33,62.59-29.61,52.92-79.79,65.36-137.64,82-77.73,22.38-161.12,35-257.54,47.37-348.83,44.59-691.25,50.19-1034.53-1.64-49.83-7.55-94.15-11.89-148.21-29.61-32.62-10.72-62.62-25.55-85.78-51.17-21.2-23.39-32.42-52.45-34.54-83.43a157.42,157.42,0,0,1,0-23.39c3-42.48,18-88.79,36.85-123.57l1611.87-14.39C2867,2262.94,2890.82,2318.56,2888.24,2371.6Z" class="cls-3" transform="translate(-1156.58 -2222.85)"/><path d="M1945.62,2614.59c-174.48,0-342.54-12.4-506.75-37.2-8.24-1.24-16.32-2.39-24.32-3.54-41.17-5.89-80-11.46-126.43-26.66-41-13.45-70.39-31.09-92.52-55.51-28.13-31.06-41.82-73.13-38.54-118.47,3-42.19,17.52-90.74,38.71-129.89l27.52,14.89c-19.18,35.44-32.28,79.28-35,117.26-2.69,37.26,7.86,70.18,30.53,95.21,18.32,20.22,43.45,35.09,79.08,46.77,43.76,14.36,81.33,19.73,121.1,25.42,8.08,1.16,16.24,2.33,24.56,3.59,321.75,48.58,658.74,49.1,1030.2,1.58,102.67-13.13,181.17-25.56,255.21-46.88l7.22-2.07c53.55-15.34,95.85-27.47,121.09-72.54,32.8-58.57,11.53-144.42-43.76-176.67l15.76-27c70.2,40.94,96.56,145.32,55.3,219-31.54,56.32-84.11,71.38-139.78,87.33l-7.16,2.06c-76,21.88-155.77,34.53-259.9,47.85C2292.7,2602.75,2116.09,2614.59,1945.62,2614.59Z" class="cls-2" transform="translate(-1156.58 -2222.85)"/></g></svg>