<svg xmlns="http://www.w3.org/2000/svg" id="Layer_1" data-name="Layer 1" viewBox="0 0 575.79 1654.88"><defs><style>.cls-1{fill:#b2b2b2}.cls-2{fill:#390075}.cls-3{opacity:.6}.cls-4{fill:#fff}.cls-5{fill:#4089ff}.cls-6{opacity:.3}.cls-7{fill:#4a2922}.cls-8{fill:#ff954d}</style></defs><title>Knife</title><g id="Knife"><path d="M3119.16,2296.4s177.22-703.18,302.56-959.64c11.68-23.9,47-18.8,51.49,7.43,19.46,114.43,32.2,385.06-109.16,895.62-10.35,37.39-44.35,63-83.15,63.57-19.32.29-36,3.8-37.94,14.7Z" class="cls-1" transform="translate(-2924.84 -1305.72)"/><path d="M3245,2320.91l-128.8-22.55.64-2.55c1.78-7,178.72-706.37,302.73-960.12a29.76,29.76,0,0,1,56.1,8.09c19.76,116.2,31.85,387.22-109.21,896.68-10.66,38.49-45,64.75-85.47,65.37-15.26.23-33.81,2.61-35.57,12.67Zm-122.77-26.46,119,20.83c3.38-9.17,16.7-14,39.67-14.35,38.28-.57,70.76-25.4,80.83-61.78,140.81-508.55,128.8-778.75,109.11-894.55a24.86,24.86,0,0,0-46.88-6.76C3303.91,1583.39,3134.07,2247.65,3122.18,2294.45Z" class="cls-2" transform="translate(-2924.84 -1305.72)"/><g class="cls-3"><path d="M3463,1342.08c-125.33,256.44-302.56,959.62-302.56,959.62l83,14.55a14.17,14.17,0,0,0-.47,1.84l-123.8-21.67s177.19-703.22,302.52-959.66c9.9-20.26,36.81-19.67,47.49-3.09A28.12,28.12,0,0,0,3463,1342.08Z" class="cls-4" transform="translate(-2924.84 -1305.72)"/></g><path d="M3283.43,2303.28c37.73-1.63,70.49-26.9,80.61-63.49,141.37-510.54,128.62-781.16,109.17-895.6-3.78-22.21-29.72-29.26-44.66-16.38,15.59,146,10.83,442.38-137.91,957.58A93.74,93.74,0,0,1,3283.43,2303.28Z" class="cls-4" transform="translate(-2924.84 -1305.72)"/><path d="M3257.27,2323a4.32,4.32,0,0,0,1.1-2.23l-30.82-5.4c3.13-17.86,21-27.16,53.11-27.64,32.37-.49,59.82-21.43,68.31-52.11,140.13-506.08,128.32-774.1,108.82-888.82a11.66,11.66,0,0,0-22-3.18c-123.19,252.06-299.68,949.58-301.44,956.6l-30.35-7.65c7.25-28.78,179.05-707.7,303.67-962.69a43,43,0,0,1,81,11.68c19.94,117.28,32.23,390.48-109.51,902.41-12.05,43.5-52.34,74.36-98,75C3261.8,2319.32,3257.31,2323,3257.27,2323Z" class="cls-2" transform="translate(-2924.84 -1305.72)"/><path d="M3253.7,2345.75c-5.44,21.59-14.47,57.5-25,99.58-17.79,71.31-39.86,160.42-56,227.73-7.82,32.67-9.15,57.54-7.67,78.51,3.21,46,19.72,73.11,9.27,121.69-14.7,68.49-91.25,92.27-152,52.22-75.61-49.91-41.3-177.43-27.3-225.39.9-3.13,2.23-7.59,3.87-13.22,14.28-48.77,54-184.27,83.16-283.7,11.62-39.7,21.59-73.7,27.58-94.08a22.28,22.28,0,0,1,26.71-15.37l101.16,25A22.28,22.28,0,0,1,3253.7,2345.75Z" class="cls-5" transform="translate(-2924.84 -1305.72)"/><g class="cls-6"><path d="M3174.29,2873.26c-14.7,68.49-91.25,92.27-152,52.22-49.44-32.63-51.87-98.42-43.73-153.45,5.59,28,18.58,53.15,43.73,69.74,58.28,38.41,131.08,18.11,149.93-44C3176.84,2821.12,3180.79,2843,3174.29,2873.26Z" class="cls-2" transform="translate(-2924.84 -1305.72)"/></g><path d="M3084.9,2960.6c-24.28,0-49.15-7.49-71.24-22.07-58.2-38.38-69.54-120.08-33.71-242.83,12-41.08,91.89-313.58,114.59-391a37.87,37.87,0,0,1,45.5-26.14l101.11,24.93a37.92,37.92,0,0,1,27.72,46.1c-15.9,63.15-55.62,221.43-81,327.14-13.12,54.68-6.92,85.49-.93,115.29,4.93,24.56,10,49.95,2.61,84.53-7.52,35.1-30.25,62.76-62.34,75.88A111.68,111.68,0,0,1,3084.9,2960.6Zm46-651.87a6.65,6.65,0,0,0-6.37,4.78c-22.7,77.4-102.59,349.88-114.58,391-31.53,108-24.5,178,20.9,207.94,26.73,17.63,58.32,21.75,84.51,11,22.7-9.28,38.18-28.27,43.59-53.47,6.06-28.23,2-48.42-2.7-71.8-6.35-31.58-13.55-67.38,1.18-128.76,25.4-105.87,65.16-264.29,81.07-327.48a6.66,6.66,0,0,0-4.87-8.08l-101.12-24.93A6.82,6.82,0,0,0,3130.93,2308.73Z" class="cls-2" transform="translate(-2924.84 -1305.72)"/><circle cx="3170.38" cy="2376.52" r="20.15" class="cls-7" transform="translate(-3714.75 947.33) rotate(-35.07)"/><path d="M3170.43,2399.12a22.79,22.79,0,0,1-3.94-.34h0a22.55,22.55,0,1,1,3.94.34Zm-.09-40.31a17.71,17.71,0,0,0-3,35.15h0a17.71,17.71,0,0,0,6.11-34.89A18.1,18.1,0,0,0,3170.34,2358.81Z" class="cls-2" transform="translate(-2924.84 -1305.72)"/><path d="M3023.91,2520.29s-27.9,55.32-55.81,21.43-34.89-122.1-20.44-147.52c14-24.52,90.24-55,152.52-37.24S3023.91,2520.29,3023.91,2520.29Z" class="cls-8" transform="translate(-2924.84 -1305.72)"/><g class="cls-6"><path d="M3023.89,2520.28s-27.88,55.31-55.77,21.43-34.9-122.08-20.46-147.5c2.5-4.38,7-9,13-13.38-.11,36.15,9.2,82.81,27.78,105.38,27.93,33.91,55.81-21.44,55.81-21.44s44.56-46.82,71.78-90.59C3121.68,2417.56,3023.89,2520.28,3023.89,2520.28Z" class="cls-2" transform="translate(-2924.84 -1305.72)"/></g><path d="M2987.35,2568.35c-8.77,0-20.33-3.32-31.34-16.69-31.11-37.79-39.92-133.58-21.94-165.19s101.51-64.26,170.41-44.55c13.44,3.84,22.69,12.72,26,25,12.35,45.38-66.64,133.9-93.75,162.56-5.07,9.36-21.5,36-45.53,38.66A36.49,36.49,0,0,1,2987.35,2568.35Zm72.26-201.18c-46.55,0-90.65,21.23-98.34,34.76-11.29,19.85-4.65,101.24,18.91,129.84,1.71,2.09,5.09,5.54,7.58,5.27,6.26-.69,16.73-13.11,22.2-23.84l1-2,1.58-1.68c46.68-49.06,93.07-114.75,87.74-134.36-.22-.81-.56-2-4.45-3.14A132,132,0,0,0,3059.61,2367.17Z" class="cls-2" transform="translate(-2924.84 -1305.72)"/><g class="cls-6"><path d="M3172.69,2673.06c-7.82,32.67-9.15,57.54-7.67,78.51-64.07-3.25-115.7-28.28-148.64-49.56a83.85,83.85,0,0,1-17.56-15.14c14.28-48.77,54-184.27,83.16-283.7,44.28-4.27,104.09,11.38,146.72,42.16C3210.91,2516.64,3188.84,2605.75,3172.69,2673.06Z" class="cls-2" transform="translate(-2924.84 -1305.72)"/></g><path d="M3204.6,2700.89c34.29-1.25,64.23-24.84,74.79-58.7,14.62-46.87,30.11-117.87,15.65-178.77-24-101.17-217.22-144.89-251.79-83.73-33.7,59.61-45.16,144.13-49.05,195.53a83,83,0,0,0,37.83,75.93C3069,2675,3129.48,2703.61,3204.6,2700.89Z" class="cls-8" transform="translate(-2924.84 -1305.72)"/><g class="cls-3"><path d="M3299.66,2533.5a201.85,201.85,0,0,0-4.62-28.4c-24-101.15-217.2-144.88-251.78-83.7-28.67,50.73-41.27,119.45-46.75,170.5a80.52,80.52,0,0,1-2.3-26.44c3.87-51.4,15.33-135.93,49.05-195.54,34.58-61.18,227.77-17.45,251.78,83.71C3301.15,2479.33,3301.93,2506.78,3299.66,2533.5Z" class="cls-4" transform="translate(-2924.84 -1305.72)"/></g><g class="cls-6"><path d="M3279.4,2642.2c-10.56,33.84-40.53,57.42-74.79,58.68-75.14,2.73-135.65-25.86-172.58-49.72a83,83,0,0,1-37.82-75.92c1.13-15.1,2.89-33,5.75-52.38a83.1,83.1,0,0,0,32.07,38.88c36.93,23.86,97.44,52.46,172.58,49.76,34.26-1.25,64.23-24.84,74.79-58.72a495.35,495.35,0,0,0,17.91-78.19C3307.64,2532.84,3293.13,2598.2,3279.4,2642.2Z" class="cls-2" transform="translate(-2924.84 -1305.72)"/></g><path d="M3194.59,2716.72c-74,0-133.48-28.17-171.05-52.43a98.57,98.57,0,0,1-44.95-90.25c4.47-58.89,16.94-141.74,51-202.05,16.32-28.88,58.59-41.53,113-33.8,69.13,9.79,151.07,52,167.59,121.61,15.15,63.8-.29,136.93-15.93,187-12.54,40.19-48.37,68.19-89.16,69.67h0C3201.62,2716.65,3198.09,2716.71,3194.59,2716.72Zm-82.2-349.46c-27.49,0-48.22,7.21-55.53,20.13-32.9,58.2-43.61,143.41-47.07,189a67.3,67.3,0,0,0,30.74,61.6c35.55,23,92.64,49.73,163.5,47.25h0c27.55-1,51.84-20.18,60.43-47.71,14.47-46.39,28.87-113.61,15.35-170.51-12.55-52.86-80.7-89.24-141.53-97.85A185.44,185.44,0,0,0,3112.39,2367.26Z" class="cls-2" transform="translate(-2924.84 -1305.72)"/></g></svg>