<svg xmlns="http://www.w3.org/2000/svg" id="Layer_1" data-name="Layer 1" viewBox="0 0 1824.93 525.42"><defs><style>.cls-1{opacity:.3}.cls-2{fill:#4a2922}.cls-3{fill:#390075}.cls-4{fill:#13e23a}.cls-5{opacity:.6}.cls-6{fill:#fff}</style></defs><title>Leaves</title><g id="Leaves"><g class="cls-1"><path d="M2888.24,2371.6a88.6,88.6,0,0,1-28.94,18.82c-57,22.49-137.22-6.69-190.11,24.17-51.86,30.27-63.36,110.07-160.92,110.27-70.52.15-134.79-60.63-199.45-32.51-53,23-81.87,83.4-137.72,97.87-81.6,21.2-145.47-93.45-229.53-87.46-55.55,4-96.15,60-151.5,66.34-75.41,8.64-133.81-76.79-209.69-78.43-32.12-.67-62.24,14-92.67,24.33s-65.91,16-93.17-1c-30.86-19.24-41.54-61.68-73.11-79.79-30.2-17.29-68.37-6.5-102.56-12.95-17.49-3.29-33.25-11.78-46.2-23.55a157.42,157.42,0,0,1,0-23.39c3-42.48,18-88.79,36.85-123.57l1611.87-14.39C2867,2262.94,2890.82,2318.56,2888.24,2371.6Z" class="cls-2" transform="translate(-1120.96 -2069.84)"/><path d="M2150.88,2595.25c-35.62,0-68.4-22.65-100.28-44.68-34.26-23.68-69.78-48.17-108.86-45.38-27.72,2-52.34,17.68-76.15,32.85-23.39,14.91-47.57,30.32-75.24,33.48-40.44,4.68-76.45-17.44-111.28-38.79-31.16-19.1-63.37-38.85-98.75-39.61-24.8-.55-48.86,8.44-72.17,17.09-6.55,2.44-13.09,4.87-19.65,7.1-40.11,13.6-72.17,13.2-95.26-1.21-15.55-9.7-26.14-25.16-36.38-40.1-10.81-15.78-21-30.7-36.65-39.66-18.13-10.38-39.07-10.31-61.23-10.24-13.42,0-27.33.08-40.56-2.42a97.56,97.56,0,0,1-47.39-24.14l-.72-.66-.07-1a157,157,0,0,1,0-23.76c2.9-40.37,16.78-86.93,37.13-124.55l.69-1.27h1.44l1612.55-14.4.58.33c44.15,25.74,70.87,79.7,68,137.46l0,1-.7.67a91,91,0,0,1-29.75,19.32c-26.81,10.59-58.89,9.92-89.93,9.27-35.4-.73-72-1.5-99.83,14.74-17.65,10.31-30.52,26.47-44.14,43.58-26.17,32.89-53.23,66.89-118,67H2508c-29.63,0-58.12-10.55-85.69-20.76-38.88-14.4-75.62-28-112.51-11.95-23.82,10.35-43.09,28.76-61.72,46.56-22.34,21.35-45.43,43.42-76.37,51.43A82.17,82.17,0,0,1,2150.88,2595.25Zm-203-95.17c38.22,0,72.37,23.6,105.46,46.47,38.79,26.81,75.45,52.15,117.09,41.3,29.7-7.7,51.33-28.36,74.22-50.23,19-18.1,38.54-36.82,63.15-47.51,38.69-16.85,76.33-2.91,116.16,11.84,27.16,10.06,55.24,20.46,84,20.46h.26c62.42-.12,88.74-33.19,114.19-65.17,13.91-17.48,27.05-34,45.5-44.76,29-16.93,66.33-16.16,102.4-15.41,30.54.65,62.14,1.3,88-8.93a85.78,85.78,0,0,0,27.44-17.63c2.32-54.51-23.74-107.23-65.1-131.68L1211,2253.2c-19.67,36.82-33.06,82.05-35.88,121.31a154.76,154.76,0,0,0-.07,22.06,92.44,92.44,0,0,0,44.28,22.3c12.79,2.42,26.44,2.36,39.64,2.33,21.84-.08,44.41-.13,63.69,10.91,16.58,9.51,27.6,25.59,38.25,41.13,9.95,14.53,20.24,29.55,34.93,38.7,21.8,13.61,52.45,13.85,91.09.74,6.52-2.21,13-4.63,19.53-7,23.74-8.82,48.3-17.93,74-17.41,36.7.8,69.5,20.9,101.21,40.34,35.68,21.88,69.4,42.53,108.16,38.11,26.55-3.05,50.25-18.14,73.17-32.75,24.32-15.5,49.48-31.52,78.43-33.6C1943.58,2500.16,1945.77,2500.08,1947.93,2500.08Z" class="cls-3" transform="translate(-1120.96 -2069.84)"/></g><path d="M2859.3,2351.3c-57,22.49-137.22-6.69-190.11,24.17-51.86,30.28-63.36,110.07-160.92,110.27-70.52.16-134.79-60.63-199.45-32.5-53,23-81.87,83.39-137.72,97.86-81.6,21.2-145.47-93.44-229.53-87.46-55.55,4-96.15,60-151.5,66.34-75.41,8.64-133.81-76.78-209.69-78.43-32.12-.66-62.24,14-92.67,24.33s-65.91,16-93.17-1c-30.86-19.25-41.54-61.69-73.11-79.8-30.2-17.29-68.37-6.49-102.56-13-50.11-9.46-86-61.33-81.91-112.18,3.13-38.92,21.32-69,47-92.94,26.79-25.07,61.72-43.46,96.22-58.36L2750,2085.31c41.58,5.79,84.41,11.93,120.63,33.14,2.82,1.64,5.55,3.44,8.18,5.31,30.94,22.14,47.36,59.19,51,97.72S2911.59,2330.69,2859.3,2351.3Z" class="cls-4" transform="translate(-1120.96 -2069.84)"/><g class="cls-5"><path d="M2859.3,2361.08c-57,22.49-137.22-6.69-190.11,24.17-51.86,30.28-63.36,110.07-160.92,110.27-70.52.16-134.79-60.63-199.45-32.51-53,23-81.87,83.4-137.72,97.87-81.6,21.2-145.47-93.45-229.53-87.46-55.55,4-96.15,60-151.5,66.34-75.41,8.64-133.81-76.79-209.69-78.43-32.12-.66-62.24,14-92.67,24.33s-65.91,16-93.17-1c-30.86-19.24-41.54-61.68-73.11-79.79-30.2-17.29-68.37-6.49-102.56-12.95-50.11-9.46-86-61.33-81.91-112.18a135.08,135.08,0,0,1,2.19-15.8c8.76,39.5,39.7,74,79.72,81.59,34.19,6.45,72.36-4.34,102.56,12.95,31.57,18.11,42.25,60.55,73.11,79.79,27.26,17,62.74,11.31,93.17,1s60.55-25,92.67-24.33c75.88,1.64,134.28,87.07,209.69,78.43,55.35-6.34,96-62.35,151.5-66.34,84.06-6,147.93,108.66,229.53,87.46,55.85-14.47,84.76-74.87,137.72-97.87,64.66-28.12,128.93,32.66,199.45,32.51,97.56-.2,109.06-80,160.92-110.27,52.89-30.86,133.12-1.68,190.11-24.17,39.62-15.61,61.8-60,68.61-97.32.86,4.57,1.48,9.23,1.91,13.88C2933.5,2269.78,2911.59,2340.47,2859.3,2361.08Z" class="cls-6" transform="translate(-1120.96 -2069.84)"/></g><path d="M2150.51,2569.43c-39.23,0-73.78-23.88-107.38-47.1-33.9-23.42-65.94-45.54-100.45-43.08-24.41,1.75-46.57,15.87-70,30.83-24.64,15.7-50.12,31.93-80.79,35.45-44.91,5.14-82.94-18.13-119.68-40.65-31-19-60.33-37-92.14-37.67-22.3-.55-44.13,7.65-67.3,16.26-6.66,2.47-13.32,4.94-20,7.21-44,15-79.8,14.15-106.48-2.49-17.91-11.16-29.3-27.78-40.31-43.85-9.94-14.49-19.32-28.19-32.31-35.65-15.07-8.64-34.25-8.56-54.67-8.52-14,0-28.55.09-43-2.64-57.08-10.76-99.53-68.54-94.62-128.81,7.37-90.45,85.43-135.36,152.61-164.39l12.41,28.73c-59.15,25.55-127.81,64.36-133.83,138.2-3.59,44,28.11,87.76,69.22,95.51,11.54,2.18,24,2.14,37.13,2.1,23.62-.06,48-.14,70.33,12.68,19.19,11,31.07,28.34,42.56,45.11,9.61,14,18.69,27.28,31,35,18.32,11.4,45.19,11.22,79.85-.58,6.4-2.18,12.78-4.55,19.17-6.93,24.91-9.25,50.45-18.76,78.87-18.21,40.28.87,74.62,21.92,107.82,42.28,33.7,20.66,65.53,40.17,99.77,36.24,23.5-2.69,44.89-16.32,67.53-30.75,25.71-16.39,52.3-33.34,84.61-35.65,45.44-3.3,83.63,23.08,120.48,48.54,36.23,25,70.45,48.69,106.24,39.39,26.39-6.85,46.81-26.36,68.43-47,19.78-18.89,40.23-38.44,67-50.07,43.6-18.94,85.51-3.42,126,11.59,26.06,9.65,53,19.63,79.42,19.63h.22c56.08-.11,79.3-29.3,103.89-60.19,14.06-17.66,28.59-35.92,49.17-47.94,32.24-18.82,71.46-18,109.36-17.22,30.59.65,59.47,1.25,82.88-8,45.9-18.1,63.66-82.72,60.71-113.81-3.89-41-22.66-74.13-51.5-91-34.12-19.94-75.19-25.62-114.9-31.12l4.28-31c40.75,5.64,86.94,12,126.41,35.09,37.64,22,62,63.94,66.86,115.05,4.38,46.14-21.11,122.51-80.37,145.89-29.27,11.54-62.7,10.83-95,10.17-35.11-.74-68.3-1.42-92.94,13-15.51,9.06-27.63,24.28-40.45,40.4-25.48,32-57.19,71.85-128.31,72h-.3c-32,0-61.63-11-90.28-21.58-37.9-14-70.64-26.17-102.69-12.23-21.64,9.41-39.23,26.21-57.83,44-23.57,22.52-47.93,45.79-82.2,54.69A96.87,96.87,0,0,1,2150.51,2569.43Z" class="cls-3" transform="translate(-1120.96 -2069.84)"/><path d="M1455.53,2421.25c-1.46-9.43-2.31-18.8-2.83-28.32a273.46,273.46,0,0,1,0-28.78c1.19-19.33,4.09-39.31,14.17-59.29l.07-.14a15.77,15.77,0,0,1,28.16,14.21,16.34,16.34,0,0,1-2.09,3.14A96,96,0,0,0,1480,2342.5a175.38,175.38,0,0,0-9.15,24.67,257.61,257.61,0,0,0-6.13,26.49c-1.59,9-2.87,18.18-3.56,27.28v.09a2.85,2.85,0,0,1-5.66.22Z" class="cls-3" transform="translate(-1120.96 -2069.84)"/><path d="M1779.66,2436.8a376.88,376.88,0,0,0-7.06-40.7,236.84,236.84,0,0,0-11.89-38,15.85,15.85,0,1,1,30.4-7.63l0,.31a262.21,262.21,0,0,1-.09,44.06,387.64,387.64,0,0,1-5.71,42.29,2.87,2.87,0,0,1-5.66-.21Z" class="cls-3" transform="translate(-1120.96 -2069.84)"/><path d="M2530.15,2422.27a214.12,214.12,0,0,0-8.67-25.4A220.16,220.16,0,0,0,2510,2373a166.06,166.06,0,0,0-14.26-21.51,129.66,129.66,0,0,0-17-17.78l-.22-.2a15.77,15.77,0,1,1,20.88-23.63,16.32,16.32,0,0,1,2.43,2.71,158,158,0,0,1,15.26,26.09,188.49,188.49,0,0,1,10,27.29,238.22,238.22,0,0,1,6.08,27.7,223.14,223.14,0,0,1,2.66,27.93,2.85,2.85,0,0,1-5.61.82Z" class="cls-3" transform="translate(-1120.96 -2069.84)"/><path d="M2870,2276.54a92.72,92.72,0,0,0-7.63-23.83,82.1,82.1,0,0,0-13.45-20.06c-2.5-3-5.6-5.46-8.42-8-3.18-2.2-6.08-4.57-9.51-6.22-6.42-3.86-13.72-6-20.81-7.9l-.65-.17a15.79,15.79,0,0,1,8.18-30.51,16.44,16.44,0,0,1,3.46,1.38c9,4.89,17.66,10.23,24.91,17.4,3.81,3.29,6.94,7.3,10.14,11.08,2.84,4.1,5.78,8.06,7.93,12.46a97.35,97.35,0,0,1,9.7,26.78,100.65,100.65,0,0,1,1.83,27.58,2.84,2.84,0,0,1-5.63.26Z" class="cls-3" transform="translate(-1120.96 -2069.84)"/><path d="M2605.13,2372.41a117.49,117.49,0,0,0-3.93-19,80.22,80.22,0,0,0-7.08-17.26c-3-5.13-6.39-9.81-10.4-12.62a23.17,23.17,0,0,0-12.13-4.36,13.89,13.89,0,1,1,6-26.84l.83.32a48.3,48.3,0,0,1,21.41,16.21c5.16,6.92,7.68,14.46,9.47,21.66a93.38,93.38,0,0,1,2.39,21.41,124.83,124.83,0,0,1-1.58,20.74,2.5,2.5,0,0,1-5-.1Z" class="cls-3" transform="translate(-1120.96 -2069.84)"/><path d="M1211.94,2289.34a91.78,91.78,0,0,1,6.19-21.21,84.39,84.39,0,0,1,11.56-19.46,68.49,68.49,0,0,1,17.88-16c6.93-4.61,14.91-7.25,23-9.36a15.76,15.76,0,1,1,8,30.49,15.17,15.17,0,0,1-3.1.5l-.84,0c-4.93.25-10.08.5-14.8,2.36a43.71,43.71,0,0,0-13.82,7.63,63.58,63.58,0,0,0-11.78,12.53,78,78,0,0,0-8.64,15.54l-.27.65a7,7,0,0,1-13.33-3.76Z" class="cls-3" transform="translate(-1120.96 -2069.84)"/></g></svg>