<svg xmlns="http://www.w3.org/2000/svg" id="Layer_1" data-name="Layer 1" viewBox="0 0 1743.8 377.47"><defs><style>.cls-1{fill:#c14d56}.cls-2{fill:#390075}</style></defs><title>Meat</title><g id="Meat"><path d="M2868.18,2647.48c-22.89,52.61-73.46,81.56-125.41,103.85-41.58,17.84-97.44,32.94-158.81,44.87-85.11,16.47-180.87,26.75-263.95,29.34-.59,0-1.17.08-1.76.08-327.24,9.89-611.41,16.23-951.88-53.44-42-8.56-105.49-23.82-141.12-47.95s-56.14-76.47-59.58-119.93a155.48,155.48,0,0,1-.19-18c1.44-34.82,12.16-88.09,37.7-99.71l1632.57-9.39c15,28.95,29,56.88,36.49,84.45C2880,2590.37,2880.69,2618.69,2868.18,2647.48Z" class="cls-1" transform="translate(-1149.72 -2470.01)"/><path d="M2009.24,2847.48c-204.3,0-412.19-12.13-646-60-69.87-14.29-117.89-30.76-146.8-50.36-40.85-27.68-62.77-86.06-66.38-131.64-2.2-27.69,5-114.23,46.64-133.15l13,28.49c-19.11,8.69-31,68.95-28.4,102.19,2.92,36.88,20.67,86.47,52.75,108.21,25.08,17,70.67,32.34,135.51,45.61,348.24,71.24,639.69,62.43,948.26,53.09,128.85-3.9,314.86-28.41,418.82-73,46-19.72,95.82-46.51,117.22-95.7,20.94-48.13,0-95.35-32-156.82l27.78-14.42c28.77,55.4,61.38,118.2,32.87,183.72-25.76,59.22-82,89.84-133.58,112-107.7,46.21-298.5,71.54-430.2,75.53C2214.59,2844.39,2112.36,2847.48,2009.24,2847.48Z" class="cls-2" transform="translate(-1149.72 -2470.01)"/></g></svg>