<svg xmlns="http://www.w3.org/2000/svg" id="Layer_1" data-name="Layer 1" viewBox="0 0 1748.32 1040.07"><defs><style>.cls-1{fill:#ff954d}.cls-2{opacity:.6}.cls-3{fill:#fff}.cls-4{opacity:.3}.cls-5{fill:#390075}.cls-6{fill:#ff5548}.cls-7{opacity:.7}.cls-8{fill:#000072}</style></defs><title>Top Bun</title><g id="Top_Bun"><path d="M2024.56,1345.58c797.8,0,953.3,664,812.1,830.94-162,191.53-753,177.66-812.1,177.66s-650.12,13.87-812.09-177.66C1071.27,2009.56,1226.77,1345.58,2024.56,1345.58Z" class="cls-1" transform="translate(-1140.11 -1329.93)"/><g class="cls-2"><path d="M2024.57,1330.89c-168.62,0-308.48,29.72-423,78.09-92.36,39-168.19,90.17-229.17,147.77-202.33,191.11-241.38,452.82-179.64,575-34.36-144.29,27.83-390.19,239.07-561,26.27-3,57.27-13.51,87.76-31.11,35.34-20.4,62.74-46.17,77.63-70.54,118.48-54.1,265.51-87.84,445.21-87.84,476.89,0,724.26,237.23,816,463.75C2784.39,1604.74,2537,1330.89,2024.57,1330.89Z" class="cls-3" transform="translate(-1140.11 -1329.93)"/></g><g class="cls-4"><path d="M2792.64,2171.64c-162,191.51-753,177.67-812.07,177.67-55,0-571.13,12-772.81-140.9C1445,2296.46,1816.91,2288,1863.1,2288c59.07,0,650.14,13.89,812.12-177.66,100.21-118.48,51-487.22-271.11-691.37C2830.9,1599.5,2904,2040,2792.64,2171.64Z" class="cls-5" transform="translate(-1140.11 -1329.93)"/></g><path d="M2053.33,2370q-14.2,0-27.69-.11c-4.85,0-8.67-.06-11.37-.06s-6.53,0-11.38.06c-244.2,1.87-674.13-19.45-812.67-183.27-69.25-81.89-66.45-255.71,6.66-413.3,61.85-133.31,265.32-443.39,817.39-443.39s755.52,310.07,817.37,443.38c73.12,157.59,75.93,331.42,6.67,413.31C2704.87,2344.4,2301,2370,2053.33,2370Zm-39.06-31.46c2.76,0,6.66,0,11.61.06,9.59.08,19.18.11,28.64.11,390.85,0,667-62.41,759.89-172.29,51.69-61.13,65.35-215.05-11.15-379.93-59.33-127.87-255-425.26-789-425.26s-729.68,297.39-789,425.26c-76.5,164.88-62.84,318.8-11.15,379.93C1307,2276.29,1583.2,2338.71,1974,2338.71q14.23,0,28.64-.11C2007.61,2338.57,2011.51,2338.54,2014.27,2338.54Z" class="cls-5" transform="translate(-1140.11 -1329.93)"/><ellipse cx="413.11" cy="800.75" class="cls-6" rx="102.51" ry="53.36"/><ellipse cx="1355.81" cy="800.75" class="cls-6" rx="102.51" ry="53.36"/><g class="cls-7"><path d="M1783.45,1492.72c-10.4,10.47-24.73,31.91-17.29,66.44a8.38,8.38,0,0,0,14.55,3.72c23.1-26.71,20.83-52.4,16.74-66.58A8.33,8.33,0,0,0,1783.45,1492.72Z" class="cls-3" transform="translate(-1140.11 -1329.93)"/></g><g class="cls-7"><path d="M2257.32,1486.38c-6,13.48-11.73,38.62,7.53,68.23a8.38,8.38,0,0,0,14.92-1.71c12.06-33.19.78-56.38-8.1-68.17A8.33,8.33,0,0,0,2257.32,1486.38Z" class="cls-3" transform="translate(-1140.11 -1329.93)"/></g><g class="cls-7"><path d="M1934.81,1540.87c-9.26,11.49-21.29,34.3-10.31,67.86a8.39,8.39,0,0,0,14.87,2.2c20.2-29,15.27-54.28,9.73-68A8.33,8.33,0,0,0,1934.81,1540.87Z" class="cls-3" transform="translate(-1140.11 -1329.93)"/></g><g class="cls-7"><path d="M2140,1545.63c-6.06,13.45-12,38.55,7.1,68.28a8.38,8.38,0,0,0,14.94-1.62c12.27-33.12,1.13-56.38-7.67-68.22A8.33,8.33,0,0,0,2140,1545.63Z" class="cls-3" transform="translate(-1140.11 -1329.93)"/></g><path d="M1933.85,1987.71c6.26,12.57,11.17,23.56,16.92,33.3a124.34,124.34,0,0,0,18.87,25.36,89.25,89.25,0,0,0,24.41,18.18,66.94,66.94,0,0,0,30.51,6.81,73.29,73.29,0,0,0,30.31-7.31,86.4,86.4,0,0,0,24.46-17.81c7.13-7.22,12.77-15.87,18-25.58,5.46-9.69,10.5-20.39,18-33l.06-.11a3.24,3.24,0,0,1,5.64.11c7.14,13.12,8.8,28.16,6.2,42.88-2.79,14.67-10,28.9-20.1,40.72a96.25,96.25,0,0,1-37.84,26.44,120.27,120.27,0,0,1-44.68,8.05,130.27,130.27,0,0,1-44.46-8.55c-14.27-5.48-27.75-14.23-37.9-26.08a84.12,84.12,0,0,1-19.2-40.93c-2.32-14.68-.79-29.41,5.14-42.53a3.15,3.15,0,0,1,4.15-1.56,3.11,3.11,0,0,1,1.5,1.45Z" class="cls-5" transform="translate(-1140.11 -1329.93)"/><ellipse cx="2368.31" cy="1866.23" class="cls-8" rx="172.06" ry="132.74" transform="translate(-1004.71 2562.58) rotate(-80.46)"/><ellipse cx="2328.79" cy="1824.11" class="cls-3" rx="59.35" ry="35.58" transform="translate(-1038.84 2440.65) rotate(-79.22)"/><ellipse cx="2423.01" cy="1922.66" class="cls-3" rx="29.69" ry="17.78" transform="matrix(0.13, -0.99, 0.99, 0.13, -929.72, 2754.19)"/><ellipse cx="1708.24" cy="1866.23" class="cls-8" rx="172.06" ry="132.74" transform="translate(-1555.39 1911.64) rotate(-80.46)"/><ellipse cx="1668.72" cy="1824.11" class="cls-3" rx="59.35" ry="35.58" transform="translate(-1575.45 1792.22) rotate(-79.22)"/><ellipse cx="1762.93" cy="1922.66" class="cls-3" rx="29.69" ry="17.78" transform="matrix(0.13, -0.99, 0.99, 0.13, -1506.63, 2099.37)"/></g></svg>