<svg version="1.1" id="nestle_logo" xmlns="http://www.w3.org/2000/svg" viewBox="-5 -5 330 340">
    <style>
        @import url(style.css);
    </style>
    <title>Nestlé Logo</title>
    <g>
        <path class="logo" d="M401.59,312.1c-20.87-31.12-39.21-41.61-44.36-46.55-5.67-5.44-10-11.61-12.74-14.58-6.11-6.68-14-14.92-27-14.92-12.56,0-20.86,8.19-23.56,15.26-.78,2-1.4,4.48-2,5.38-1.23,2-6.79,11.5-9.09,15.26h10.38l-5.05,9.53c5.89-1.29,10.09-2.24,15.7-2.24,5,0,8.58,1.18,10.16,4.31,2.91,5.84,2.91,23.5,7.85,36.8,4.6,12.5,15.82,24.73,28.44,34.1a.93.93,0,0,0,.56.17,1,1,0,0,0,1-.9,1.09,1.09,0,0,0-.4-.84c-10.54-10.55-19.12-22.21-23.72-35-4.55-12.46-3.82-30-7.8-37.76-2.64-5.16-8.24-6.5-13.4-6.5a46.68,46.68,0,0,0-9.82,1.23l4.54-7.68h-7.68c1.63-2.86,3.31-5.5,4.15-7.07.73-1.35,1-3,1.91-5.32a18.44,18.44,0,0,1,17.78-12c10.54,0,16.71,6.79,22.82,13.57,2.81,3.14,7.41,9.71,12.74,14.59,3.64,3.36,10.6,7.12,21.31,18.17a193.37,193.37,0,0,1,20.92,25.8c27.09,39.65,44.87,74.59,54.8,101.85l-.17.11c-28.44-19.29-53.06-37.52-72.91-60-14.08-16-26.31-34.49-37-58.11-.73-1.57-1.34-3-2-4.54-.28-.61-.56-.78-1-.78a.92.92,0,0,0-1,.95,30.75,30.75,0,0,0,.9,4.65c5.67,24.46,21.37,46.39,38.14,64.62s35.61,33.71,51.15,45l12.11,34.66a8.67,8.67,0,0,1,.62,2.58,1.81,1.81,0,0,1-.56,1.45,2.26,2.26,0,0,1-1.79.51h-3.65a3.93,3.93,0,0,1-2.75-.67,4.23,4.23,0,0,1-1.23-1.91c-1.07-3.26-7.46-21.48-8.69-25.19a1.11,1.11,0,0,0-1.07-.89.94.94,0,0,0-.95.95,21.85,21.85,0,0,0,.45,2.53c1.62,8.3,3.53,17.61,4.31,21.14a25,25,0,0,1,.73,4.26,2.93,2.93,0,0,1-1.06,2.42l-3.76,3.81c-.9.9-1.41,1.12-2.13,1.12-.9,0-1.63-.62-2-2.19-4.26-19.91-10.71-44.58-12.39-51.43-.4-1.51-.68-2.35-1.57-2.35s-1.07.56-1.07,1.23a12.79,12.79,0,0,0,.17,1.57c1,7.07,5.11,32.81,9.53,56.31.79,4,2.31,6.28,5.78,6.28a6.4,6.4,0,0,0,4.49-2c2.3-2.3,3-2.92,5.72-5.61,2-1.91,3.31-2.69,6.67-2.69h8.3a5.2,5.2,0,0,0,4-1.4,4.83,4.83,0,0,0,1.45-3.71,13.82,13.82,0,0,0-1.06-4.87c-2.13-5.72-9-25.08-11-30.51L434,414c7,5.33,17.21,12.12,21.7,12.12,1.4,0,2.25-.62,2.25-2.81,0-10.31-17.17-52.77-56.37-111.22M209,246.93a7.56,7.56,0,1,1,11.39,9.25,15.77,15.77,0,0,1,.67,4c0,4.71-2.8,8-8,9.76a14.48,14.48,0,0,1-3.93,7.34c-3.37,3.25-6.79,3.25-6.79,4.6,0,.73.51,1.18,1.91,1.18,6.23,0,12.34-3.47,13.07-9.25A14.38,14.38,0,0,0,226.93,261a7.17,7.17,0,0,0-.61-3.31,11.23,11.23,0,0,0,3.53-8.24,13.73,13.73,0,0,0-25.07-7.41c-6.12,0-14,6.79-14,16.49h-.84c-.57-3.36-4-5.61-7-5.78-2.35-7.06-7.68-13.12-16.43-13.12a23.59,23.59,0,0,0-3.31.22,13.23,13.23,0,0,0-9.42-3.81,13.82,13.82,0,0,0-13.86,13.85c0,4.83,2.19,8.14,6.34,11,0,0-.06.62-.06.9,0,6.17,6.73,15.82,16.72,15.82,0,1.56,2,3.7,4.15,4.09v.79h-.84c-13.74,0-19.57,6.62-19.57,11A11.6,11.6,0,0,0,139.94,304a13.83,13.83,0,0,0,14.2,14.3,12.52,12.52,0,0,0,7.34-2.53,15.25,15.25,0,0,0,5.05.79,13,13,0,0,0,11.22-5.78,9.29,9.29,0,0,0,1.29.06c4.93,0,9.19-3.26,11.44-7.52a5.65,5.65,0,0,0,.78-2.52c0-.61-.28-1.12-.9-1.12-.78,0-.89.73-2.29,2-3.14,2.86-8,3.92-12.91,3.92-2.41,3.54-5.38,5.39-8.8,5.39a11.06,11.06,0,0,1-6.51-2,7.41,7.41,0,0,1-5.61,2.52,7.24,7.24,0,0,1-7.56-7.57,7.57,7.57,0,0,1,4.82-7c.5-5.55,6.45-9.31,13.85-9.31a26.83,26.83,0,0,1,2.92.17c1.12-1.79,3.81-3.7,7.62-4.21a6.8,6.8,0,0,0,1.86-.39,1.26,1.26,0,0,0,.67-1.18,1.24,1.24,0,0,0-.62-1.12,8,8,0,0,0-1.85-.5,13,13,0,0,1-9.87-8.2,14.54,14.54,0,0,1-14.7-14.41v-.5a7.57,7.57,0,0,1,2.81-14.58,7.67,7.67,0,0,1,6.12,3.08,14,14,0,0,1,3.81-.45c6.28,0,13,4,14.3,11.72,8.08.73,10,7.58,10.49,10.44.28,1.45.5,2.69,1.45,2.69s1.24-1.13,1.57-2.64a11.74,11.74,0,0,1,3.82-6.95c0-7.35,5.5-13.69,13.29-13.69m16.32,44c-2.64,3.76-4.54,5.61-10.54,12.68-7.91,9.37-12.06,16.94-19,33.76,1.12-.11,2.75-.22,4.55-.22.89,0,1.62,0,2.8.05l.84-1.79c3.87-8.3,9.08-19.52,16.38-28.16l2.52-3c7.51-8.8,12.17-14,15.09-26,1-4.27,1.85-8.08,4.71-10.83a12.94,12.94,0,0,1,9.14-3.53,18.76,18.76,0,0,1,7.91,2,13.28,13.28,0,0,0,6.68,1.41c1,0,1.73-.06,2.41-.12L265,272.39l5.33,3.76c-6.68,2-10.21,8.42-11.39,11.39a4.17,4.17,0,0,0-.33,1.4.82.82,0,0,0,.9.9c.72,0,1.28-.56,2.24-1.69,3.25-3.92,5.83-6.62,17.83-10.37l-8.47-6.4,6.4-9.36h-6c-3.82,0-6.34-.06-9.65-1.57-4.49-2.07-6.79-3-10.77-3a18.7,18.7,0,0,0-13,5.1c-4.21,3.87-5.5,9-7,14.7-1.19,4.37-2.58,9.19-5.73,13.62m12.9,38.2a154.22,154.22,0,0,0-10.94,16c1.07.51,4.61,2.42,5.84,3.08,3.87-5.83,9.26-13,12.79-18.45,3.19-4.93,4.49-7.06,4.71-13.68.06-1.12.06-2.19.16-3.25a14.9,14.9,0,0,1,4.44-10.1,13.28,13.28,0,0,1,9.37-3.64c3.36,0,5.32.95,8.24.95a13.28,13.28,0,0,0,4.93-1l1.07-.39-2.58,6.17,6,2.46C278.48,309.63,270,320,270,332.3a48.08,48.08,0,0,0,1.62,12.16.94.94,0,0,0,1,.79,1,1,0,0,0,1-.95l.06-1.29a66.58,66.58,0,0,1,2-15c2.52-9,9.31-17.39,16.09-21.43l-9.64-4.2,4.15-10.15-4.54.95a34.85,34.85,0,0,1-7.18,1.06,23.67,23.67,0,0,1-5.5-.73,23.34,23.34,0,0,0-5.83-.73,18.3,18.3,0,0,0-12.45,4.83c-5.95,5.66-6.29,11.77-6.68,17.22-.5,7.23-1.85,9-5.78,14.3m143.92,3.42a1.45,1.45,0,0,0-1.18-.73.93.93,0,0,0-1,.95c0,.79.56,1.74,2,4.1a117.65,117.65,0,0,0,16,21.37,158.83,158.83,0,0,0,24.06,20.63l2.75,1.91a1.69,1.69,0,0,0,1,.45,1,1,0,0,0,.95-1,1.05,1.05,0,0,0-.45-.84c-8.18-7.46-17-16.55-25.24-25.29-6.45-6.9-13.07-14.19-18.9-21.54M201.7,307.11a52.6,52.6,0,0,1,4.37-5.89c-4.32-8.74-11.38-17.1-14.47-20.41L189,283.33a141.4,141.4,0,0,1,12.68,23.78m-41.12-50.64c-.5-.45-.61-.73-.61-1.07a.84.84,0,0,1,.89-.84,2.05,2.05,0,0,1,.74.17,45.37,45.37,0,0,1,10.82,6.06,49.76,49.76,0,0,1,7.73,7.46l-2.35,2.69c-2.91-2.42-12.34-10.32-17.22-14.47m39.77,18.79-3-1.86a44.19,44.19,0,0,1,7.23-12.11,62.18,62.18,0,0,1,6.06-6c.51-.39.79-.73,1.29-.73a.94.94,0,0,1,1,.9,1.71,1.71,0,0,1-.34.84c-3.42,5.33-10.1,15.87-12.17,19m-38,26a4.53,4.53,0,0,1-1.45.45.89.89,0,0,1-.91-.9c0-.39.18-.61.57-1,6.89-5.38,13-7.51,21.31-8.91l1,3.37Zm143.86-43.52c0-2,1-5.5,4.66-5.5a8,8,0,0,1,3.36.73c1.35.61,2.25,1.51,2.25,2.47s-1,2-2.53,3.25-3.58,2.47-5.21,2.47c-2,0-2.53-1.86-2.53-3.42m-56.92,16.37c0-2.41,1.45-5.05,4.26-5.05a5.68,5.68,0,0,1,3.76,1.52,2.42,2.42,0,0,1,.89,1.8c0,1.35-1.29,2.63-2.8,3.53a7.46,7.46,0,0,1-3.47,1.12c-1.75,0-2.64-1.07-2.64-2.92m13.18,34.61a5.93,5.93,0,0,1,.28-1.91,3.62,3.62,0,0,1,3.76-2.86,5.57,5.57,0,0,1,3.19,1,2.37,2.37,0,0,1,1.18,2c0,2.41-4,5.21-6.06,5.21-1.46,0-2.35-1.4-2.35-3.42m-22.1,70.78c-7.57,0-10.94-3.59-10.94-8.13,0-8,14-15.76,26.53-20.59l3.25,4.21c-7.74,3.08-23.33,9.71-23.33,15.43,0,2,1.18,3.47,5.89,3.47,8.19,0,17-4,25.13-8a5.13,5.13,0,0,1,2-.56,2.73,2.73,0,0,1,2.52,1.45l1.35,1.85c-9.48,5.22-21.32,10.83-32.42,10.83m20.86,2.13c-7.4,4.15-15.08,6.9-21.87,6.9-7.57,0-14.3-3.25-19.91-11.72-2.36-3.59-4.21-8.08-6.45-12.06-2.69-4.71-5.61-7.24-10.71-7.24-4.66,0-9.2,1.91-14,4l.23,1.06c.39,1.74,1.07,3,2.69,3a6.43,6.43,0,0,0,1.85-.44c2.69-.85,4.65-1.58,7.41-1.58,4.2,0,6.22,2.48,9.08,8.53l1.07,2.25c-2.92,1-9.76,1.51-14.87,1.51h-2.41l.4,2.41a2.77,2.77,0,0,0,1.4,2.25c1,.5,2.47.55,5,.55a57.56,57.56,0,0,0,13.74-1.46c6.9,10.27,16.38,14.2,25.52,14.2,7.79,0,15.7-2.86,23.28-7Zm7.63,2.53L267.49,379c11.55-6.22,22.09-11.21,38.92-12.84.34,6.45-.11,14.58,4.66,14.58,4.37,0,13.9-11.27,24.9-25.4,1,.95,2.63,2,4.09,3.08l-2.8,3.64c-10.72,13.81-19.86,25.58-27.38,25.58-7,0-9.64-8.24-9.75-14.41-10.71,1.06-20.81,4.65-31.3,10.94M417.24,271.61c-4.38,0-5.61-2.42-5.61-5.83,0-7.07,4.43-17.22,7.23-23h-6.79c-3.53,6.84-17.44,28.77-24.95,37.86l4.31,4.65c4-4.48,8.48-12.11,13.3-19.63h.89c0,.4-.05.84-.05,1.24,0,6.34,3.25,11,11.27,11,4.94,0,12.68-2.46,20-4.93,6.06-2.07,11.61-4.21,14.36-5v-6.73c-3.14.95-9.54,3.42-16.16,5.72-6.95,2.41-13.79,4.6-17.77,4.6m15,20.36c6.73-2.86,18.79-7.69,25.75-10.21v-6.84c-14,5.16-38.48,15.31-55.2,24.4.45.55,3.37,4.65,3.7,5.16,7.07-2.92,13.41-4.83,19.13-4.83,8,0,14.58,0,25.58-2.58v-5.16c-6.17,1.13-12.73,2.47-17,2.47-2.53,0-3.26-.34-3.26-1.18,0-.5.34-.84,1.29-1.23M288.52,323.49l-2.7,5.16h28.66l-2.13-5.16ZM185.26,354.28a20.35,20.35,0,0,0,7.86-2,18.87,18.87,0,0,1,7.51-1.8c7.18,0,16,3.48,23.83,6.79a4.25,4.25,0,0,0,1.46.28,3,3,0,0,0,2.81-1.74l1-1.85c-8.58-5-22.27-10.32-29.39-10.32a19.92,19.92,0,0,0-7.85,1.73c-2.53,1-4.71,2.08-7,2.08-5.66,0-20.18-5.61-20.18-11,0-6.4,23.1-8.86,25.63-8.86l2.29-5.22c-16.76,0-36.73,5.88-36.73,13.68,0,2.25,1.29,3.37,1.29,5.44,0,2.81-1.29,4.71-1.29,7.85,0,2.08,1.23,4.72,2.69,7s3.42,4,3.42,6c0,1.51-1,3.3-1,6.84,0,7.57,4.32,12.17,12.73,21.2l1.69,1.79c-6.95,2.7-19.92,8.31-22.94,9.59C142.58,406.16,140,411.49,140,419.9c0,3.25,0,7,.22,10.26h2c4.21,0,4.72-2.52,4.72-4.93,0-1.62-.06-3.48-.06-5.5.06-4.65.23-8.8,7.74-12.17,3-1.34,17.89-7.4,28.94-12.11,3.25-1.41,6.28-2.58,9.65-2.58,3.76,0,8.07,1.63,13.46,4.82a56.74,56.74,0,0,1,13.07,10.54l4.76-3.64A62.34,62.34,0,0,0,209,392.08c-5.67-3.36-10.71-5.33-15-5.33a17.68,17.68,0,0,0-4.66.68,17.68,17.68,0,0,1-4.71.84c-2.07,0-3.81-.5-6.34-3.42-1-1.07-7-8-8.3-10a9.69,9.69,0,0,1-1.74-5.11,6.28,6.28,0,0,1,.74-3.08c5.2,4,11.66,6.5,19.51,7.46l-1.06-5.33c-11.28-3-23.28-12.9-23.28-19.29a8.18,8.18,0,0,1,.84-3.48c4.37,4,14.64,8.24,20.19,8.24m80.71,1c7.07-5,14.36-5.55,20.25-5.55a100.51,100.51,0,0,1,12,1.06,79.5,79.5,0,0,0,10.55.79c7.68,0,15.42-2.8,18.79-4.27a34.53,34.53,0,0,0,3.87,3.88c-1.63,1-11.94,6.61-22.49,6.61a96.67,96.67,0,0,1-12.9-1.06,80.88,80.88,0,0,0-10.55-.84c-3.87,0-11.66,1.12-16.48,3.42Zm104.15,20c-8.41,17.73-21.2,30.63-34.32,38.09-6.23,3.53-11.84,5.83-23.95,5.83h-26.2a74.46,74.46,0,0,0-19.85,2.41c-4.94,1.29-8.07,2.58-13.07,2.58a25.82,25.82,0,0,1-17.55-7.12l6.17-4.88-3.08-4.1c-1.8,1.3-23.73,17.5-28.33,21.15l-.28-.17a31,31,0,0,0,.11-3.14c0-12.34-5.72-15.32-14.41-18.79l-5.89,3.47c11.95,4,14.92,7.19,14.92,16.1,0,7.07-2.53,9.87-6.17,12a25.62,25.62,0,0,1-12.51,3.19c-1.74,0-2.52.34-3.14,1a4.17,4.17,0,0,0-1,3.08v2H183c7.52,0,14.47-1.18,22.1-7.18l24.85-19.41c3.53,4,12.45,9.65,23,9.65,6,0,9.76-1.46,15.26-2.86,4.26-1.07,8.41-2,17.49-2H312c13.46,0,20-2.81,27.14-6.84,15.6-8.75,28.89-23.56,36.41-40.56-2-1.23-3.82-2.35-5.39-3.42M327.89,396.4c6.79-10.88,12.84-20.53,27.7-28.38-1.57-.95-3.81-2.41-5-3.19-5.77,2.52-11.49,7.56-16.37,12.67-11.22,11.67-10.21,18.4-22,22.94a84.23,84.23,0,0,1-11.28,3.42C298.16,395.39,291.27,387,284,387c-5.05,0-10.88,2.63-17.61,5.61a150.54,150.54,0,0,0-17.44,9l3.09,4.15c2.35-1.29,9.14-4.66,15.92-7.57,5.89-2.52,11.22-4.6,14.81-4.6,5.77,0,9.53,6.57,11.61,11.83-7.57,1.8-20,2.25-23.78,2.25-1.74,0-2.36.28-3,.79a5,5,0,0,0-1.29,2.63l-.45,1.91h4c21,0,40.78-3.31,53.51-11.05a18.54,18.54,0,0,0,5.39.84c7.29,0,14.8-4,19.52-7.63a4.38,4.38,0,0,0,2.07-3.76c0-.61-.06-1.17-.11-1.74l-.23-2.18c-6.73,5.32-12.34,9.31-19.29,9.31a9.53,9.53,0,0,1-2.86-.34" transform="translate(-139.26 -236.05)" />
        <path class="text" d="M194.06,483.23a5.51,5.51,0,0,0-1.23,3.88v51h-.28s-27.94-49.8-29.29-52.1a9.61,9.61,0,0,0-3.43-3.6,10.46,10.46,0,0,0-5.67-1.29h-9.22A5.39,5.39,0,0,0,140.5,483a5.49,5.49,0,0,0-1.24,3.87v72.34a5.5,5.5,0,0,0,1.24,3.88,5.38,5.38,0,0,0,4.44,1.85h5.23a5.4,5.4,0,0,0,4.44-1.85,5.54,5.54,0,0,0,1.23-3.88V507h.28s29,51.37,30.19,53.28a9.38,9.38,0,0,0,8.32,4.72h8.93A5.37,5.37,0,0,0,208,563.1a5.5,5.5,0,0,0,1.24-3.88V494H326.66a4.16,4.16,0,0,0,2.75-.89,3.69,3.69,0,0,0,1.07-2.93V485.2a3.69,3.69,0,0,0-1.07-2.93,4.16,4.16,0,0,0-2.75-.9H198.5a5.43,5.43,0,0,0-4.44,1.86m51.27,19.33c-19.51,0-30.47,15.24-30.47,31.31,0,17.15,11.75,32.21,30.58,32.21,9.39,0,18.6-3.54,23.88-9.78,2.31-2.7,4.17-6.46,4.17-8.77a2.87,2.87,0,0,0-.62-2,2.68,2.68,0,0,0-2.31-.9h-9.05a4.34,4.34,0,0,0-3.93,2c-2.64,3.88-6.47,5.9-12.09,5.9a14,14,0,0,1-14.27-13.43h39.12a5.15,5.15,0,0,0,3.82-1.24c.95-.9,1.41-2.19,1.41-4.61a33,33,0,0,0-7.14-20.85c-4.95-5.9-12.48-9.9-23.1-9.9m60.3,0c-15.4,0-25.51,7.31-25.51,19a14.48,14.48,0,0,0,4,10.18c2.87,3.09,7,5.23,12.93,6.74l12.87,3.26c3.54.9,6.68,2,6.68,5.06,0,4.78-5,6.41-10.45,6.41a17.5,17.5,0,0,1-7.64-1.63,9.52,9.52,0,0,1-3.88-3.43c-.84-1.29-1.12-2.25-2.42-3a6,6,0,0,0-3-.5h-7a3.21,3.21,0,0,0-2.76,1.06,3.87,3.87,0,0,0-.67,2.42,13.23,13.23,0,0,0,2.64,7.59c4.27,5.73,13.21,10.34,24.62,10.34,11.24,0,26.81-4.67,26.81-19.73a15.86,15.86,0,0,0-3.2-9.89c-2.65-3.43-6.41-5.79-12.82-7.42l-12.76-3.26c-5.28-1.35-7.76-2.3-7.76-5.57s2.82-5.67,9.33-5.67c3.83,0,7.31.84,9.56,3.2,1.85,2,1.52,3,3,3.77a7.71,7.71,0,0,0,3.49.45H328a2.82,2.82,0,0,0,2.3-.79,3.74,3.74,0,0,0,.73-2.59c0-2.92-1.91-6.68-5.28-9.55-4.5-3.88-11.58-6.47-20.13-6.47m35,2.14h-3.14a4.19,4.19,0,0,0-2.76.9,3.68,3.68,0,0,0-1.07,2.92v3.88a3.69,3.69,0,0,0,1.07,2.93,4.19,4.19,0,0,0,2.76.9h3.14v28c0,7.19,2,11.69,5.62,15.29,3.38,3.32,7.76,5.39,15.4,5.39h4.78a4.19,4.19,0,0,0,2.76-.89,3.73,3.73,0,0,0,1.18-2.92v-4.9a3.72,3.72,0,0,0-1.18-2.92,4.19,4.19,0,0,0-2.76-.9h-.67c-3,0-5.12-.78-6.52-2.13-1.69-1.58-2.53-4-2.53-7.14V516.23H367a4.14,4.14,0,0,0,2.75-.9,3.69,3.69,0,0,0,1.07-2.93v-3.88a3.68,3.68,0,0,0-1.07-2.92,4.14,4.14,0,0,0-2.75-.9H356.78V486.38a5.18,5.18,0,0,0-1.12-3.37,4.58,4.58,0,0,0-3.76-1.64h-6.36a4.58,4.58,0,0,0-3.76,1.64,5.13,5.13,0,0,0-1.13,3.37ZM375.05,560a5.18,5.18,0,0,0,1.13,3.38,4.57,4.57,0,0,0,3.76,1.62h6.69a4.6,4.6,0,0,0,3.77-1.62,5.23,5.23,0,0,0,1.12-3.38V486.38A5.18,5.18,0,0,0,390.4,483a4.62,4.62,0,0,0-3.77-1.64h-6.69a4.58,4.58,0,0,0-3.76,1.64,5.13,5.13,0,0,0-1.13,3.37ZM231.33,527.18c.73-6.91,6-12.08,14-12.08,7.87,0,13.32,5.17,14.05,12.08ZM452.39,494a4.19,4.19,0,0,0,2.76-.89,3.69,3.69,0,0,0,1.07-2.93v-5.22c0-2-.4-3-1.07-3.77a3.71,3.71,0,0,0-2.76-1.07c-.9,0-1.79.12-3.31.28l-44.86,4.44a3.22,3.22,0,0,0-2.36,1,3.26,3.26,0,0,0-.73,2.3V491a2.78,2.78,0,0,0,.62,2.08A2.81,2.81,0,0,0,404,494Zm-24.78,8.6c-19.51,0-30.47,15.24-30.47,31.31,0,17.15,11.75,32.21,30.58,32.21,9.39,0,18.6-3.54,23.88-9.78,2.31-2.7,4.17-6.46,4.17-8.77a2.82,2.82,0,0,0-.62-2,2.68,2.68,0,0,0-2.31-.9h-9a4.34,4.34,0,0,0-3.93,2c-2.64,3.88-6.47,5.9-12.09,5.9a14,14,0,0,1-14.27-13.43h39.23a5.14,5.14,0,0,0,3.82-1.24c1-.9,1.41-2.19,1.41-4.61a33,33,0,0,0-7.14-20.85c-4.95-5.9-12.59-9.9-23.21-9.9m-14,24.62c.73-6.91,6-12.08,14.05-12.08,7.87,0,13.32,5.17,14,12.08Z" transform="translate(-139.26 -236.05)" />
    </g>
</svg>