<svg xmlns="http://www.w3.org/2000/svg" id="name_logo" data-name="Name Logo" version="1.1" viewBox="0 0 465.36 68.29"><style>@import url(./style.css);</style><script>window.addEventListener(&quot;load&quot;, () =&gt; { var svg = document.querySelector(&apos;svg&apos;); setTimeout(() =&gt; { svg.setAttribute(&quot;class&quot;, &quot;loaded&quot;); }, 1000); });</script><title>IMNILADRI</title><line id="I-1" x1="7" x2="7" y1=".87" y2="66.74" class="letter red"/><path id="M" d="M181.53,185V151.73A26.47,26.47,0,0,1,208,125.26h0a26.47,26.47,0,0,1,26.47,26.47V185" class="letter yellow" transform="translate(-156.23 -118.26)"/><line id="M-Dash" x1="51.77" x2="51.77" y1="66.74" y2="32.53" class="letter yellow"/><path id="N" d="M252.77,185V151.73a26.47,26.47,0,0,1,26.46-26.47h0a26.47,26.47,0,0,1,26.47,26.47V185" class="letter violet" transform="translate(-156.23 -118.26)"/><line id="I-2" x1="167.77" x2="167.77" y1=".87" y2="66.74" class="letter green"/><path id="L" d="M341.51,119.13l.13,35.19a23.57,23.57,0,0,0,23.49,23.49l35.19.13" class="letter red" transform="translate(-156.23 -118.26)"/><path id="A" d="M458.47,185V125.26h-26a26.81,26.81,0,0,0-26.81,26.81h0v.2a26.82,26.82,0,0,0,25.64,26.79l11.47.5" class="letter violet" transform="translate(-156.23 -118.26)"/><path id="D" d="M468.74,125.26h31.2c14.54,0,29.25,11.79,29.25,26.34h0c0,14.55-14.71,26.34-29.25,26.34h-31.2" class="letter green" transform="translate(-156.23 -118.26)"/><path id="R" d="M538.28,125.26h41.44c8.7,0,17.45,7,17.45,15.74h0c0,8.7-8.75,15.75-17.45,15.75H538.28" class="letter yellow" transform="translate(-156.23 -118.26)"/><path id="R-Dash" d="M591.72,185V168.75a12,12,0,0,0-12-12h0" class="letter yellow" transform="translate(-156.23 -118.26)"/><line id="I-3" x1="458.36" x2="458.36" y1=".87" y2="66.74" class="letter violet"/></svg>