<svg version="1.1" id="airbnb_logo" xmlns="http://www.w3.org/2000/svg" viewBox="360 90 370 400">
    <style>
        @import url(style.css);
    </style>
    <title>Airbnb Logo</title>
    <g>
        <path d="M544.13,411.87a177.61,177.61,0,0,0,35.72-48,180.73,180.73,0,0,0,12.26-29.61c4.7-15.36,8.07-26.34,5.61-40.35-.92-5.25-3.28-17.75-13.78-28.59-10.87-11.22-23.85-13.83-29.11-14.81-4.64-.87-17.87-3-31.64,2.55-18.71,7.53-26.83,23.79-28.59,27.58-9.86,21.17-2.68,42.61,2,56.68,3.23,9.64,6.92,16.13,14.3,29.11a295.1,295.1,0,0,0,24,35.74A308,308,0,0,0,571.17,441c10.89,9.72,17,15.17,27.06,20.93,10.23,5.86,24.46,14,44.43,14.3A76.58,76.58,0,0,0,682,466a78,78,0,0,0,24-23c3.79-5.59,9.9-14.84,11.74-28.09,1.5-10.72-.55-18.76-3.57-30.12-3.52-13.24-7.4-21-16.34-40.34-5.72-12.38-11.22-24.86-16.85-37.28-13.62-30-13.83-30.95-19.92-43.91-1.64-3.51-8.43-17.91-17.87-36.77-8-15.91-14.48-28.31-17.87-34.72-11.73-22.16-10.56-18.75-20.94-38.3-13.12-24.71-14.27-26.8-21.45-33.75-4.34-4.21-13-12.41-27.06-15.83-4.44-1.08-16.72-3.89-30.13,1.54-9.3,3.76-14.79,9.73-19.91,15.31-4.93,5.37-8.1,9-14.3,20-3.32,5.88-4.56,8.44-14.3,27.58-2.09,4.1-7.26,14.28-12.76,25-7.67,15-7.68,14.86-10.73,20.93-5.29,10.55-5.86,12.06-12.25,25-8.68,17.59-8.46,16.52-13.79,27.57-7.11,14.75-6.73,15.11-13.28,28.6-3.75,7.73-3.65,7.16-14.29,28.08-7.34,14.42-10.75,21.32-13.79,27.58-6.47,13.32-9.74,20.08-11.23,25A91.93,91.93,0,0,0,371,405.72a73,73,0,0,0,5.62,27.07,68.41,68.41,0,0,0,14.81,21.95,70.6,70.6,0,0,0,20.93,13.79A73.85,73.85,0,0,0,444,475.66c7,0,19.54-2,33.19-8.15a123.55,123.55,0,0,0,28-16.85c6.71-5.45,8.72-7.88,17.37-15.83C537.48,421.13,536.11,419.4,544.13,411.87Z" />
    </g>
</svg>